<?xml version="1.0" encoding="UTF-8"?>
<svg width="235px" height="85px" viewBox="0 0 235 85" version="1.1" xmlns="http://www.w3.org/2000/svg" xmlns:xlink="http://www.w3.org/1999/xlink">
    <!-- Generator: Sketch 39.1 (31720) - http://www.bohemiancoding.com/sketch -->
    <title>2005 - 2015 + Logo riPleasure</title>
    <desc>Created with Sketch.</desc>
    <defs></defs>
    <g id="Page-1" stroke="none" stroke-width="1" fill="none" fill-rule="evenodd">
        <g id="time-to-change" transform="translate(-374.000000, -310.000000)">
            <g id="2005---2015-+-Logo-riPleasure" transform="translate(374.000000, 310.000000)">
                <text id="2005---2015" font-family="Raleway-Medium, Raleway" font-size="20" font-weight="400" fill="#FD0D1B">
                    <tspan x="61.13" y="82">2005 - 2015</tspan>
                </text>
                <g id="Logo-riPleasure">
                    <path d="M7.83304214,31.5481706 C8.6154321,29.2198017 9.66081501,27.4563875 10.9686323,26.2554273 C12.2937184,25.0564015 13.6136287,24.4796093 14.9289205,24.5251894 C16.1926865,24.5685786 17.2597332,25.126912 18.128806,26.1981058 C18.9974502,27.2520698 19.4065498,28.5205889 19.3554089,30.0040806 C19.2942644,31.7431126 18.7328384,33.1398029 17.6697389,34.1949862 C16.6059434,35.2505868 15.2628674,35.7495801 13.6402331,35.6930778 C12.802596,35.6635928 12.1049865,35.3152617 11.5475435,34.6475289 C10.9884291,33.9793802 10.7261318,33.1937681 10.757866,32.2899995 C10.773182,31.8474254 11.1677714,31.3149874 11.9421915,30.692824 C12.7341476,30.054948 13.3685356,29.744544 13.8480004,29.7604989 C14.5307826,29.7845236 15.1140982,29.967434 15.5987822,30.3082571 C16.0826312,30.6500533 16.3139466,31.1097018 16.2945399,31.6894249 C16.2716951,32.3373759 15.6833381,32.7690565 14.5300262,32.9846054 C14.7536285,32.4804827 14.8706189,32.0667466 14.8818322,31.7424239 C14.9048054,31.0773816 14.6856809,30.7370857 14.2245976,30.7209803 C13.8314725,30.7076111 13.4896061,30.9343198 13.1998349,31.4024955 C12.9095065,31.8705326 12.7566254,32.3426515 12.7403566,32.8198255 C12.7247628,33.2635114 12.8968828,33.7042998 13.2586673,34.1438568 C13.635631,34.584238 14.0382214,34.8107547 14.4658827,34.8256306 C15.6274337,34.8660275 16.5547719,34.4891581 17.2505424,33.6939093 C17.9627349,32.8826706 18.3402996,31.8547379 18.3850469,30.6099711 C18.4158178,29.724267 18.0401753,28.951788 17.2599296,28.292394 C16.4795346,27.6170205 15.5770768,27.2620101 14.5524159,27.2255564 C13.49308,27.188152 12.5180349,27.4362423 11.6271405,27.9680209 C10.7367927,28.4834028 9.89044809,29.4360411 9.08977658,30.8239895 C8.3053986,32.2130392 7.90712653,33.0870253 7.89468107,33.4446975 C7.88552436,33.7181623 8.04257832,38.5104038 8.36667938,47.8228112 C10.4724173,47.2649764 12.398372,46.4793726 14.1449602,45.4643321 L14.4085353,46.7279408 C12.4612001,47.6156883 10.6588424,48.304503 9.00020765,48.7923014 C7.34087687,49.280517 5.23278619,49.6417352 2.67621491,49.8772063 L2.72162073,48.5729673 C4.22491157,48.626349 5.68323619,48.4807787 7.09868413,48.1373668 C7.16187473,46.3309414 6.8609076,43.1969136 6.19620092,38.7359779 C5.54778777,34.2761435 4.81584552,30.5129319 3.99981705,27.4462044 L0.315599297,28.6233752 L0.088908957,27.7710433 C3.4322315,27.0345678 6.11795295,25.7967491 8.1464915,24.0582817 C7.99353133,25.5040424 7.90698866,26.4992765 7.88797772,27.0442611 C7.83559419,28.5445668 7.81663262,30.046102 7.83304214,31.5481706" id="Fill-9" fill="#FD0D1B"></path>
                    <path d="M32.3383077,47.8192537 C28.5016412,47.9598798 26.1116849,48.1091041 25.1695414,48.2671109 C24.2272454,48.4411924 23.4101717,48.6206952 22.7173047,48.8048534 L22.6698138,47.3592353 L25.8802206,47.1360215 C25.6281365,39.5310095 25.0137163,32.2727231 24.0365833,25.3599068 L21.267714,25.3563679 L21.2350415,24.384304 C22.9471629,24.3567529 24.135256,24.329887 24.8001617,24.3056354 C25.9788595,24.2622919 27.5537281,23.8802619 29.5262194,23.1574027 L29.5662137,24.3668254 L27.3430693,25.027525 L27.1004158,33.5111016 L26.9447284,46.8857614 C28.8377842,46.8162929 30.619595,46.6370009 32.289697,46.3472113 L32.3383077,47.8192537 L32.3383077,47.8192537 L32.3383077,47.8192537 Z M26.5763692,17.1042817 L26.3553257,17.1663012 C25.8592034,16.1474509 25.1486734,15.6611181 24.2219453,15.7045857 C23.5182065,15.7387699 22.8828267,16.0605181 22.3171659,16.6689659 C21.7513752,17.2785477 21.4780163,17.9661264 21.4975847,18.7347168 C21.5209848,19.6570072 21.7861946,20.3800087 22.2946392,20.9022896 C22.8021337,21.425525 23.2909681,21.6749872 23.7604724,21.6528546 C24.6987908,21.6072757 25.153148,21.012811 25.1253788,19.8681187 C25.092073,18.5699342 24.7112377,17.9390151 23.9826578,17.9735709 C23.8470122,17.9798978 23.7003544,18.0640212 23.5439796,18.2256435 C23.3866178,18.3701944 23.310718,18.5447924 23.3158702,18.7493479 C23.3264548,19.1596827 23.5103094,19.3562983 23.868729,19.3388971 C24.0293456,19.3310647 24.2238175,19.2184717 24.4536549,19.0026113 C24.3396789,19.8802834 24.0608342,20.3295229 23.616171,20.351284 C23.4179579,20.3607628 23.234973,20.2079292 23.0666562,19.8903355 C22.910015,19.5735554 22.8291322,19.3035911 22.8234681,19.0814869 C22.8126519,18.6548272 22.9331873,18.2813471 23.1846646,17.9609568 C23.43591,17.6242416 23.7466454,17.4470231 24.1174105,17.4282573 C24.6114757,17.4045293 25.0724548,17.5705885 25.5025278,17.9257499 C25.9320609,18.2819555 26.1550619,18.8010037 26.1726959,19.4837311 C26.1910088,20.200899 25.9404396,20.8289537 25.4227585,21.3671202 C24.9163709,21.8874176 24.3540195,22.1623886 23.7369342,22.1923026 C23.0078793,22.2273355 22.3626852,21.9081733 21.801892,21.2337718 C21.2405588,20.5604145 20.9468022,19.6939928 20.9201474,18.634984 C20.8917619,17.52503 21.150832,16.5291811 21.6978326,15.6469603 C22.2442932,14.7657836 22.845037,14.3097435 23.4997838,14.277616 C25.1426611,14.1980325 26.1678296,15.1409506 26.5763692,17.1042817 L26.5763692,17.1042817 L26.5763692,17.1042817 Z" id="Fill-10" fill="#178A22"></path>
                    <path d="M49.7800947,6.00760417 C54.7408602,5.22328125 59.0683243,5.79791667 62.765932,7.72864583 C66.482487,9.65765625 68.6045923,12.2827604 69.1328219,15.6022396 C69.7873674,19.7272396 69.027176,23.4832812 66.8533961,26.8715104 C64.679042,30.2591667 61.9178937,32.2179687 58.569377,32.7473437 C57.4939703,32.9175 56.4541616,32.6373437 55.4488028,31.9085937 C54.4600947,31.1557812 53.8813387,30.2436979 53.7108124,29.1700521 C53.6063148,28.5111979 54.0644966,27.7933333 55.085932,27.01875 C56.1240181,26.2206771 57.0874631,25.7508854 57.9768411,25.6105208 C58.9069846,25.4632812 59.4702382,26.0092708 59.6666018,27.2461979 C59.7222956,27.5968229 59.4197119,28.1628646 58.759999,28.94375 C58.6572238,28.8326042 58.3827741,28.5066146 57.9372238,27.9634896 C57.510621,27.4180729 57.0817215,27.1797396 56.6476545,27.2479167 C55.7175109,27.3945833 55.3701425,28.2104167 55.6061234,29.6954167 C55.7238267,30.4379167 56.0999033,31.0028125 56.7332047,31.3883854 C57.3866018,31.7716667 58.1266975,31.8977083 58.954066,31.7665104 C61.1244009,31.4239062 62.8388506,29.9475 64.0991377,27.3384375 C65.3783722,24.7259375 65.7647837,21.8218229 65.2583722,18.6249479 C64.6623913,14.8717708 63.0650707,11.9527604 60.4675588,9.86791667 C57.8694726,7.78421875 54.3423913,6.98901042 49.8868889,7.48114583 C50.1665061,12.0455729 51.0558841,19.0517708 52.5555971,28.496875 C52.9448793,30.95125 53.7268889,34.2735937 54.9004774,38.4644792 C56.0711951,42.6353125 56.8244966,45.58125 57.1615301,47.3034375 L65.0160755,46.7288021 L64.8713865,48.6222917 C62.5351186,48.5890625 59.4570325,48.7489062 55.6348315,49.0989583 C51.8166497,49.4696354 48.8367454,49.8557812 46.6974152,50.2579687 L46.2220085,48.461875 C48.0576066,48.1507812 49.9804774,47.9216146 51.9917693,47.7720833 C54.0225827,47.6202604 55.2088028,47.485625 55.5510038,47.3681771 C55.1358841,45.5526042 54.3360755,42.7189583 53.1527262,38.8678125 C50.3967454,29.9159896 48.4738746,22.0063021 47.3841138,15.13875 C46.7783722,11.3236979 46.4407645,8.93520833 46.3735875,7.97270833 C43.2512908,8.59317708 40.6267932,9.74817708 38.501243,11.4365625 C36.3952143,13.1232292 35.4955014,14.9244792 35.7998076,16.8426042 C35.9439224,17.7506771 36.4526305,18.4198437 37.3265061,18.8529687 C38.2176066,19.2620312 39.1799033,19.3846354 40.2133961,19.2213542 C42.7557884,18.8191667 43.9534918,18.1545833 43.805932,17.2258854 C43.7668889,16.9789583 43.5992334,16.7944792 43.304688,16.6713021 C43.0273674,16.5246354 42.7431569,16.4747917 42.454353,16.5200521 C41.7722478,16.6283333 41.4920564,17.06375 41.6132047,17.8263021 C40.9552143,17.8251562 40.5768411,17.5048958 40.4752143,16.8649479 C40.3184679,15.8749479 40.8380851,15.2854167 42.0380851,15.0957812 C42.5955971,15.0075521 43.1571282,15.1404687 43.7221042,15.4951042 C44.307176,15.846875 44.6338746,16.2393229 44.7033482,16.6724479 C44.8704296,17.72375 44.5265061,18.6982813 43.6733004,19.59375 C42.8195205,20.4903646 41.6895683,21.0489583 40.2851664,21.27125 C38.7756927,21.5095833 37.4137789,21.27125 36.1982765,20.5533854 C34.999999,19.8131771 34.2995205,18.803125 34.0968411,17.5238021 C33.8350229,15.874375 34.5291856,14.0416146 36.1793291,12.0255208 C37.8266018,9.989375 41.1779894,8.21333333 46.234066,6.69453125 C46.1031569,5.86953125 45.7913865,3.77380208 45.2993291,0.404479167 C48.104688,0.19421875 49.6928219,0.0595833333 50.0660277,0 C49.7944487,3.36302083 49.6985636,5.36479167 49.7800947,6.00760417" id="Fill-11" fill="#110F0E"></path>
                    <path d="M85.0453589,42.5805729 C84.9276555,44.0254688 84.4333014,44.8011979 83.5605742,44.9077604 C82.1682297,45.0784896 81.3839234,44.4391146 81.2053589,42.9879167 C81.0750239,41.9303125 81.3977033,40.9552083 82.1733971,40.0603125 C82.9490909,39.1665625 83.8866986,38.6526562 84.9879426,38.5163021 C85.9226794,38.4017188 86.7948325,38.7271354 87.6061244,39.4896875 C88.4168421,40.2533854 88.8876555,41.1740625 89.0214354,42.2511458 C89.2763636,44.3239583 88.4771292,46.230625 86.6260287,47.9722917 C84.7709091,49.6927604 82.8566507,50.6735938 80.8844019,50.9165104 C80.0742584,51.015625 79.2026794,50.7016667 78.2702392,49.9740625 C77.3389474,49.2676563 76.8055502,48.355 76.6683254,47.2360938 C76.3490909,44.6453646 76.2974163,41.1379688 76.5121531,36.7150521 C76.72689,32.2921354 76.7217225,27.8858333 76.497799,23.4944271 C76.2939713,19.1013021 75.685933,12.7911979 74.6742584,4.56239583 L70.8572249,5.1559375 L70.7894737,4.09145833 C74.6937799,3.61307292 78.4677512,2.58296875 82.1108134,1 L82.2445933,2.08796875 L79.7309091,3.24869792 C79.7257416,13.6626042 79.6442105,20.7100521 79.4857416,24.3904688 C79.3450718,28.0473958 78.9431579,32.1466146 78.2794258,36.6875521 C77.6363636,41.2267708 77.415311,44.3153646 77.6168421,45.9516146 C77.7242105,46.8224479 78.1697608,47.7047396 78.9546411,48.5967708 C79.7573206,49.4658854 80.5215311,49.8548958 81.2489952,49.7672396 C82.9938756,49.5535417 84.4120574,48.8322396 85.5052632,47.6050521 C86.6168421,46.354375 87.061244,44.8275521 86.8390431,43.0234375 C86.757512,42.3605729 86.4755981,41.7847917 85.9944498,41.2966667 C85.532823,40.8068229 84.9804785,40.6011458 84.3368421,40.6790625 C82.695311,40.8801563 81.9557895,41.6335417 82.116555,42.9392188 C82.1751196,43.4164583 82.4949282,43.6186979 83.0771292,43.5476563 C83.7201914,43.4685938 84.2363636,43.1214063 84.6250718,42.5055208 L85.0453589,42.5805729" id="Fill-12" fill="#110F0E"></path>
                    <path d="M108.115234,41.2925744 C109.094181,41.2072098 109.625282,41.6328869 109.707961,42.5684598 C109.760784,43.172314 109.535138,43.715439 109.032172,44.1995536 C108.54643,44.6613244 108.064707,44.9128348 107.585856,44.9546577 C106.980688,45.0073661 106.329014,44.7713244 105.632554,44.244814 C104.956191,43.7171577 104.580688,43.0267932 104.506047,42.1737202 C104.402124,40.9883557 104.705856,40.0292932 105.41954,39.2959598 C106.130353,38.5420015 107.058774,38.1151786 108.205951,38.0149182 C109.582219,37.8946057 110.770736,38.284189 111.774372,39.1808036 C112.774564,40.0585119 113.340688,41.2450223 113.47332,42.7426265 C113.628344,44.5117932 112.969779,45.984189 111.496478,47.159814 C110.044994,48.3342932 108.391406,49.002314 106.536861,49.1650223 C103.159636,49.4600744 99.89954,48.3405952 96.7577218,45.805439 C93.6130328,43.2502307 91.8664299,39.975439 91.5161907,35.9816369 C91.1860471,32.2170015 92.2936069,28.6723661 94.8377218,25.3477307 C97.3824108,22.0236682 100.238296,20.223564 103.407674,19.9462723 C105.783559,19.7388765 108.052076,20.3375744 110.213224,21.7412202 C112.392746,23.1230952 113.557148,24.6671057 113.707578,26.3726786 C113.893607,28.4947619 113.170736,30.3086161 111.537817,31.8125223 C109.925569,33.3164286 107.806908,34.1826786 105.180114,34.4118452 C102.636573,34.633564 100.645951,34.4513765 99.2082481,33.8641369 C97.7699706,33.2768973 96.9959993,32.3499182 96.8840376,31.0803348 C96.7841333,29.9356473 97.129205,28.9628348 97.9204012,28.1596057 C98.710449,27.3575223 99.5745639,26.9158036 100.513894,26.8333036 C101.347004,26.7605432 102.116956,26.912939 102.822602,27.2916369 C103.547195,27.6474182 103.934755,28.1172098 103.985856,28.6992932 C104.040401,29.3231994 103.851502,29.9270536 103.419731,30.5097098 C103.008057,31.0906473 102.584325,31.4000223 102.146239,31.4384077 C101.29131,31.512314 100.83887,31.2590848 100.78777,30.6758557 C101.743176,30.3206473 102.191597,29.8101786 102.134181,29.1438765 C102.088822,28.6242411 101.865473,28.2346577 101.464707,27.9762723 C101.062219,27.696689 100.600018,27.579814 100.079253,27.6250744 C99.7037505,27.6583036 99.3764777,28.0009077 99.0980089,28.6540327 C98.8166691,29.2871057 98.7052816,29.9259077 98.7615495,30.5698661 C98.8419323,31.4859598 99.557339,32.2198661 100.908344,32.7721577 C102.278296,33.3032515 103.891119,33.4865848 105.746813,33.3244494 C107.330353,33.1863765 108.518296,32.6014286 109.31064,31.567314 C110.102411,30.5337723 110.426813,29.2068973 110.28442,27.5832515 C110.136861,25.8983036 109.359444,24.3422619 107.95332,22.9134077 C106.546047,21.4856994 104.914851,20.8531994 103.059731,21.0136161 C100.745856,21.2158557 98.890162,22.6888244 97.4920758,25.4302307 C96.0922672,28.1521577 95.5864299,31.7277307 95.9745639,36.1586682 C96.296095,39.8196057 97.4886309,42.7655432 99.553894,44.9953348 C101.640401,47.2245536 104.048439,48.2191369 106.779731,47.9808036 C108.050928,47.8696577 109.27332,47.3225223 110.448057,46.3393973 C111.641167,45.3345015 112.178009,44.1560119 112.060306,42.8033557 C111.980497,41.8884077 111.463176,41.1476265 110.51064,40.580439 C109.556956,40.0143973 108.549301,39.7777827 107.486526,39.8694494 C106.902028,39.9210119 106.418009,40.1518973 106.034468,40.5621057 C105.650353,40.9734598 105.480975,41.4392411 105.526908,41.9588765 C105.605569,42.8537723 106.176286,43.2542411 107.239636,43.1614286 C107.55198,43.1339286 107.785664,42.924814 107.940688,42.5340848 C108.093416,42.1227307 108.15198,41.7090848 108.115234,41.2925744" id="Fill-13" fill="#110F0E"></path>
                    <path d="M129.038865,40.3432702 C127.284798,40.5094161 125.867765,40.7047807 124.787765,40.9305098 C123.726712,41.1350411 122.875803,41.6552494 122.235612,42.4922807 C121.613793,43.308114 121.319822,44.153739 121.350253,45.0303015 C121.379535,45.865614 121.623554,46.5468119 122.081736,47.0733223 C122.560588,47.6004057 123.166329,47.8507702 123.898387,47.824989 C125.173602,47.7808744 126.57743,46.9278015 128.111592,45.2651973 L129.038865,40.3432702 L129.038865,40.3432702 Z M124.478291,29.4074369 C124.361736,30.2685307 123.885181,30.7136869 123.048626,30.7423327 C122.588722,30.7583744 122.206329,30.6151452 121.903171,30.3126452 C121.598291,29.9889473 121.437525,29.5667077 121.419152,29.0442077 C121.397908,28.4397807 121.639057,27.8674369 122.14432,27.3266036 C122.667956,26.7657182 123.234655,26.4746765 123.84097,26.4523327 C126.663554,26.354364 128.104702,27.1186348 128.16097,28.746864 C128.2092,30.1035307 127.53054,31.3805619 126.12786,32.5785307 C124.724607,33.7553015 123.499344,34.3625932 122.453793,34.3986869 C121.219918,34.4416557 120.16231,34.1339994 119.28097,33.4751452 C118.398482,32.7956661 117.93743,31.8715515 117.89609,30.7028015 C117.811688,28.2822286 118.864702,25.7808744 121.05743,23.1964473 C123.249009,20.6125932 125.578387,19.2776973 128.046712,19.1917598 C130.074655,19.1207182 131.809774,19.9382702 133.252071,21.6432702 C134.693219,23.3270723 135.458004,25.4428536 135.547573,27.9877494 C135.611305,29.8033223 135.404033,31.3679577 134.926329,32.679364 C134.46987,33.9907702 133.748722,35.5410827 132.765181,37.3303015 C130.24231,41.8477494 129.046903,45.9532702 129.175516,49.646864 C129.190444,50.0639473 129.226042,50.4907702 129.283458,50.9284786 L127.997334,50.9731661 L127.91408,46.8080619 C125.359631,48.6104577 123.506808,49.5311348 122.357334,49.571239 C120.934559,49.6205098 119.748339,49.234364 118.798674,48.4099369 C117.84786,47.5654577 117.348339,46.4454057 117.298961,45.0463432 C117.253028,43.7314994 117.892071,42.5495723 119.216664,41.5005619 C120.560779,40.4303536 122.069104,39.8666036 123.742789,39.8070202 C124.93475,39.7651973 126.832932,39.5738432 129.439057,39.2323848 C130.869296,35.8195202 131.537621,32.7985307 131.446329,30.1676973 C131.234463,24.1165515 129.737621,21.1396765 126.956377,21.2353536 C124.404224,21.3241557 122.603076,22.2127494 121.552932,23.8994161 C120.501066,25.5660307 120.026234,27.839364 120.127286,30.7188432 C120.154846,31.5123327 120.408052,32.1820723 120.888626,32.7297807 C121.388147,33.2763432 121.98298,33.5375932 122.674846,33.5135307 C123.531497,33.483739 124.333602,33.0592077 125.080588,32.2387911 C125.825851,31.4195202 126.181832,30.5400932 126.150253,29.5999369 C126.131305,29.0785827 125.87408,28.6391557 125.380875,28.279364 C124.886521,27.8995202 124.345659,27.7207702 123.760588,27.7402494 C123.509104,27.7488432 123.284033,27.8823327 123.083076,28.1401452 C122.903937,28.3973848 122.818387,28.6614994 122.828722,28.932489 C122.846521,29.4544161 123.075037,29.7076452 123.514846,29.6916036 C123.869104,29.6795723 124.19121,29.5850411 124.478291,29.4074369 L124.478291,29.4074369 Z" id="Fill-14" fill="#110F0E"></path>
                    <path d="M146.514079,43.8965473 C145.598863,43.0566515 144.817428,42.6430056 144.169198,42.6527452 C143.813792,42.6590473 143.378576,42.9489431 142.865849,43.5212869 C142.373792,44.0942036 142.130347,44.5479536 142.136088,44.8813911 C142.153887,45.9046202 142.767667,46.8545161 143.97628,47.7310786 C145.205562,48.6076411 146.73915,49.0293077 148.581638,48.9977973 C149.460107,48.9829015 150.393122,48.4231619 151.377811,47.3208702 C152.363074,46.2174327 152.844222,45.040089 152.822978,43.7865473 C152.804031,42.7220681 152.376854,41.5917036 151.53915,40.3943077 C150.722691,39.1774327 148.414557,37.0977452 144.617619,34.1552452 C142.983552,32.9102973 141.845562,31.8652973 141.203074,31.0196723 C140.560586,30.1539952 140.050155,29.1708702 139.675801,28.0702973 C139.321543,26.9702973 139.13494,25.8662869 139.115993,24.7594119 C139.080394,22.7553494 139.864127,20.8836306 141.466615,19.1425369 C143.067954,17.4020161 145.040203,16.5122765 147.384509,16.4704536 C149.225849,16.4383702 150.843839,16.859464 152.241351,17.7331619 C153.658385,18.585089 154.379533,19.7847765 154.407667,21.3287869 C154.43006,22.5817556 153.967859,23.7596723 153.025083,24.8613911 C152.10183,25.9430577 151.034461,26.4942036 149.821256,26.5154015 C148.836567,26.5320161 148.00116,26.0564952 147.31561,25.0865473 C146.628337,24.0959744 146.277524,23.1414952 146.260299,22.2225369 C146.240203,21.0749848 146.889581,20.489464 148.207284,20.4659744 C148.625849,20.4585265 149.014557,20.5255577 149.37226,20.6647765 C149.332069,20.7501411 149.240203,20.8767556 149.096662,21.0457661 C148.358863,21.8942556 147.995418,22.6625369 148.006902,23.3517556 C148.015514,23.8524848 148.400203,24.2529536 149.158098,24.5531619 C149.916567,24.8327452 150.546423,24.9673806 151.048816,24.9587869 C151.46738,24.9519119 151.839438,24.7256098 152.168433,24.2815994 C152.494557,23.8163911 152.652452,23.3752452 152.647284,22.957589 C152.622595,21.5384744 152.075993,20.2837869 151.010921,19.1952452 C149.965945,18.0855056 148.722308,17.5435265 147.277715,17.5687348 C145.938768,17.5922244 144.828337,18.1342036 143.946997,19.1929536 C143.064509,20.2322244 142.635036,21.3362348 142.655131,22.5049848 C142.726902,26.5761306 144.64805,29.9889952 148.422595,32.7424327 C152.430825,35.7215994 154.46049,38.6830056 154.512165,41.6272244 C154.542021,43.3396723 154.211304,44.8275369 153.522882,46.0925369 C152.832165,47.3374848 151.992165,48.3641515 151.001734,49.1754015 C150.011878,50.0072765 149.225849,50.5108702 148.6425,50.6890473 C148.05915,50.8867036 147.150825,50.9967036 145.917524,51.0184744 C144.598672,51.0408181 143.458385,50.4129015 142.493792,49.1358702 C141.529198,47.8582661 141.033696,46.4775369 141.007859,44.9948286 C140.99006,43.9303494 141.370155,42.9632661 142.150442,42.0930056 C142.930155,41.2238911 143.758672,40.7815994 144.638863,40.7649848 C145.265849,40.7540994 145.813026,40.9122244 146.27982,41.2376411 C146.766136,41.5642036 147.014174,41.9767036 147.023361,42.4780056 C147.030825,42.9162869 146.860299,43.3895161 146.514079,43.8965473" id="Fill-15" fill="#110F0E"></path>
                    <path d="M186.993422,48.6028914 C184.573326,49.2703393 182.615431,49.9664331 181.117441,50.6934643 L180.523756,43.2896622 C177.821173,47.0646101 174.617345,48.9197143 170.91457,48.8549747 C168.08969,48.8057039 165.513996,47.6438289 163.189211,45.3682039 C160.864426,43.0725268 159.729881,40.3173706 159.786723,37.1015893 C159.809115,35.7861726 160.221938,34.3321101 161.024618,32.7376831 C161.826723,31.1438289 162.728158,29.864506 163.72835,28.8997143 C164.750359,27.9148706 165.627106,26.7930997 166.36146,25.5315372 C167.116484,24.2705476 167.498876,23.2748185 167.51323,22.5437768 C167.552847,20.3105476 166.60835,19.1773185 164.684331,19.1423706 C163.846627,19.1280476 163.036484,19.3549226 162.255048,19.8207039 C161.493709,20.2882039 161.106723,20.8765893 161.094666,21.5864331 C161.085479,22.0671101 161.276101,22.4979435 161.66768,22.8806518 C162.058685,23.2433081 162.483565,23.4277872 162.944618,23.4352351 C163.48835,23.4449747 163.823661,23.3985685 163.951699,23.2965893 C164.099833,23.1951831 164.176197,23.0290372 164.18079,22.7992976 C164.189402,22.2773706 163.745575,21.9250268 162.848733,21.7422664 C163.297728,21.2489851 163.656579,21.0043497 163.929307,21.0089331 C164.305957,21.0158081 164.636675,21.1997143 164.923756,21.5589331 C165.232656,21.8992456 165.382512,22.2985685 165.375048,22.7574747 C165.362417,23.4461206 165.057536,24.0889331 164.46213,24.6836206 C163.886819,25.2588289 163.254091,25.5395581 162.563374,25.5275268 C161.913996,25.5160685 161.312847,25.1929435 160.759355,24.5564331 C160.226532,23.8998706 159.966436,23.2278393 159.978493,22.5380476 C160.000886,21.2438289 160.503278,20.0000268 161.487967,18.8049226 C162.471508,17.6109643 163.506723,17.0242976 164.595335,17.0420581 C165.787297,17.0626831 166.762225,17.5811726 167.518972,18.5969539 C168.275718,19.5915372 168.64146,20.7889331 168.617919,22.1874226 C168.584044,24.1084122 168.039163,25.9577872 166.982704,27.7349747 C164.675144,31.6422664 163.50213,34.6815893 163.464235,36.8523706 C163.407967,40.0887768 164.136579,42.6497143 165.652943,44.5346101 C167.189402,46.4200789 169.276484,47.3854435 171.912465,47.4312768 C175.134666,47.4874226 177.933709,45.3853914 180.310742,41.1246101 C179.673996,34.4719018 178.690455,27.8873706 177.360694,21.3687247 L174.029977,21.4987768 L174.179259,20.1541414 C177.904426,20.1564331 181.387297,19.6430997 184.629594,18.6129956 L184.921268,19.902631 L181.703661,20.7236206 C181.580216,27.7808081 181.795527,37.0259643 182.349594,48.4590893 C183.861364,48.1720581 185.270934,47.7269018 186.57945,47.1230476 L186.993422,48.6028914" id="Fill-16" fill="#110F0E"></path>
                    <path d="M196.083828,26.7652083 C197.139713,23.9504687 198.494737,21.8369792 200.146603,20.4241667 C201.818565,19.0130729 203.457799,18.3639583 205.066029,18.4751042 C206.610526,18.5828125 207.890909,19.3109896 208.9089,20.6584896 C209.927464,21.9853646 210.37244,23.5551562 210.246699,25.3678646 C210.09799,27.4922396 209.349856,29.1777604 208.004019,30.4232812 C206.658182,31.669375 204.99311,32.2222396 203.010526,32.0841667 C201.986794,32.0125521 201.149091,31.5565104 200.49512,30.7154687 C199.84,29.875 199.552344,28.9016146 199.629282,27.7976042 C199.667751,27.2567708 200.173589,26.6219792 201.147943,25.894375 C202.143541,25.1472917 202.933014,24.794375 203.51866,24.8350521 C204.352919,24.8929167 205.059139,25.1421354 205.637895,25.5798437 C206.214354,26.018125 206.477895,26.5910417 206.429665,27.2991667 C206.374545,28.0909375 205.635598,28.5933854 204.216268,28.8082292 C204.509665,28.2009375 204.671579,27.7002083 204.69799,27.30375 C204.755407,26.4913542 204.502201,26.0651042 203.938947,26.0261458 C203.457799,25.9923438 203.030622,26.2558854 202.656268,26.815625 C202.280191,27.3765104 202.072919,27.9477083 202.032727,28.5303646 C201.994258,29.0723437 202.186029,29.6194792 202.610335,30.1717708 C203.053014,30.7269271 203.535311,31.0219792 204.057799,31.0580729 C205.476555,31.1571875 206.628325,30.7355208 207.514258,29.7919271 C208.420287,28.83 208.926124,27.5890625 209.033493,26.0673958 C209.108708,24.9851562 208.682679,24.0238021 207.756555,23.1844792 C206.829856,22.3245312 205.741244,21.8513021 204.489569,21.7630729 C203.194258,21.6725521 201.991388,21.9338021 200.87866,22.5473958 C199.767656,23.1397917 198.6911,24.2690104 197.65244,25.9327604 C196.632153,27.599375 196.107943,28.6506771 196.078086,29.0883854 C196.054545,29.4223958 196.040766,35.2930729 196.038469,46.6998438 C198.639426,46.1074479 201.029091,45.2285937 203.210335,44.0609896 L203.477895,45.6176042 C201.058373,46.6213542 198.823158,47.3867708 196.772249,47.9127083 C194.721914,48.4392188 192.126124,48.7915625 188.988325,48.9708854 L189.100287,47.3776042 C190.937608,47.5059375 192.728421,47.3902083 194.47445,47.0304167 C194.6289,44.8229688 194.394641,40.9758333 193.772249,35.4895833 C193.169952,30.0061979 192.436746,25.3707292 191.568612,21.58375 L187.011483,22.8665104 L186.770335,21.8134896 C190.892823,21.0555208 194.231005,19.6558854 196.787751,17.6145833 C196.53799,19.3774479 196.389856,20.5914583 196.343923,21.2571875 C196.214737,23.0910937 196.127464,24.9267187 196.083828,26.7652083" id="Fill-17" fill="#110F0E"></path>
                    <path d="M225.085849,42.8977551 C226.050442,43.0850989 226.442595,43.6396822 226.264605,44.562078 C226.14805,45.1567655 225.78116,45.6173905 225.163361,45.943953 C224.570251,46.2544739 224.036279,46.3639009 223.565466,46.2722343 C222.968911,46.1565051 222.407954,45.7508801 221.884318,45.0524947 C221.379629,44.3592655 221.209102,43.592703 221.372739,42.7522343 C221.600681,41.5834843 222.156471,40.7453072 223.045849,40.2365572 C223.937523,39.7077551 224.94805,39.5524947 226.078576,39.7719218 C227.434174,40.0348905 228.46939,40.7361405 229.185945,41.8745259 C229.905945,42.9934322 230.122404,44.2893697 229.835323,45.7657759 C229.495418,47.5080155 228.45561,48.7426509 226.715323,49.4679634 C224.995131,50.1972864 223.220968,50.3846301 221.392834,50.0311405 C218.065562,49.3854634 215.241256,47.4123384 212.921064,44.1123384 C210.603744,40.7911405 209.830346,37.1628593 210.597428,33.2269218 C211.31915,29.5172864 213.362595,26.4149426 216.726614,23.9187447 C220.091208,21.4231197 223.334079,20.4783801 226.457523,21.0833801 C228.798959,21.537703 230.81427,22.7368176 232.504031,24.6812968 C234.216184,26.6085884 234.909198,28.4138489 234.583074,30.0942134 C234.175992,32.1847864 232.979437,33.7299426 230.994557,34.7268176 C229.029772,35.7282759 226.753217,35.9780676 224.165466,35.4761926 C221.658672,34.9897864 219.796088,34.2673384 218.575992,33.3071301 C217.355897,32.3474947 216.867284,31.2423384 217.111303,29.9916614 C217.330059,28.8641614 217.931208,28.0236926 218.9136,27.4691093 C219.894844,26.9156718 220.847954,26.7289009 221.77293,26.9076509 C222.593983,27.0669218 223.29159,27.4255676 223.865753,27.9835884 C224.463456,28.5249947 224.706901,29.0824426 224.59494,29.6565051 C224.476088,30.2718176 224.126997,30.8000468 223.550538,31.2406197 C222.994174,31.6863489 222.502117,31.8668176 222.070346,31.7831718 C221.22805,31.6198905 220.862882,31.252078 220.974844,30.6774426 C221.991686,30.5983801 222.563552,30.2305676 222.692739,29.574578 C222.792643,29.0623905 222.684701,28.6269739 222.371208,28.268328 C222.06116,27.8884843 221.650059,27.649578 221.136184,27.5498905 C220.766423,27.4782759 220.357045,27.7177551 219.909198,28.2689009 C219.464222,28.7994218 219.180586,29.3826509 219.055992,30.0180155 C218.880873,30.9203593 219.365466,31.8232759 220.511495,32.7256197 C221.682212,33.6124947 223.180777,34.2323905 225.009485,34.5870259 C226.570634,34.8895259 227.873409,34.6540572 228.921256,33.8777551 C229.96738,33.1025989 230.64604,31.9160884 230.957811,30.3165051 C231.281638,28.6561926 230.964126,26.9460364 230.006423,25.1860364 C229.04872,23.4266093 227.655227,22.3701509 225.828241,22.0143697 C223.547093,21.572078 221.357236,22.4772864 219.255801,24.7282759 C217.158385,26.9592134 215.683935,30.2574947 214.834174,34.6231197 C214.130825,38.2313489 214.463839,41.3909843 215.833217,44.1025989 C217.222691,46.8187968 219.262117,48.4372864 221.953791,48.9592134 C223.206614,49.2021301 224.53293,49.0124947 225.933887,48.391453 C227.358959,47.7526509 228.200107,46.7678072 228.460203,45.4346301 C228.636471,44.5334322 228.343648,43.6792134 227.584605,42.8719739 C226.823839,42.0653072 225.921256,41.5611405 224.873983,41.3571822 C224.298672,41.2454634 223.769294,41.3342655 223.286997,41.6235884 C222.803552,41.9129114 222.5136,42.313953 222.413696,42.8261405 C222.242021,43.7084322 222.679533,44.2498384 223.726806,44.4532239 C224.035131,44.5128072 224.317619,44.376453 224.57427,44.0430155 C224.835514,43.6900989 225.004892,43.3079634 225.085849,42.8977551" id="Fill-18" fill="#110F0E"></path>
                </g>
            </g>
        </g>
    </g>
</svg>