<?xml version="1.0" encoding="UTF-8"?>
<svg width="48px" height="51px" viewBox="0 0 48 51" version="1.1" xmlns="http://www.w3.org/2000/svg" xmlns:xlink="http://www.w3.org/1999/xlink">
    <!-- Generator: Sketch 39.1 (31720) - http://www.bohemiancoding.com/sketch -->
    <title>API icon Copy</title>
    <desc>Created with Sketch.</desc>
    <defs>
        <linearGradient x1="50%" y1="0%" x2="50%" y2="100%" id="linearGradient-1">
            <stop stop-color="#48E0FF" offset="0%"></stop>
            <stop stop-color="#23BDFF" offset="100%"></stop>
        </linearGradient>
    </defs>
    <g id="Page-1" stroke="none" stroke-width="1" fill="none" fill-rule="evenodd">
        <g id="time-to-change" transform="translate(-420.000000, -1757.000000)" fill="url(#linearGradient-1)">
            <g id="API-icon-Copy" transform="translate(420.000000, 1757.000000)">
                <path d="M23.6840219,0 L23.9928425,0 C25.0797791,0.0354981698 26.1704477,0.135453543 27.2228636,0.420373063 C28.202506,0.684741012 29.1914784,1.07615504 29.9201457,1.80573585 C30.3120027,2.1990182 30.534988,2.82117034 30.3138687,3.35457704 C29.887491,3.95711177 29.2707828,4.40644387 28.6111569,4.72592739 C27.0847806,5.44896906 25.3727389,5.69932458 23.6970838,5.68437798 C21.6790204,5.644209 19.6003125,5.18273279 17.9349204,3.99634659 C17.3732587,3.65444316 17.1829282,2.85106353 17.4842849,2.27655368 C17.724997,1.7945259 18.1765655,1.46289826 18.6206701,1.18171539 C20.1498453,0.301734443 21.9486553,0.0635230407 23.6840219,0 L23.6840219,0 Z" id="Shape"></path>
                <path d="M30.1179402,6.88290829 C30.14593,5.87681542 30.1785847,4.87072256 30.2047085,3.86462969 C31.5575481,4.62036705 32.8917278,5.41347089 34.2566962,6.14585418 C35.7961343,6.05804292 37.3616962,6.10661937 38.8600826,6.50644086 C39.8630499,6.77547962 40.882811,7.16969613 41.6208083,7.92917013 C42.041588,8.36168731 42.2431145,9.08099233 41.9035051,9.62000401 C41.3661013,10.3439798 40.5366707,10.7755629 39.714704,11.0959805 C37.8627133,11.7751166 35.838119,11.9161751 33.890963,11.6630171 C32.1444005,11.4332132 30.4127659,10.7989169 29.0776532,9.62187234 C29.0449985,10.7241839 29.0160757,11.8274297 28.983421,12.9297413 C30.3185337,14.2796059 32.1873182,14.9596761 34.0421079,15.1820067 C36.0256505,15.4034032 38.0922296,15.1885459 39.9255604,14.366483 C40.6532948,14.0367237 41.3250496,13.5743133 41.8577885,12.9745811 C41.8745823,12.145979 41.913768,11.3192453 41.918433,10.4915775 C43.6929853,11.5154194 45.4833984,12.5131048 47.2635487,13.5276052 C39.5318374,18.0022429 31.7982602,22.4759464 24.065616,26.9505842 C16.3264408,22.502103 8.58726562,18.0554901 0.849023437,13.607009 C2.52001352,12.6270727 4.1919366,11.6490047 5.86292668,10.6700025 C5.84146785,11.4677772 5.82094201,12.266486 5.79855018,13.0642606 C7.23909105,14.515949 9.28234525,15.195085 11.2826818,15.3585634 C13.19625,15.5127002 15.1760607,15.2502006 16.9198242,14.4187961 C17.5785171,14.0946417 18.1886944,13.6639929 18.6729177,13.1072321 C18.6990415,11.9768957 18.7307632,10.8465592 18.759686,9.71622273 C18.2213492,10.4308569 17.4227073,10.8867282 16.6044727,11.2090142 C14.7132963,11.9152409 12.6411193,12.0656411 10.6501127,11.7966023 C9.21423678,11.5892183 7.78769081,11.138952 6.58786208,10.3066133 C6.23145883,10.0964268 5.98421575,9.73023517 5.88345252,9.332282 C5.7574985,8.80354611 6.01500451,8.25706112 6.39753155,7.89927694 C7.24002404,7.11177807 8.36614633,6.7212982 9.47174279,6.47281101 C10.7732677,6.17387906 12.1186433,6.13744672 13.4472251,6.1925623 C14.7552809,5.46765231 16.0334811,4.68482425 17.330341,3.93842852 C17.3023513,4.90341824 17.2734285,5.86840796 17.2454387,6.83339768 C18.6943765,8.29255929 20.7506926,8.97449782 22.7631581,9.13050293 C24.6580664,9.27156145 26.6164183,9.01840345 28.3433879,8.19727473 C29.0095448,7.87218623 29.621588,7.43499824 30.1179402,6.88290829 L30.1179402,6.88290829 Z M27.9235412,17.9630081 C26.3551803,18.4758632 24.6795252,18.6141192 23.0402569,18.4795999 C21.088436,18.3105165 19.1132903,17.6874302 17.6251668,16.3683929 C17.596244,17.4716387 17.5654552,18.5758186 17.5383984,19.6790643 C17.9619772,20.0816883 18.4144787,20.4544191 18.9192278,20.7505486 C20.9130334,21.9033049 23.3126908,22.1910269 25.5723993,21.915449 C27.3385547,21.6753693 29.1868134,21.0915178 30.4099669,19.7239041 C30.4379567,18.589831 30.4687455,17.4566921 30.4976683,16.322619 C29.8632332,17.1549576 28.8938537,17.6379196 27.9235412,17.9630081 L27.9235412,17.9630081 Z" id="Shape"></path>
                <path d="M26.0249008,30.8516462 C33.2714558,26.3508519 40.5282737,21.8678067 47.7692308,17.358605 L47.7692308,38.1446518 C40.9275947,41.9990057 34.0728966,45.8300055 27.2275285,49.6768861 C26.8459345,49.8992168 26.4428816,50.0851151 26.0892773,50.3513514 L26.0510246,50.3513514 C26.008107,49.8235496 26.0286328,49.2938796 26.0249008,48.7651437 C26.0249008,42.7939778 26.0239678,36.822812 26.0249008,30.8516462 L26.0249008,30.8516462 Z" id="Shape"></path>
                <path d="M0.128753005,17.8284887 C7.33425631,22.1069523 14.5388266,26.3872843 21.7443299,30.666682 C21.7452629,37.1675179 21.7443299,43.6683538 21.7443299,50.1691897 C14.495909,46.1046493 7.24935397,42.0363722 0,37.9718317 L0,31.6746432 C0.0727734375,31.138434 0.0429176683,30.5994224 0.0513146034,30.062279 C0.0765054087,25.9846603 0.101696214,21.9061074 0.128753005,17.8284887 L0.128753005,17.8284887 Z" id="Shape"></path>
            </g>
        </g>
    </g>
</svg>