<?xml version="1.0" encoding="UTF-8"?>
<svg width="39px" height="42px" viewBox="0 0 39 42" version="1.1" xmlns="http://www.w3.org/2000/svg" xmlns:xlink="http://www.w3.org/1999/xlink">
    <!-- Generator: Sketch 39.1 (31720) - http://www.bohemiancoding.com/sketch -->
    <title>Add Icon</title>
    <desc>Created with Sketch.</desc>
    <defs></defs>
    <g id="Page-1" stroke="none" stroke-width="1" fill="none" fill-rule="evenodd">
        <g id="time-to-change" transform="translate(-447.000000, -2315.000000)" fill="#FFFFFF">
            <path d="M466.377551,2339.10604 L453.515625,2339.10604 L453.515625,2352.88092 L448.716797,2352.88092 C448.268906,2352.88092 447.890332,2352.71562 447.582141,2352.38043 C447.271816,2352.04869 447.117188,2351.64118 447.117188,2351.15906 L447.117188,2316.72186 C447.117188,2316.2627 447.271816,2315.86093 447.582141,2315.51541 C447.890332,2315.17219 448.268906,2315 448.716797,2315 L456.714844,2315 L456.714844,2325.33116 L472.710938,2325.33116 L472.710938,2315 L475.910156,2315 L482.308594,2321.88744 L482.308594,2335.73005 L475.910156,2328.84261 L466.377551,2339.10604 L466.377551,2339.10604 L466.377551,2339.10604 L466.377551,2339.10604 Z M465.810788,2335.96466 L465.810788,2337.1382 L455.976562,2337.1382 L455.976562,2335.96466 L459.254638,2333.85556 L459.254638,2333.0349 C459.05249,2333.0349 458.865639,2332.8311 458.69354,2332.42351 C458.521168,2332.01592 458.435119,2331.67261 458.435119,2331.39358 L458.435119,2329.75226 C458.435119,2329.07412 458.675511,2328.49392 459.156569,2328.01246 C459.637353,2327.53101 460.216206,2327.29028 460.893675,2327.29028 C461.571144,2327.29028 462.150271,2327.53101 462.631055,2328.01246 C463.111839,2328.49392 463.352231,2329.07412 463.352231,2329.75226 L463.352231,2331.39358 C463.352231,2331.67261 463.266455,2332.01592 463.094083,2332.42351 C462.921984,2332.8311 462.735134,2333.0349 462.532713,2333.0349 L462.532713,2333.85556 L465.810788,2335.96466 M466.3125,2315 L469.511719,2315 L469.511719,2321.88744 L466.3125,2321.88744 L466.3125,2321.88744 L466.3125,2315 L466.3125,2315 Z M479.109375,2345.99348 L485.507812,2345.99348 L475.910156,2335.66232 L466.3125,2345.99348 L472.710938,2345.99348 L472.710938,2356.32464 L479.109375,2356.32464 L479.109375,2345.99348 L479.109375,2345.99348 Z" id="Add-Icon"></path>
        </g>
    </g>
</svg>