<?xml version="1.0" encoding="UTF-8"?>
<svg width="188px" height="65px" viewBox="0 0 188 65" version="1.1" xmlns="http://www.w3.org/2000/svg" xmlns:xlink="http://www.w3.org/1999/xlink">
    <!-- Generator: Sketch 39.1 (31720) - http://www.bohemiancoding.com/sketch -->
    <title>Android Icon</title>
    <desc>Created with Sketch.</desc>
    <defs>
        <linearGradient x1="58.9170878%" y1="9.59026547%" x2="90.8103723%" y2="60.8514694%" id="linearGradient-1">
            <stop stop-color="#FF177B" offset="0%"></stop>
            <stop stop-color="#FFEC73" offset="100%"></stop>
        </linearGradient>
        <linearGradient x1="37.1029741%" y1="-44.0352456%" x2="0%" y2="101.060094%" id="linearGradient-2">
            <stop stop-color="#064AA2" offset="0%"></stop>
            <stop stop-color="#63FFD4" offset="100%"></stop>
        </linearGradient>
        <path d="M17.6926202,16.256 L0.636425186,0 C0.238504481,0.0929519172 0,0.392272638 0,0.896 L0,16.256 L0,32 C0,32.427375 0.171322042,32.6816526 0.381855112,32.768 L17.6926202,16.256 Z" id="path-3"></path>
        <path d="M0.704442562,16.3565053 L10.5629331,10.9104749 C12.9906119,9.55770736 14.9172782,8.48410791 14.9172782,8.48410791 L22.0865249,4.60091794 L17.3135691,-0.062980499 L0.00300603387,16.4510742 C0.195948248,16.5134755 0.536014608,16.4793669 0.801320725,16.3476887" id="path-5"></path>
        <linearGradient x1="78.6453125%" y1="50%" x2="2.49516972%" y2="100%" id="linearGradient-7">
            <stop stop-color="#FF4521" offset="0%"></stop>
            <stop stop-color="#8A33DB" offset="100%"></stop>
        </linearGradient>
        <linearGradient x1="0%" y1="-24.1863374%" x2="64.2244373%" y2="100%" id="linearGradient-8">
            <stop stop-color="#00A3B5" offset="0%"></stop>
            <stop stop-color="#D6FFA1" offset="100%"></stop>
        </linearGradient>
        <path d="M0.907418064,0.146799905 C0.579071903,-0.0300419622 0.252834752,-0.0806300716 -0.0110693547,-0.00913176704 L17.0592864,16.2705156 L21.7819029,11.776258 L14.6632363,7.81088744 C14.6632363,7.81088744 7.95366225,4.07259174 3.90238203,1.81533488 L0.907418064,0.146799905 Z" id="path-9"></path>
    </defs>
    <g id="Page-1" stroke="none" stroke-width="1" fill="none" fill-rule="evenodd">
        <g id="time-to-change" transform="translate(-731.000000, -2528.000000)">
            <g id="Group-2" transform="translate(265.000000, 82.000000)">
                <g id="fully-professional-dashboard" transform="translate(77.000000, 1799.000000)">
                    <g id="App-Store-Icon-+-Android-Icon" transform="translate(181.000000, 647.744459)">
                        <g id="Android-Icon" transform="translate(208.000000, 0.000000)">
                            <rect id="background" fill="#000000" x="0" y="0" width="188" height="64" rx="7"></rect>
                            <g id="icon" transform="translate(7.637102, 22.912000)">
                                <path d="M15.2970207,7.81088744 C15.2970207,7.81088744 2.32598881,0.583967752 1.56417994,0.159379845 C0.801103504,-0.265208062 0.0418297716,-0.00765023256 0.0418297716,0.879776744 L0.0418297716,16.3077457 L0.0418297716,32.0493743 C0.0418297716,32.7136695 0.584349233,33.0018282 1.24728773,32.633342 C1.90895867,32.2648558 15.2970207,24.804604 15.2970207,24.804604 C15.2970207,24.804604 17.1157656,23.7918191 18.0251381,23.2854266 C19.4886545,22.4704539 22.4156873,20.8405085 22.4156873,20.8405085 C22.4156873,20.8405085 28.4556528,17.4744062 29.2592914,17.0281426 C30.0616625,16.580604 29.9843408,15.9673104 29.307459,15.6141247 C28.6293097,15.262214 22.4156873,11.776258 22.4156873,11.776258 L15.2970207,7.81088744 Z" id="orange" fill="url(#linearGradient-1)"></path>
                                <g id="blue">
                                    <mask id="mask-4" fill="white">
                                        <use xlink:href="#path-3"></use>
                                    </mask>
                                    <use id="Clip-2" fill="url(#linearGradient-2)" xlink:href="#path-3"></use>
                                    <path d="M22.4021666,11.776 L15.2742045,7.808 C15.2492415,7.86573978 2.28326823,0.625546523 1.52742045,0.256 C0.75897762,-0.225188958 0,0.0328419233 0,0.896 L0,16.384 C0,16.3782041 0,31.4819524 0,32.128 C0,32.8142603 0.542307882,33.1029483 1.14556534,32.768 C1.86640072,32.3646224 15.2492415,24.8906685 15.2742045,24.832 L22.4021666,20.864 C22.3651318,20.9192922 28.4027418,17.5470074 29.1482735,17.152 C30.0081252,16.6515636 29.9308336,16.0371435 29.2755586,15.744 C28.576331,15.330752 22.3651318,11.8383935 22.4021666,11.776" id="Fill-1" mask="url(#mask-4)"></path>
                                </g>
                                <g id="red" transform="translate(0.379742, 16.320496)">
                                    <mask id="mask-6" fill="white">
                                        <use xlink:href="#path-5"></use>
                                    </mask>
                                    <g id="Clip-8"></g>
                                    <path d="M14.894462,-8.51249612 C14.869499,-8.45475635 1.90352574,-15.6949496 1.14767795,-16.0644961 C0.379235123,-16.5456851 -0.379742497,-16.2876542 -0.379742497,-15.4244961 L-0.379742497,0.063503876 C-0.379742497,0.0577079912 -0.379742497,15.1614562 -0.379742497,15.8075039 C-0.379742497,16.4937642 0.162565385,16.7824522 0.765822838,16.4475039 C1.48665823,16.0441262 14.869499,8.57017233 14.894462,8.51150388 L22.0224241,4.54350388 C21.9853893,4.59879603 28.0229993,1.22651124 28.768531,0.831503876 C29.6283827,0.33106744 29.5510911,-0.28335263 28.8958161,-0.576496124 C28.1965885,-0.989744103 21.9853893,-4.48210267 22.0224241,-4.54449612 L14.894462,-8.51249612 Z" id="Fill-7" fill="url(#linearGradient-7)" mask="url(#mask-6)"></path>
                                </g>
                                <g id="green" transform="translate(0.633784, 0.000000)">
                                    <mask id="mask-10" fill="white">
                                        <use xlink:href="#path-9"></use>
                                    </mask>
                                    <use id="Clip-5" fill="url(#linearGradient-8)" xlink:href="#path-9"></use>
                                    <path d="M21.7683821,11.776 L14.6404201,7.808 C14.6154571,7.86573978 1.64948381,0.625546523 0.893636029,0.256 C0.125193202,-0.225188958 -0.633784418,0.0328419233 -0.633784418,0.896 L-0.633784418,16.384 C-0.633784418,16.3782041 -0.633784418,31.4819524 -0.633784418,32.128 C-0.633784418,32.8142603 -0.0914765358,33.1029483 0.511780917,32.768 C1.23261631,32.3646224 14.6154571,24.8906685 14.6404201,24.832 L21.7683821,20.864 C21.7313474,20.9192922 27.7689574,17.5470074 28.5144891,17.152 C29.3743407,16.6515636 29.2970492,16.0371435 28.6417741,15.744 C27.9425466,15.330752 21.7313474,11.8383935 21.7683821,11.776" id="Fill-4" mask="url(#mask-10)"></path>
                                </g>
                            </g>
                            <g id="Google-play" transform="translate(44.167908, 25.728000)" fill="#FFFFFF">
                                <path d="M84.5955794,18.9273345 L83.1860634,20.2726872 C82.8603203,20.4537753 82.5363237,20.6640143 82.2132005,20.8133016 C81.2342244,21.2629303 80.2386555,21.376 79.3539964,21.376 C78.4125725,21.376 76.9366853,21.314165 75.4311056,20.2126189 C73.3395376,18.7223957 72.4251862,16.1606605 72.4251862,13.9284175 C72.4251862,9.30669394 76.1445967,7.04 79.1784619,7.04 C80.2386555,7.04 81.3276681,7.30854051 82.2132005,7.87477232 C83.6855945,8.85971532 84.0663559,10.1396996 84.277696,10.8251845 L77.349759,13.6563436 L75.0809099,13.8347817 C75.8153603,17.624383 78.3496945,19.8283586 81.150387,19.8283586 C82.5494233,19.8283586 83.5877842,19.3663629 84.5405611,18.8902335 C84.5405611,18.8902335 84.7318151,18.7895308 84.5955794,18.9273345 L84.5955794,18.9273345 Z M80.362617,11.3251246 C80.9186256,11.1170283 81.2078538,10.9373895 81.2078538,10.5194182 C81.2078538,9.32064104 79.8912183,7.936 78.3198895,7.936 C77.1560701,7.936 74.9708869,8.86976563 74.9708869,12.1121556 C74.9708869,12.6181677 75.0295959,13.1570838 75.0589504,13.696 L80.362617,11.3251246 L80.362617,11.3251246 Z" id="Fill-1"></path>
                                <path d="M70.1373803,18.7652019 C70.1373803,19.9204581 70.3410649,20.1002233 71.3063907,20.1909872 C71.809509,20.2509089 72.3108865,20.277345 72.8070413,20.3372667 L71.7207234,20.992 L66.5441751,20.992 C67.2231238,20.1002233 67.3397637,20.0112219 67.3397637,19.4172916 L67.3397637,18.7537463 L67.3284479,1.07330434 L65.042654,1.07330434 L67.2431441,0 L71.4439213,0 C70.5334337,0.534008564 70.2609838,0.859172194 70.1443439,1.89987205 L70.1373803,18.7652019" id="Fill-2"></path>
                                <path d="M62.1060755,8.49891328 C62.7795663,9.06015898 64.1847722,10.2513743 64.1847722,12.5104544 C64.1847722,14.7122644 62.9603225,15.7501725 61.7254445,16.7325728 C61.3465517,17.1193653 60.9033513,17.5387577 60.9033513,18.18723 C60.9033513,18.8453941 61.3465517,19.2022301 61.6654821,19.4683152 L62.724818,20.2974081 C64.0127062,21.3996348 65.1867527,22.4102294 65.1867527,24.4631376 C65.1867527,27.2596743 62.5171221,30.08 57.4724588,30.08 C53.2229491,30.08 51.168585,28.0279729 51.168585,25.827925 C51.168585,24.7574171 51.6943423,23.2410845 53.428907,22.2022954 C55.2468976,21.0753986 57.7097014,20.9247345 59.0288743,20.8366269 C58.6169586,20.2974081 58.1468186,19.7326381 58.1468186,18.8110321 C58.1468186,18.3070564 58.2962901,18.0066093 58.4405475,17.6524166 C58.119879,17.6832543 57.7966034,17.714973 57.5028745,17.714973 C54.3926506,17.714973 52.6346224,15.3624989 52.6346224,13.0443867 C52.6346224,11.6769561 53.2498888,10.1597424 54.5134444,9.06015898 C56.1854396,7.66453387 58.1789724,7.424 59.7631965,7.424 L65.8063643,7.424 L63.9275422,8.49891328 L62.1060755,8.49891328 L62.1060755,8.49891328 Z M60.0429113,21.6642911 C59.8002439,21.632 59.6548187,21.632 59.3622161,21.632 C59.0941431,21.632 57.4970938,21.6912004 56.2601033,22.1163669 C55.6056897,22.3612412 53.7142857,23.0851006 53.7142857,25.2351512 C53.7142857,27.380717 55.7563713,28.928 58.9154278,28.928 C61.7538479,28.928 63.2606635,27.5349968 63.2606635,25.6594207 C63.2606635,24.1157256 62.2856136,23.3012717 60.0429113,21.6642911 L60.0429113,21.6642911 Z M60.872187,15.9379563 C61.5471179,15.2537193 61.605958,14.3086114 61.605958,13.7719376 C61.605958,11.6401747 60.3538748,8.32 57.9267196,8.32 C57.1695856,8.32 56.349285,8.70559701 55.8837558,9.30199875 C55.3896718,9.91948097 55.2417062,10.720539 55.2417062,11.4908546 C55.2417062,13.4759326 56.3821663,16.768 58.8906593,16.768 C59.6226997,16.768 60.410119,16.4069969 60.872187,15.9379563 L60.872187,15.9379563 Z" id="Fill-3"></path>
                                <path d="M43.8289305,21.376 C39.1575211,21.376 36.6580907,17.670234 36.6580907,14.3149056 C36.6580907,10.3944412 39.8002318,7.04 44.2695966,7.04 C48.5900406,7.04 51.29587,10.4858212 51.29587,14.1037559 C51.29587,17.6374083 48.6213924,21.376 43.8289305,21.376 L43.8289305,21.376 Z M47.4822125,18.9523705 C48.1952884,17.9914854 48.3683142,16.7921583 48.3683142,15.6230814 C48.3683142,12.9788677 47.1309178,7.936 43.4737825,7.936 C42.501168,7.936 41.5215626,8.32302319 40.8154777,8.95471622 C39.6637204,10.0054619 39.4583615,11.3257893 39.4583615,12.6212049 C39.4583615,15.587493 40.8984951,20.48 44.472613,20.48 C45.6261181,20.48 46.8032175,19.9114763 47.4822125,18.9523705 L47.4822125,18.9523705 Z" id="Fill-4"></path>
                                <path d="M28.1723736,21.376 C23.4981467,21.376 21.0020311,17.670234 21.0020311,14.3149056 C21.0020311,10.3944412 24.1463526,7.04 28.6158371,7.04 C32.9354674,7.04 35.6398104,10.4858212 35.6398104,14.1037559 C35.6398104,17.6374083 32.9677035,21.376 28.1723736,21.376 L28.1723736,21.376 Z M31.8274668,18.9523705 C32.5356467,17.9914854 32.7122546,16.7921583 32.7122546,15.6230814 C32.7122546,12.9788677 31.470754,7.936 27.8153215,7.936 C26.8387327,7.936 25.8691382,8.32302319 25.1609583,8.95471622 C24.0068873,10.0054619 23.802302,11.3257893 23.802302,12.6212049 C23.802302,15.587493 25.2492622,20.48 28.8190136,20.48 C29.9704617,20.48 31.1463901,19.9114763 31.8274668,18.9523705 L31.8274668,18.9523705 Z" id="Fill-5"></path>
                                <path d="M19.0641145,20.4902923 L15.107329,21.4073444 C13.5041486,21.6631629 12.0645224,21.888 10.540058,21.888 C2.90811491,21.888 0,16.2024545 0,11.7526278 C0,6.31847498 4.12033966,1.28 11.1767821,1.28 C12.6697602,1.28 14.1058879,1.50218152 15.414321,1.86333714 C17.4880474,2.45287058 18.4580021,3.17960775 19.0641145,3.6053819 L16.7656105,5.81480452 L15.7965304,6.03433048 L16.487481,4.91988214 C15.5516365,3.99486345 13.8312569,2.28734092 10.5662966,2.28734092 C6.20106308,2.28734092 2.90811491,5.64573412 2.90811491,10.5487757 C2.90811491,15.8147434 6.66811071,20.7682405 12.6986227,20.7682405 C14.4706049,20.7682405 15.3828346,20.4079701 16.2111007,20.0715997 L16.2111007,15.5571544 L12.0330361,15.7846471 L14.2475765,14.580795 L20.1110359,14.580795 L19.3938466,15.2792062 C19.2005554,15.4456211 19.1743168,15.5022729 19.1200903,15.7253396 C19.0912278,15.980273 19.0641145,16.7911028 19.0641145,17.0761325 L19.0641145,20.4902923" id="Fill-6"></path>
                                <path d="M93.1347689,19.064291 L93.1347689,26.624 L91.6452268,26.624 L91.6452268,7.38742118 L93.1347689,7.38742118 L93.1347689,9.57837348 C94.1051092,8.16230234 95.878249,7.04 97.9376043,7.04 C101.631355,7.04 104.11916,9.86422635 104.11916,14.3349652 C104.11916,18.7757995 101.631355,21.6589555 97.9376043,21.6589555 C95.9934333,21.6589555 94.2517074,20.6483557 93.1347689,19.064291 L93.1347689,19.064291 Z M102.59174,14.4502232 C102.59174,11.0451415 100.84263,8.448 97.7411788,8.448 C95.8151433,8.448 93.9731913,9.98388653 93.1726473,11.3233431 L93.1726473,17.5459945 C93.9731913,18.8881176 95.8151433,20.48 97.7411788,20.48 C100.84263,20.48 102.59174,17.860638 102.59174,14.4502232 L102.59174,14.4502232 Z" id="Fill-7"></path>
                                <polygon id="Fill-8" points="106.155721 2.048 107.683142 2.048 107.683142 21.376 106.155721 21.376"></polygon>
                                <path d="M124.289164,25.2929403 C124.607688,25.4363387 125.151361,25.5243132 125.496065,25.5243132 C126.407132,25.5243132 127.041563,25.1486621 127.611416,23.8220069 L128.697889,21.3402467 L122.830061,7.296 L124.491623,7.296 L129.525179,19.4663902 L134.509866,7.296 L136.19499,7.296 L129.03823,24.2873919 C128.295588,26.0380842 127.127084,26.88 125.522245,26.88 C125.040532,26.88 124.405229,26.793785 124.033472,26.6785384 L124.289164,25.2929403" id="Fill-9"></path>
                                <path d="M120.085477,21.3569296 C119.985427,20.8713551 119.909951,20.4432712 119.85466,20.085945 C119.809023,19.7295032 119.782694,19.3651012 119.782694,18.9945079 C119.269279,19.7542684 118.541722,20.3866651 117.612309,20.8846221 C116.682018,21.3861171 115.798242,21.632 114.586231,21.632 C113.126728,21.632 111.993705,21.2702514 111.185405,20.5361406 C110.379738,19.8029143 109.974272,18.8096535 109.974272,17.5528205 C109.974272,16.2977563 110.561408,15.2788459 111.73217,14.4996271 C112.902932,13.7168704 114.415971,13.3277032 116.288839,13.3277032 L119.782694,13.3277032 L119.782694,11.5879491 C119.782694,10.5858436 119.443928,9.79778009 118.767273,9.22641193 C118.087986,8.65415929 117.134877,8.36493733 115.89917,8.36493733 C114.769657,8.36493733 113.853408,8.62939411 113.15569,9.14415614 C112.464116,9.66953182 112.115696,10.3205024 112.115696,11.105028 L110.582472,11.105028 L110.550877,11.029848 C110.495586,9.97202085 110.975651,9.04421093 111.996338,8.24288035 C113.012636,7.44243423 114.344005,7.04 115.982545,7.04 C117.615819,7.04 118.937534,7.43624294 119.933647,8.22695987 C120.928882,9.00971657 121.428255,10.1409548 121.428255,11.61979 L121.428255,18.5275073 C121.428255,19.0236955 121.451951,19.5030787 121.513386,19.9700793 C121.576575,20.4379644 121.677503,20.904965 121.811781,21.3569296 L120.085477,21.3569296 L120.085477,21.3569296 Z M114.766465,20.352 C116.037945,20.352 116.951657,20.0639555 117.885537,19.4940898 C118.813279,18.9277802 119.444635,18.1889995 119.77522,17.2946393 L119.77522,14.592 L116.267688,14.592 C114.927811,14.592 113.818554,14.8924908 112.946056,15.4988066 C112.071804,16.1033443 111.628978,16.8350128 111.628978,17.6858108 C111.628978,18.4886013 111.90958,19.1304782 112.467278,19.6167754 C113.026729,20.1084069 113.791371,20.352 114.766465,20.352 L114.766465,20.352 Z" id="Fill-10"></path>
                            </g>
                            <g id="Get-it-on" transform="translate(43.658768, 10.240000)" fill="#FFFFFF">
                                <path d="M0.00540592822,4.51980892 C0.00540592822,1.76268045 2.19480686,-0.0108725869 4.91730982,-0.0108725869 C6.74195673,-0.0108725869 7.9352986,0.803714908 8.67883564,1.80123595 L7.34608057,2.52394651 C6.84103655,1.86686233 5.95633269,1.35579687 4.91730982,1.35579687 C3.06548172,1.35579687 1.68976283,2.66832455 1.68976283,4.51980892 C1.68976283,6.3442224 3.06548172,7.68382097 4.91730982,7.68382097 C5.87215868,7.68382097 6.71389873,7.27693739 7.13476875,6.89630436 L7.13476875,5.54358051 L4.32809179,5.54358051 L4.32809179,4.19085667 L8.76300965,4.19085667 L8.76300965,7.46069126 C7.8511246,8.4196568 6.53152172,9.06279537 4.91730982,9.06279537 C2.19480686,9.06279537 0.00540592822,7.26463244 0.00540592822,4.51980892" id="Fill-1"></path>
                                <polyline id="Fill-2" points="10.8860651 8.92935907 10.8860651 0.122563707 17.3879224 0.122563707 17.3879224 1.48354641 12.5508605 1.48354641 12.5508605 3.7535006 17.2883724 3.7535006 17.2883724 5.11365847 12.5508605 5.11365847 12.5508605 7.56920121 17.3879224 7.56920121 17.3879224 8.92935907 10.8860651 8.92935907"></polyline>
                                <polyline id="Fill-3" points="21.8096233 8.92935907 21.8096233 1.48354641 18.980214 1.48354641 18.980214 0.122563707 26.2782171 0.122563707 26.2782171 1.48354641 23.4488078 1.48354641 23.4488078 8.92935907 21.8096233 8.92935907"></polyline>
                                <polygon id="Fill-4" points="32.1166196 0.122563707 33.7089112 0.122563707 33.7089112 8.92935907 32.1166196 8.92935907"></polygon>
                                <polyline id="Fill-5" points="38.2641782 8.92935907 38.2641782 1.48354641 35.4338937 1.48354641 35.4338937 0.122563707 42.7318968 0.122563707 42.7318968 1.48354641 39.9033627 1.48354641 39.9033627 8.92935907 38.2641782 8.92935907"></polyline>
                                <path d="M48.1722264,4.52637215 C48.1722264,1.90901533 50.1748183,-0.0108725869 53.0158903,-0.0108725869 C55.8409912,-0.0108725869 57.8586669,1.90901533 57.8586669,4.52637215 C57.8586669,7.14290745 55.8409912,9.06279537 53.0158903,9.06279537 C50.1748183,9.06279537 48.1722264,7.14290745 48.1722264,4.52637215 L48.1722264,4.52637215 Z M56.1336843,4.45924324 C56.1336843,2.66331943 54.9066633,1.32349035 53.0158874,1.32349035 C51.1110078,1.32349035 49.8972089,2.66331943 49.8972089,4.45924324 C49.8972089,6.241346 51.1110078,7.59499614 53.0158874,7.59499614 C54.9066633,7.59499614 56.1336843,6.241346 56.1336843,4.45924324 L56.1336843,4.45924324 Z" id="Fill-6"></path>
                                <polyline id="Fill-7" points="66.2278785 8.92935907 61.354067 2.63172091 61.354067 8.92935907 59.7163404 8.92935907 59.7163404 0.122563707 61.3969349 0.122563707 66.1718878 6.22306558 66.1718878 0.122563707 67.8104893 0.122563707 67.8104893 8.92935907 66.2278785 8.92935907"></polyline>
                            </g>
                        </g>
                    </g>
                </g>
            </g>
        </g>
    </g>
</svg>