<?xml version="1.0" encoding="UTF-8"?>
<svg width="236px" height="64px" viewBox="0 0 236 64" version="1.1" xmlns="http://www.w3.org/2000/svg" xmlns:xlink="http://www.w3.org/1999/xlink">
    <!-- Generator: Sketch 39.1 (31720) - http://www.bohemiancoding.com/sketch -->
    <title>Call_Burn LOGO Copy 2</title>
    <desc>Created with Sketch.</desc>
    <defs>
        <linearGradient x1="4.24998921%" y1="50.0619108%" x2="103.198466%" y2="49.5635078%" id="linearGradient-1">
            <stop stop-color="#F0BAA2" offset="0%"></stop>
            <stop stop-color="#F5CFAC" offset="39.85%"></stop>
            <stop stop-color="#F8DDB2" offset="75.52%"></stop>
            <stop stop-color="#F9E2B5" offset="100%"></stop>
        </linearGradient>
        <linearGradient x1="65.6957268%" y1="104.494064%" x2="36.002619%" y2="-4.66733375%" id="linearGradient-2">
            <stop stop-color="#F0BAA2" offset="0%"></stop>
            <stop stop-color="#F5CFAC" offset="39.85%"></stop>
            <stop stop-color="#F8DDB2" offset="75.52%"></stop>
            <stop stop-color="#F9E2B5" offset="100%"></stop>
        </linearGradient>
        <linearGradient x1="49.999845%" y1="100.000325%" x2="49.999845%" y2="0.00113782286%" id="linearGradient-3">
            <stop stop-color="#F0BAA2" offset="0%"></stop>
            <stop stop-color="#F1C0A4" offset="8.45%"></stop>
            <stop stop-color="#F6D6AB" offset="46.27%"></stop>
            <stop stop-color="#F9E3AE" offset="78.14%"></stop>
            <stop stop-color="#FAE7AF" offset="100%"></stop>
        </linearGradient>
        <linearGradient x1="5.53421183%" y1="92.6961048%" x2="99.9681373%" y2="0.043853771%" id="linearGradient-4">
            <stop stop-color="#F0BAA2" offset="0%"></stop>
            <stop stop-color="#F5CFAC" offset="39.85%"></stop>
            <stop stop-color="#F8DDB2" offset="75.52%"></stop>
            <stop stop-color="#F9E2B5" offset="100%"></stop>
        </linearGradient>
        <linearGradient x1="49.9999972%" y1="-0.000522115834%" x2="49.9999972%" y2="99.9994882%" id="linearGradient-5">
            <stop stop-color="#D11A1C" offset="0%"></stop>
            <stop stop-color="#FFE500" offset="100%"></stop>
        </linearGradient>
        <linearGradient x1="50.0001804%" y1="99.9998541%" x2="50.0001804%" y2="0.000583600817%" id="linearGradient-6">
            <stop stop-color="#FFE900" offset="0%"></stop>
            <stop stop-color="#DC5F13" offset="100%"></stop>
        </linearGradient>
        <linearGradient x1="50.0032353%" y1="99.9993339%" x2="50.0032353%" y2="-0.00049960864%" id="linearGradient-7">
            <stop stop-color="#EC9500" offset="0%"></stop>
            <stop stop-color="#E8810B" offset="6.37%"></stop>
            <stop stop-color="#E26614" offset="16.27%"></stop>
            <stop stop-color="#DE4F18" offset="27.14%"></stop>
            <stop stop-color="#DC3A1A" offset="39.14%"></stop>
            <stop stop-color="#DA281B" offset="52.88%"></stop>
            <stop stop-color="#D9191B" offset="69.89%"></stop>
            <stop stop-color="#D9121B" offset="100%"></stop>
        </linearGradient>
        <linearGradient x1="50.0002741%" y1="100.000359%" x2="50.0002741%" y2="0.000449155587%" id="linearGradient-8">
            <stop stop-color="#E42E18" offset="0%"></stop>
            <stop stop-color="#FDD403" offset="100%"></stop>
        </linearGradient>
        <linearGradient x1="-0.000954889317%" y1="49.999905%" x2="99.9994483%" y2="49.999905%" id="linearGradient-9">
            <stop stop-color="#E42E18" offset="0%"></stop>
            <stop stop-color="#FDD403" offset="100%"></stop>
        </linearGradient>
        <linearGradient x1="100.000657%" y1="49.9998465%" x2="-0.00347230841%" y2="49.9998465%" id="linearGradient-10">
            <stop stop-color="#CB2F21" offset="0%"></stop>
            <stop stop-color="#CC3721" offset="9.55%"></stop>
            <stop stop-color="#CF4C21" offset="23.88%"></stop>
            <stop stop-color="#D56920" offset="41.2%"></stop>
            <stop stop-color="#DE8F1C" offset="60.85%"></stop>
            <stop stop-color="#EABA0F" offset="82.18%"></stop>
            <stop stop-color="#F5DE00" offset="100%"></stop>
        </linearGradient>
        <linearGradient x1="-14.0292303%" y1="40.4436359%" x2="128.839768%" y2="57.5183851%" id="linearGradient-11">
            <stop stop-color="#EEAB0C" offset="0%"></stop>
            <stop stop-color="#EA8912" offset="21.99%"></stop>
            <stop stop-color="#E66415" offset="46.63%"></stop>
            <stop stop-color="#E54517" offset="68.74%"></stop>
            <stop stop-color="#E42D18" offset="87.28%"></stop>
            <stop stop-color="#E32119" offset="100%"></stop>
        </linearGradient>
    </defs>
    <g id="Page-1" stroke="none" stroke-width="1" fill="none" fill-rule="evenodd">
        <g id="time-to-change" transform="translate(-602.000000, -1104.000000)">
            <g id="www.callburn.com-+-Call_Burn-LOGO-Copy-2" transform="translate(602.000000, 1104.000000)">
                <g id="Call_Burn-LOGO-Copy-2">
                    <path d="M144.576106,23.6329256 C144.511363,21.0692231 144.119248,18.4161322 143.124602,16.2903802 C143.124602,16.2903802 143.542301,19.8638017 143.345982,24.1174215 L144.576106,23.6329256 L144.576106,23.6329256 Z" id="Shape" fill="url(#linearGradient-1)"></path>
                    <path d="M150.279265,24.1618512 C150.092345,20.3006942 148.214265,16.2993719 144.12969,14.3984132 C143.006602,13.8742479 143.53708,14.3037355 143.53708,14.3037355 C145.302381,18.5689917 145.582239,21.0385455 145.301858,23.3203306 L150.279265,24.1618512 L150.279265,24.1618512 Z" id="Shape" fill="url(#linearGradient-2)"></path>
                    <path d="M141.832867,9.69309091 C141.832867,9.69309091 149.845381,15.0426446 149.240761,24.4257851 C149.240761,24.4257851 148.327044,31.566281 145.428735,35.0111736 C142.566451,38.4137521 138.308531,42.233124 138.308531,42.233124 C138.308531,42.233124 135.769965,38.0027769 140.525469,28.5069752 C145.280973,19.0111736 141.832867,9.69309091 141.832867,9.69309091 L141.832867,9.69309091 Z" id="Shape" fill="url(#linearGradient-3)" opacity="0.6"></path>
                    <path d="M141.789009,9.34082645 C141.789009,9.34082645 149.801522,14.6903802 149.196903,24.0735207 C149.196903,24.0735207 148.544248,31.5668099 145.384876,34.6589091 C142.211407,37.7652893 138.264673,41.8803306 138.264673,41.8803306 C138.264673,41.8803306 135.726106,37.6499835 140.481611,28.1541818 C145.237115,18.6583802 141.789009,9.34082645 141.789009,9.34082645 L141.789009,9.34082645 Z" id="Shape"></path>
                    <path d="M148.895637,4.08806612 C151.191416,7.76198347 155.59292,11.0704132 149.91169,25.0694876 L147.218575,24.4078017 C152.407965,9.93480992 148.895637,4.08806612 148.895637,4.08806612 L148.895637,4.08806612 L148.895637,4.08806612 Z" id="Shape" fill="#FDF3DA"></path>
                    <path d="M148.928531,5.38340496 C150.966903,9.20965289 154.64631,11.334876 148.314513,24.3533223 L145.673088,23.5049256 C151.839894,9.4307438 148.928531,5.38340496 148.928531,5.38340496 L148.928531,5.38340496 L148.928531,5.38340496 Z" id="Shape" fill="#FACCB0"></path>
                    <path d="M171.167354,40.0788099 C170.808655,36.992 169.051708,36.0240661 164.955124,32.9129256 C163.869628,32.0872727 162.870283,30.9876364 162.063602,29.7139835 L166.876018,27.7484959 C167.836204,28.8121653 168.477372,29.6420496 169.715327,31.2193058 C173.52631,36.0801322 171.167354,40.0788099 171.167354,40.0788099 L171.167354,40.0788099 L171.167354,40.0788099 Z" id="Shape" fill="#FEF5DD"></path>
                    <path d="M160.725398,27.1830744 C159.385106,24.1639669 159.185655,20.5535207 161.21985,17.2572562 C161.875637,16.1951736 161.663655,16.8489256 161.663655,16.8489256 C162.408204,20.8967934 163.458717,23.772562 164.699283,25.4429091 L160.725398,27.1830744 L160.725398,27.1830744 Z" id="Shape" fill="#FDF3DA"></path>
                    <path d="M168.516009,29.3627769 C165.774858,25.9247603 164.950425,24.825124 163.685841,19.7982149 C162.420212,14.7718347 164.819894,7.47319008 171.347487,5.70181818 C172.541584,5.37652893 171.946885,5.70975207 171.946885,5.70975207 C167.251947,13.1972231 169.039177,15.1034711 168.997929,21.504 C168.958248,27.7114711 168.559345,29.8478017 168.559345,29.8478017 L168.516009,29.3627769 L168.516009,29.3627769 Z" id="Shape" fill="url(#linearGradient-4)"></path>
                    <g id="Group" transform="translate(0.000000, 2.644628)" fill="#23BEFF">
                        <path d="M66.3222655,33.8792727 C66.3222655,25.621157 62.6992478,22.0212893 53.6409204,22.0212893 C46.9519912,22.0212893 39.4965841,24.0682314 39.4965841,24.0682314 L39.7753982,30.6327273 C39.7753982,30.6327273 48.2760973,30.0678347 52.8744425,30.0678347 C55.6615398,30.0678347 56.985646,30.8442975 56.985646,33.8792727 L56.985646,36.067438 L49.5302389,36.6318017 C41.8659823,37.1961653 37.3365575,39.4552066 37.3365575,47.430876 C37.3365575,54.9130579 40.8201681,59.0064132 48.1366903,59.0064132 C53.3621062,59.0064132 58.3791947,56.5363306 58.3791947,56.5363306 C61.305177,58.5123967 63.6745752,59.0064132 68.342885,59.0064132 L68.6216991,51.8780826 C66.7404867,51.5247603 66.4616726,50.6774215 66.3222655,48.5601322 L66.3222655,33.8792727 L66.3222655,33.8792727 L66.3222655,33.8792727 Z M56.985646,42.631405 L56.985646,50.1839339 C56.985646,50.1839339 53.1532566,51.3131901 50.1573097,51.3131901 C47.6490265,51.3131901 46.7431416,49.6190413 46.7431416,47.1489587 C46.7431416,44.6074711 48.2061327,43.4083967 50.6449735,43.1962975 L56.985646,42.631405 L56.985646,42.631405 Z" id="Shape"></path>
                        <polygon id="Shape" points="71.9554602 59.0074711 81.2920796 59.0074711 81.2920796 9.59841322 71.9554602 9.59841322"></polygon>
                        <path d="M95.5784336,59.0074711 L95.5784336,9.59841322 L86.2418142,9.59841322 L86.2418142,26.6284753 L86.2418142,59.0074711 L95.5784336,59.0074711 Z" id="Shape"></path>
                        <path d="M5.2880708,6.57507438 L7.45123009,5.49818182 C8.77533628,4.8391405 10.3474513,5.42042975 11.0418761,6.7385124 L13.1481239,10.737719 C13.8425487,12.0558017 13.2473274,13.7160992 11.9232212,14.3751405 L9.76006195,15.4520331 C8.43647788,16.1105455 6.86384071,15.530314 6.16941593,14.2117025 L4.06316814,10.2130248 C3.36874336,8.8938843 3.96344248,7.23464463 5.2880708,6.57507438 L5.2880708,6.57507438 L5.2880708,6.57507438 Z" id="Shape"></path>
                        <path d="M36.040646,47.3081653 C33.090646,48.0756364 28.0970531,49.152 25.2337257,49.5042645 C17.0724071,50.5113388 15.0162832,47.4224132 13.4754956,34.6007273 C11.850646,21.077686 13.8216637,18.2040331 21.083885,17.308562 C23.9164071,16.9589421 29.0389646,16.7986777 32.3800354,16.846281 L31.4365575,8.99649587 C28.2035664,8.68654545 22.9838938,8.39933884 18.6732389,8.93038017 C4.70172566,10.6530909 1.48178761,17.7343471 3.65434513,35.811438 C5.65825664,52.486876 10.076469,60.0478678 24.6009115,58.2569256 C28.4280796,57.784595 33.7109292,56.3972231 37.0039646,55.3272066 L36.040646,47.3081653 L36.040646,47.3081653 Z" id="Shape"></path>
                        <path d="M18.955708,19.9838678 L28.7977434,18.7699835 C29.6785664,18.6610248 30.486292,19.3020826 30.5938496,20.1943802 L31.8318053,30.4973223 C31.9388407,31.3896198 31.3060265,32.2078678 30.4257257,32.3168264 L20.5836903,33.5301818 C19.7028673,33.6391405 18.8951416,32.9980826 18.7881062,32.1057851 L17.5496283,21.802843 C17.4425929,20.9110744 18.074885,20.0922975 18.955708,19.9838678 L18.955708,19.9838678 L18.955708,19.9838678 Z" id="Shape"></path>
                        <path d="M20.0840177,35.3724298 L21.6420354,35.1804298 C22.1192566,35.121719 22.5567965,35.4686942 22.6152743,35.9521322 L22.8131593,37.5986777 C22.871115,38.0815868 22.5286018,38.5253554 22.0513805,38.5840661 L20.4933628,38.7760661 C20.0161416,38.8347769 19.5786018,38.4878017 19.520646,38.0043636 L19.3227611,36.3578182 C19.2642832,35.8749091 19.6067965,35.4311405 20.0840177,35.3724298 L20.0840177,35.3724298 L20.0840177,35.3724298 Z" id="Shape"></path>
                        <path d="M24.9366372,34.7742149 L26.4946549,34.5822149 C26.9718761,34.5235041 27.4094159,34.8704793 27.4673717,35.3539174 L27.6652566,37.0004628 C27.7232124,37.4839008 27.3806991,37.9271405 26.9034779,37.9858512 L25.3454602,38.1778512 C24.8682389,38.236562 24.4306991,37.8895868 24.3727434,37.4061488 L24.1748584,35.7596033 C24.1163805,35.2766942 24.4594159,34.8329256 24.9366372,34.7742149 L24.9366372,34.7742149 L24.9366372,34.7742149 Z" id="Shape"></path>
                        <path d="M29.7892566,34.1754711 L31.3472743,33.9834711 C31.8244956,33.9247603 32.2620354,34.2717355 32.3199912,34.7551736 L32.5559912,36.7180165 C32.5930619,37.0269091 32.3737699,37.3109421 32.0683274,37.3490248 L30.1980796,37.5796364 C29.7208584,37.6383471 29.2833186,37.2913719 29.2253628,36.8079339 L29.0274779,35.1613884 C28.969,34.6779504 29.3120354,34.2347107 29.7892566,34.1754711 L29.7892566,34.1754711 L29.7892566,34.1754711 Z" id="Shape"></path>
                        <path d="M20.6453009,40.0407273 L22.2027965,39.8481983 C22.6800177,39.7900165 23.1175575,40.1369917 23.1760354,40.6204298 L23.3739204,42.2659174 C23.4318761,42.7504132 23.0893628,43.1936529 22.6121416,43.2523636 L21.0541239,43.4443636 C20.5769027,43.5030744 20.1393628,43.1560992 20.0814071,42.6726612 L19.8835221,41.0261157 C19.8250442,40.5426777 20.1675575,40.0989091 20.6453009,40.0407273 L20.6453009,40.0407273 L20.6453009,40.0407273 Z" id="Shape"></path>
                        <path d="M25.4973982,39.4414545 L27.0554159,39.2494545 C27.5326372,39.1912727 27.970177,39.5382479 28.0281327,40.021157 L28.2260177,41.6677025 C28.2839735,42.1511405 27.9414602,42.5943802 27.4642389,42.6530909 L25.9067434,42.8450909 C25.429,42.9038017 24.9919823,42.5568264 24.9335044,42.0733884 L24.7356195,40.4273719 C24.6776637,39.9439339 25.020177,39.5001653 25.4973982,39.4414545 L25.4973982,39.4414545 L25.4973982,39.4414545 Z" id="Shape"></path>
                        <path d="M30.3500177,38.8432397 L31.9080354,38.6512397 C32.3852566,38.5925289 32.8227965,38.9395041 32.8807522,39.4229421 L33.0786372,41.0694876 C33.137115,41.5529256 32.7940796,41.9961653 32.3168584,42.054876 L30.7593628,42.246876 C30.2821416,42.3055868 29.8446018,41.9586116 29.7861239,41.4751736 L29.5882389,39.8286281 C29.5302832,39.3451901 29.8727965,38.9019504 30.3500177,38.8432397 L30.3500177,38.8432397 L30.3500177,38.8432397 Z" id="Shape"></path>
                        <path d="M21.2060619,44.7079669 L22.7640796,44.5159669 C23.2413009,44.4572562 23.6788407,44.8042314 23.7367965,45.2876694 L23.9346814,46.9342149 C23.9926372,47.4176529 23.6501239,47.8608926 23.1729027,47.9196033 L21.614885,48.1116033 C21.1376637,48.170314 20.7001239,47.8233388 20.6421681,47.3399008 L20.4442832,45.6933554 C20.3858053,45.2099174 20.7288407,44.7666777 21.2060619,44.7079669 L21.2060619,44.7079669 L21.2060619,44.7079669 Z" id="Shape"></path>
                        <path d="M26.0581593,44.1086942 L27.616177,43.9166942 C28.0933982,43.8579835 28.5309381,44.2060165 28.5888938,44.6894545 L28.7867788,46.3349421 C28.8447345,46.8183802 28.5022212,47.2626777 28.025,47.3203306 L26.4675044,47.5123306 C25.9902832,47.5710413 25.5527434,47.2240661 25.4942655,46.7406281 L25.2963805,45.0951405 C25.2384248,44.6117025 25.5809381,44.167405 26.0581593,44.1086942 L26.0581593,44.1086942 L26.0581593,44.1086942 Z" id="Shape"></path>
                        <path d="M30.9107788,43.5104793 L32.4687965,43.3184793 C32.9460177,43.2597686 33.3835575,43.6067438 33.4415133,44.0901818 L33.6393982,45.7367273 C33.697354,46.2201653 33.3548407,46.663405 32.8776195,46.7221157 L31.3196018,46.9141157 C30.8423805,46.9728264 30.4048407,46.6258512 30.3463628,46.1424132 L30.1484779,44.4958678 C30.0910442,44.0124298 30.4340796,43.569719 30.9107788,43.5104793 L30.9107788,43.5104793 L30.9107788,43.5104793 Z" id="Shape"></path>
                        <path d="M28.1466549,2.03900826 C31.7942124,0.837289256 37.3078407,4.22558678 37.1224867,8.77487603 C35.1624336,3.99497521 32.0688496,2.73613223 28.1466549,2.03900826 L28.1466549,2.03900826 L28.1466549,2.03900826 Z" id="Shape"></path>
                        <path d="M31.4010531,0.480793388 C34.0962566,-0.407272727 38.1374956,2.09613223 38.0006991,5.45745455 C36.5523274,1.92634711 34.2993628,0.994909091 31.4010531,0.480793388 L31.4010531,0.480793388 L31.4010531,0.480793388 Z" id="Shape"></path>
                        <path d="M8.93353982,59.7305124 C5.80706195,60.7613884 1.08131858,57.8565289 1.24056637,53.9578182 C2.92023894,58.054876 5.57106195,59.1333554 8.93353982,59.7305124 L8.93353982,59.7305124 L8.93353982,59.7305124 Z" id="Shape"></path>
                        <path d="M6.14383186,61.0665785 C3.83395575,61.8277025 0.370185841,59.6823802 0.487663717,56.8023802 C1.72927434,59.8278347 3.6600885,60.6265124 6.14383186,61.0665785 L6.14383186,61.0665785 L6.14383186,61.0665785 Z" id="Shape"></path>
                    </g>
                    <path d="M104.76677,11.7908099 L98.1034248,59.463405 L116.858115,62.1535207 C126.269398,63.5028099 132.729637,60.2102479 134.062619,50.6763636 C134.924124,44.5069752 133.260115,41.2646612 129.490903,38.9368595 C133.560858,37.0887934 135.396646,34.5626446 136.151115,29.1649587 C137.424575,20.0515702 132.724938,15.801124 123.24369,14.4412562 L104.76677,11.7908099 L104.76677,11.7908099 Z M119.156504,42.1733554 C122.962788,42.7192066 124.991239,44.8692893 124.442487,48.7960331 C123.786699,53.4923636 121.474735,54.3767273 117.530088,53.8113058 L108.810619,52.5603967 L110.437035,40.9229752 L119.156504,42.1733554 L119.156504,42.1733554 Z M121.603177,22.6438347 C125.202177,23.160595 126.834858,25.1107438 126.286106,29.0364298 C125.757717,32.8224793 123.822204,34.5467769 120.085363,34.0109752 L111.573177,32.7902149 L113.160434,21.432595 L121.603177,22.6438347 L121.603177,22.6438347 Z" id="Shape" fill="url(#linearGradient-5)"></path>
                    <path d="M177.657354,61.7203306 L187.023735,61.7203306 L187.023735,38.0001322 C187.023735,38.0001322 191.986,36.2298182 198.136097,35.0259835 L198.136097,25.4677686 C192.824009,26.5298512 186.953248,30.0699504 186.953248,30.0699504 L186.953248,26.3172231 L177.656832,26.3172231 L177.656832,61.7203306 L177.657354,61.7203306 L177.657354,61.7203306 Z M214.561593,61.7203306 L214.561593,35.2391405 C214.561593,35.2391405 217.637425,33.9644298 220.922106,33.9644298 C225.465106,33.9644298 226.164752,37.4341818 226.164752,42.8149421 L226.164752,61.7203306 L235.530611,61.7203306 L235.530611,42.5319669 C235.530611,31.6990413 233.015018,25.4677686 223.22885,25.4677686 C219.244522,25.4677686 214.492673,28.2996364 214.492673,28.2996364 L214.492673,26.3172231 L205.196257,26.3172231 L205.196257,61.7203306 L214.561593,61.7203306 L214.561593,61.7203306 L214.561593,61.7203306 Z" id="Shape" fill="url(#linearGradient-6)"></path>
                    <path d="M148.177195,28.8306777 C144.173549,36.0542149 144.824115,46.2767603 158.173779,50.097719 C159.96623,50.6107769 165.566009,50.1812893 167.90669,46.1461157 C171.488982,39.971438 167.343841,34.8477355 164.584416,31.0442314 L167.848735,29.6510413 C168.71546,30.385719 169.60046,31.0743802 170.474496,31.9185455 C175.101035,36.3927273 177.768044,44.1039339 173.497071,52.6339174 C169.226097,61.1649587 160.519681,61.8303471 157.56185,61.8303471 C154.605584,61.8303471 145.322743,60.1287934 141.956088,52.6772893 C137.520124,42.858843 140.740584,33.593124 143.205531,31.097124 C143.444142,30.854876 143.695805,30.5655537 143.955301,30.2418512 L145.799965,29.4035041 L146.297549,29.6293554 C145.508097,31.0997686 144.930106,31.8466116 144.930106,31.8466116 C145.448053,31.1082314 146.943416,29.1935207 147.402363,28.4837025 L148.177195,28.8306777 L148.177195,28.8306777 Z" id="Shape" fill="#FCE1D2"></path>
                    <path d="M147.238938,29.8552066 C143.235292,37.0787438 146.982575,46.3836033 157.912195,49.152 C159.719265,49.6095207 165.304425,49.2355702 167.645106,45.2003967 C171.227398,39.025719 167.082257,33.9020165 164.322832,30.0985124 L166.53246,29.1612562 C167.399186,29.8959339 168.284186,30.584595 169.158221,31.4287603 C173.784761,35.9029421 177.505938,43.1582149 173.235487,51.6881983 C168.964513,60.2192397 160.258097,60.8846281 157.300265,60.8846281 C154.344,60.8846281 145.061159,59.1830744 141.694504,51.7315702 C137.25854,41.913124 140.479,32.647405 142.943947,30.151405 C143.182558,29.909157 143.434221,29.6198347 143.693717,29.2961322 L145.538381,28.4577851 L146.035965,28.6836364 C145.246513,30.1540496 144.668522,30.9008926 144.668522,30.9008926 C145.186469,30.1625124 145.673088,29.4373554 146.132035,28.7275372 L147.238938,29.8552066 L147.238938,29.8552066 Z" id="Shape" fill="#FACCB0"></path>
                    <path d="M142.111159,36.3107438 C143.478602,35.2888595 144.87685,34.2236033 145.99054,32.9113388 C146.518929,32.2898512 146.888593,31.1177521 147.312558,30.2111736 C147.462929,29.8890579 147.286451,29.5304463 147.37208,29.2453554 C147.326133,28.9713719 147.283319,28.6926281 147.244681,28.408595 L144.950991,27.3671405 L141.55823,28.9084298 C141.197442,31.0526942 141.112336,33.7867107 141.643858,36.6481983 C141.799973,36.5355372 141.957133,36.4260496 142.111159,36.3107438 L142.111159,36.3107438 L142.111159,36.3107438 Z M147.095876,25.2070083 C147.179416,23.9941818 147.460841,22.7972231 148.077991,21.7150413 C153.833363,11.612562 149.667858,7.02519008 146.257867,4.88780165 C146.257867,4.88780165 150.10592,14.378314 144.946814,24.1861818 L144.971354,24.1449256 L144.992239,24.2512397 L147.095876,25.2070083 L147.095876,25.2070083 Z M144.882593,24.2639339 C145.760805,21.8874711 147.417504,13.5404959 145.256956,8.18036364 C145.256956,8.18036364 145.931018,19.0307438 142.69646,25.2577851 L144.882593,24.2639339 L144.882593,24.2639339 Z" id="Shape" fill="url(#linearGradient-7)"></path>
                    <path d="M152.078504,0.0317355372 C153.683513,4.09917355 159.160593,12.5561653 148.621522,25.9009587 L145.979053,24.6997686 C154.030204,10.7202645 152.078504,0.0317355372 152.078504,0.0317355372 L152.078504,0.0317355372 L152.078504,0.0317355372 Z M146.854133,28.231405 C142.586292,35.0233388 145.524283,44.4498512 156.301442,47.1791074 C158.108513,47.6366281 163.693673,47.2626777 166.035398,43.2264463 C169.309637,37.5806942 166.124159,32.8129587 163.445142,29.1316364 L165.828115,28.1208595 C166.334053,28.5429421 166.902124,28.9719008 167.547469,29.4558678 C172.175053,33.9284628 175.89623,41.1847934 171.624735,49.7153058 C167.352717,58.2452893 158.647345,58.9117355 155.689513,58.9117355 C152.733248,58.9117355 143.449363,57.2101818 140.083752,49.7586777 C136.109867,40.9610579 138.393115,32.7209256 140.682106,29.3067107 L144.03623,27.782876 C143.529248,28.6349752 143.196133,29.0665785 143.196133,29.0665785 C143.503142,28.629157 143.797619,28.1943802 144.084265,27.7611901 L144.950991,27.3666116 L146.854133,28.231405 L146.854133,28.231405 Z M161.740407,26.7213223 C159.418522,22.8961322 161.541478,18.4727273 161.541478,18.4727273 C162.169593,22.2545455 162.800841,24.3480331 163.764681,25.8623471 L161.740407,26.7213223 L161.740407,26.7213223 Z M144.217929,24.5664793 C146.054761,21.6214215 147.713549,18.3336198 147.713549,18.3336198 C147.115717,20.8412562 146.374823,22.9199339 145.665779,24.5585455 L144.991717,24.2522975 L144.946292,24.2195041 L144.910265,24.2522975 L144.217929,24.5664793 L144.217929,24.5664793 Z" id="Shape" fill="url(#linearGradient-8)"></path>
                    <path d="M152.322858,4.09864463 C153.916903,8.13593388 158.035416,13.190876 149.575442,26.3341488 L147.046274,25.1853223 C154.760133,11.9166942 152.322858,4.09864463 152.322858,4.09864463 L152.322858,4.09864463 L152.322858,4.09864463 Z M145.544646,27.6363636 L148.026823,28.7640331 C144.023177,35.9875702 146.395186,45.2924298 157.325327,48.0608264 C159.132398,48.5183471 164.717558,48.1443967 167.058239,44.1092231 C170.640531,37.9345455 166.495389,32.810843 163.735965,29.0073388 L165.945593,28.0700826 C166.812319,28.8047603 167.697319,29.4934215 168.571354,30.3375868 C173.197894,34.8117686 176.919071,42.0670413 172.648619,50.5970248 C168.377646,59.1280661 159.67123,59.7934545 156.713398,59.7934545 C153.757133,59.7934545 144.474292,58.0919008 141.107637,50.6403967 C136.671673,40.8219504 139.892133,31.5562314 142.35708,29.0602314 C142.59569,28.8179835 142.847354,28.5286612 143.10685,28.2049587 L144.951513,27.3666116 L145.449097,27.5924628 L145.544646,27.6363636 L145.544646,27.6363636 Z M162.157584,26.5436033 C160.363566,23.0061488 160.491487,19.3544463 160.491487,19.3544463 C161.391106,22.478281 162.500619,24.4300165 163.714035,25.8835041 L162.157584,26.5436033 L162.157584,26.5436033 Z M145.586416,24.5209917 C147.221186,21.8076033 148.599593,19.0757025 148.599593,19.0757025 C148.036743,21.4405289 147.345451,23.4229421 146.673478,25.0150083 L145.586416,24.5209917 L145.586416,24.5209917 Z" id="Shape" fill="url(#linearGradient-9)"></path>
                    <path d="M170.601372,40.6727934 C170.492248,37.5664132 168.818841,36.4567273 164.985407,33.0176529 C163.969876,32.1052562 163.061903,30.9268099 162.36069,29.5907438 L167.124027,27.5702479 C167.995973,28.7095537 169.005761,29.9123306 170.112142,31.5869091 C173.520044,36.7460496 170.601372,40.6727934 170.601372,40.6727934 L170.601372,40.6727934 L170.601372,40.6727934 Z M161.303389,26.9064463 C160.435619,23.7149091 160.785442,20.1160992 163.29477,17.1752727 C164.10354,16.227438 163.794442,16.8404628 163.794442,16.8404628 C163.917664,20.9560331 164.530637,23.281719 165.503354,25.1244959 L161.303389,26.9064463 L161.303389,26.9064463 Z" id="Shape" fill="url(#linearGradient-10)"></path>
                    <path d="M168.288363,30.086876 C168.912301,27.043438 167.549035,25.5619174 164.636628,21.2956033 C161.723177,17.0298182 161.212018,9.46512397 166.723035,5.50241322 C167.731779,4.77672727 167.287973,5.29824793 167.287973,5.29824793 C165.459496,13.9726281 167.789735,15.1299174 169.950805,21.1448595 C172.046611,26.9783802 168.288363,30.086876 168.288363,30.086876 L168.288363,30.086876 L168.288363,30.086876 Z" id="Shape" fill="url(#linearGradient-11)"></path>
                    <path d="M1.45202655,6.96224793 C1.45202655,6.96224793 1.65513274,5.29295868 3.45228319,4.1145124 C5.17790265,2.98261157 7.67469912,3.47080992 7.67469912,3.47080992" id="Shape" stroke="#23BEFF" stroke-width="1.5"></path>
                    <path d="M2.85184071,7.31768595 C2.85184071,7.31768595 3.18182301,6.13712397 4.32945133,5.47279339 C5.70002655,4.67940496 7.35359292,5.12634711 7.35359292,5.12634711" id="Shape" stroke="#23BEFF" stroke-width="1.5"></path>
                    <path d="M4.33362832,7.76991736 C4.33362832,7.76991736 4.48138938,7.2134876 5.09070796,6.75067769 C5.70002655,6.28786777 6.82729204,6.53381818 6.82729204,6.53381818" id="Shape" stroke="#23BEFF" stroke-width="1.5"></path>
                    <polygon id="Shape" fill="#FFFFFF" points="149.066372 26.1008926 144.946292 24.2195041 144.950991 27.3671405 148.391788 28.9327603"></polygon>
                </g>
            </g>
        </g>
    </g>
</svg>