<?xml version="1.0" encoding="UTF-8"?>
<svg width="44px" height="71px" viewBox="0 0 44 71" version="1.1" xmlns="http://www.w3.org/2000/svg" xmlns:xlink="http://www.w3.org/1999/xlink">
    <!-- Generator: Sketch 39.1 (31720) - http://www.bohemiancoding.com/sketch -->
    <title>callerid icon</title>
    <desc>Created with Sketch.</desc>
    <defs>
        <linearGradient x1="50%" y1="0%" x2="50%" y2="100%" id="linearGradient-1">
            <stop stop-color="#48E0FF" offset="0%"></stop>
            <stop stop-color="#23BDFF" offset="100%"></stop>
        </linearGradient>
    </defs>
    <g id="Page-1" stroke="none" stroke-width="1" fill="none" fill-rule="evenodd">
        <g id="time-to-change" transform="translate(-501.000000, -2667.000000)">
            <g id="callerid-icon" transform="translate(501.000000, 2668.000000)">
                <path d="M5.85777114,7.32109279 L8.35074215,6.08892626 C9.87673164,5.33485972 11.6885433,5.99996336 12.4888454,7.50809645 L14.9162277,12.0839369 C15.7165298,13.59207 15.0305566,15.4917609 13.5045671,16.2458275 L11.0115961,17.477994 C9.4862083,18.2314553 7.67379492,17.5675621 6.87349285,16.0588238 L4.44611051,11.4835886 C3.64580845,9.97424508 4.33117992,8.07576453 5.85777114,7.32109279 L5.85777114,7.32109279 L5.85777114,7.32109279 Z" id="Shape" fill="url(#linearGradient-1)"></path>
                <path d="M41.2991178,53.9273681 C37.8993384,54.8054985 32.1443843,56.0370599 28.8444922,56.4401163 C19.4388369,57.5923978 17.0692208,54.0580891 15.293513,39.387682 C13.4209265,23.9147932 15.6924605,20.6267968 24.0619352,19.6022103 C27.3263252,19.2021799 33.2299068,19.0188073 37.0803827,19.0732744 L35.993055,10.0916519 C32.2671374,9.73701066 26.2516339,9.40839257 21.2837438,10.0160032 C5.18202737,11.9871065 1.47115308,20.0893882 3.97495524,40.7729616 C6.28439833,59.8527818 11.376245,68.5039707 28.1151944,66.4547979 C32.5258817,65.9143633 38.6141947,64.3269504 42.4093113,63.1026513 L41.2991178,53.9273681 L41.2991178,53.9273681 Z" id="Shape" fill="url(#linearGradient-1)"></path>
                <path d="M32.9519072,21.2743499 C33.9670271,21.1496808 34.8979048,21.8831709 35.0218614,22.9041261 L36.4485653,34.6926192 C36.5719201,35.7135744 35.8426223,36.6498031 34.828104,36.7744722 L23.4854771,38.1627777 C22.4703571,38.2874469 21.5394794,37.5539568 21.4161246,36.5330015 L19.988819,24.7445085 C19.8654641,23.7241584 20.5941602,22.7873245 21.6092802,22.6632606 L32.9519072,21.2743499 Z" id="Shape" fill="url(#linearGradient-1)"></path>
                <path d="M22.9096206,40.270654 L24.7051855,40.0509701 C25.2551676,39.983794 25.759418,40.3807985 25.8268119,40.9339421 L26.0548679,42.817898 C26.12166,43.3704364 25.7269246,43.8781907 25.1769425,43.9453667 L23.3813776,44.1650506 C22.8313956,44.2322267 22.3271451,43.8352222 22.260353,43.2820787 L22.032297,41.3981227 C21.9649031,40.8455843 22.3596386,40.3378301 22.9096206,40.270654 L22.9096206,40.270654 L22.9096206,40.270654 Z" id="Shape" fill="url(#linearGradient-1)"></path>
                <path d="M28.5021074,39.5861843 L30.2976723,39.3665004 C30.8476543,39.2993243 31.3519048,39.6963288 31.4186969,40.2494723 L31.6467529,42.1334283 C31.713545,42.6865718 31.3188096,43.1937209 30.7688275,43.260897 L28.9732626,43.4805809 C28.4232806,43.547757 27.9190301,43.1507525 27.852238,42.5976089 L27.624182,40.7136529 C27.5567881,40.1611146 27.9521253,39.6533603 28.5021074,39.5861843 L28.5021074,39.5861843 L28.5021074,39.5861843 Z" id="Shape" fill="url(#linearGradient-1)"></path>
                <path d="M34.0945941,38.9011094 L35.890159,38.6814254 C36.440141,38.6142494 36.9443915,39.0112539 37.0111836,39.5643974 L37.283166,41.810257 C37.3258889,42.1636878 37.0731619,42.4886748 36.7211493,42.5322484 L34.5657494,42.7961112 C34.0157673,42.8632873 33.5115169,42.4662827 33.4447247,41.9131392 L33.2166687,40.0291832 C33.1492749,39.4760397 33.5446121,38.9688906 34.0945941,38.9011094 L34.0945941,38.9011094 L34.0945941,38.9011094 Z" id="Shape" fill="url(#linearGradient-1)"></path>
                <path d="M23.5564813,45.6120596 L25.3514445,45.3917705 C25.9014265,45.3251996 26.405677,45.7222041 26.4730708,46.2753476 L26.7011268,48.1580933 C26.767919,48.7124472 26.3731835,49.2195962 25.8232015,49.2867723 L24.0276366,49.5064562 C23.4776546,49.5736323 22.9734041,49.1766278 22.906612,48.6234842 L22.678556,46.7395283 C22.6111621,46.1863847 23.0058976,45.6786305 23.5564813,45.6120596 L23.5564813,45.6120596 L23.5564813,45.6120596 Z" id="Shape" fill="url(#linearGradient-1)"></path>
                <path d="M29.1483663,44.9263795 L30.9439312,44.7066956 C31.4939133,44.6401247 31.9981637,45.0371292 32.0649558,45.5896675 L32.2930119,47.4736235 C32.359804,48.0267671 31.9650685,48.5339161 31.4150865,48.6010922 L29.6201233,48.8207761 C29.0695396,48.8879522 28.5658908,48.4909477 28.498497,47.9378041 L28.270441,46.0544533 C28.2036488,45.5013098 28.5983843,44.9935555 29.1483663,44.9263795 L29.1483663,44.9263795 L29.1483663,44.9263795 Z" id="Shape" fill="url(#linearGradient-1)"></path>
                <path d="M34.740853,44.2419098 L36.536418,44.0222258 C37.0864,43.9550498 37.5906505,44.3520543 37.6574426,44.9051978 L37.8854986,46.7891538 C37.9528924,47.3422973 37.5575553,47.8494464 37.0075732,47.9166225 L35.21261,48.1363064 C34.662628,48.2034825 34.1583776,47.806478 34.0909837,47.2533344 L33.8629277,45.3693784 C33.7961356,44.8162349 34.190871,44.3090858 34.740853,44.2419098 L34.740853,44.2419098 L34.740853,44.2419098 Z" id="Shape" fill="url(#linearGradient-1)"></path>
                <path d="M24.2027403,50.9522548 L25.9983052,50.7325709 C26.5482872,50.6653948 27.0525377,51.0623993 27.1193298,51.6155428 L27.3473858,53.4994988 C27.4141779,54.0526424 27.0194425,54.5597914 26.4694605,54.6269675 L24.6738955,54.8466514 C24.1239135,54.9138275 23.619663,54.516823 23.5528709,53.9636794 L23.3248149,52.0797235 C23.2574211,51.5265799 23.6527582,51.0194308 24.2027403,50.9522548 L24.2027403,50.9522548 L24.2027403,50.9522548 Z" id="Shape" fill="url(#linearGradient-1)"></path>
                <path d="M29.7946253,50.2665747 L31.5901902,50.0468908 C32.1401722,49.9797147 32.6444227,50.3779296 32.7112148,50.9310731 L32.9392708,52.8138187 C33.0060629,53.3669623 32.6113275,53.8753217 32.0613455,53.9412874 L30.2663823,54.1609713 C29.7164003,54.2281474 29.2121498,53.8311429 29.1447559,53.2779994 L28.9166999,51.3952537 C28.8499078,50.8421102 29.2446432,50.3337507 29.7946253,50.2665747 L29.7946253,50.2665747 L29.7946253,50.2665747 Z" id="Shape" fill="url(#linearGradient-1)"></path>
                <path d="M35.387112,49.582105 L37.1826769,49.362421 C37.7326589,49.295245 38.2369094,49.6922495 38.3037015,50.245393 L38.5317575,52.129349 C38.5985497,52.6824925 38.2038142,53.1896416 37.6538322,53.2568177 L35.8582673,53.4765016 C35.3082853,53.5436777 34.8040348,53.1466732 34.7366409,52.5935296 L34.5085849,50.7095736 C34.4423945,50.1564301 34.8377317,49.6498862 35.387112,49.582105 L35.387112,49.582105 L35.387112,49.582105 Z" id="Shape" fill="url(#linearGradient-1)"></path>
                <path d="M32.2015488,2.13098467 C36.4052406,0.755993337 42.7595187,4.63283949 42.5459042,9.83807736 C40.2870065,4.36897672 36.7217511,2.92862489 32.2015488,2.13098467 L32.2015488,2.13098467 L32.2015488,2.13098467 Z" id="Shape" fill="url(#linearGradient-1)"></path>
                <path d="M35.9521373,0.34809538 C39.0582721,-0.668018372 43.715669,2.19634517 43.5580155,6.04232665 C41.8888141,2.00207923 39.2923454,0.936339911 35.9521373,0.34809538 L35.9521373,0.34809538 L35.9521373,0.34809538 Z" id="Shape" fill="url(#linearGradient-1)"></path>
                <path d="M10.0590561,68.1408568 C6.45589163,69.3203718 1.0096255,65.9966692 1.19315341,61.5358148 C3.12892163,66.2236154 6.18390927,67.4575975 10.0590561,68.1408568 L10.0590561,68.1408568 L10.0590561,68.1408568 Z" id="Shape" fill="url(#linearGradient-1)"></path>
                <path d="M6.84400804,69.6695663 C4.18195066,70.5404345 0.190068049,68.0857845 0.325457496,64.7905258 C1.75637351,68.2522117 3.98157428,69.1660484 6.84400804,69.6695663 L6.84400804,69.6695663 L6.84400804,69.6695663 Z" id="Shape" fill="url(#linearGradient-1)"></path>
                <path d="M1.43685442,4.73814253 C1.43685442,4.73814253 1.67092773,2.82816337 3.74208539,1.47980039 C5.73080593,0.184694122 8.60828296,0.74328435 8.60828296,0.74328435" id="Shape" stroke="url(#linearGradient-1)" stroke-width="1.5"></path>
                <path d="M3.05009489,5.1448301 C3.05009489,5.1448301 3.4303888,3.79404637 4.75299326,3.03392792 C6.3325368,2.12614315 8.23821847,2.63752857 8.23821847,2.63752857" id="Shape" stroke="url(#linearGradient-1)" stroke-width="1.5"></path>
                <path d="M4.75780711,5.66226742 C4.75780711,5.66226742 4.92809694,5.0256077 5.63031687,4.49606659 C6.3325368,3.96652547 7.63167375,4.24793875 7.63167375,4.24793875" id="Shape" stroke="url(#linearGradient-1)" stroke-width="1.5"></path>
                <path d="M26.6994604,23.6343936 C27.566391,23.4353647 28.4868593,23.4567175 29.3426475,23.6976611 C30.3014346,23.9654934 31.174344,24.5117026 31.8238625,25.2461325 C32.625026,26.1403128 33.0780583,27.3173515 33.0802325,28.5017713 C33.1449125,29.2535998 33.0606654,30.0154457 32.8375463,30.7377493 C32.5413223,31.7107504 32.0227946,32.6083577 31.398822,33.4181813 C30.7946882,34.2029616 30.0883708,34.9102393 29.3274286,35.5529314 C28.8719504,35.9346451 28.395818,36.293688 27.8963138,36.6197792 C28.1919942,36.165835 28.4213639,35.6541593 28.4577804,35.1129588 C28.4827828,34.7460075 28.3743485,34.3637665 28.1186176,34.0869713 C27.8047289,33.7416363 27.3446307,33.5663327 26.8940442,33.460096 C26.4059541,33.3630859 25.9271041,33.207817 25.4892905,32.975309 C24.5212634,32.4913128 23.7271658,31.6933518 23.2466852,30.7467122 C22.8140352,29.9002461 22.6403773,28.9338355 22.7428328,27.9948407 C22.8504517,26.9838792 23.2869064,26.0095601 23.9736568,25.2421783 C24.6780718,24.4463262 25.646099,23.873492 26.6994604,23.6343936 L26.6994604,23.6343936 Z M24.9756546,26.5781765 C24.7422084,26.6261543 24.5612128,26.8423182 24.5639305,27.0742989 C24.555234,27.3336956 24.7802555,27.5759573 25.0482158,27.5899289 C25.2656279,27.6128633 25.484127,27.4881737 25.5751683,27.2965259 C25.6757214,27.0959153 25.6197378,26.8338825 25.4420034,26.6912671 C25.3167197,26.5845032 25.1378983,26.5404796 24.9756546,26.5781765 L24.9756546,26.5781765 Z M30.5465667,26.5797582 C30.3239911,26.6279996 30.1489744,26.8291375 30.1408215,27.0511009 C30.1171779,27.3344864 30.3772571,27.602846 30.6715787,27.5915105 C30.9854673,27.6036368 31.2539712,27.2967896 31.1947264,26.998378 C31.1566793,26.7110382 30.8346377,26.5025191 30.5465667,26.5797582 L30.5465667,26.5797582 Z M24.3541279,28.7833116 C24.3497796,29.6426948 24.6984542,30.4957512 25.3053056,31.1213084 C25.8110604,31.646692 26.4904731,32.0149615 27.2196187,32.1483504 C27.9310997,32.2814757 28.684976,32.1984371 29.3450933,31.9068795 C29.8611752,31.6772713 30.3234476,31.3311455 30.6726657,30.895918 C31.1585817,30.2998857 31.4262702,29.5427849 31.4251832,28.7833116 L24.3541279,28.7833116 L24.3541279,28.7833116 Z" id="Shape" fill="#FFFFFF"></path>
            </g>
        </g>
    </g>
</svg>