<?xml version="1.0" encoding="UTF-8"?>
<svg width="46px" height="50px" viewBox="0 0 46 50" version="1.1" xmlns="http://www.w3.org/2000/svg" xmlns:xlink="http://www.w3.org/1999/xlink">
    <!-- Generator: Sketch 39.1 (31720) - http://www.bohemiancoding.com/sketch -->
    <title>cheaper icon</title>
    <desc>Created with Sketch.</desc>
    <defs>
        <linearGradient x1="50%" y1="0%" x2="50%" y2="100%" id="linearGradient-1">
            <stop stop-color="#48E0FF" offset="0%"></stop>
            <stop stop-color="#23BDFF" offset="100%"></stop>
        </linearGradient>
    </defs>
    <g id="Page-1" stroke="none" stroke-width="1" fill="none" fill-rule="evenodd">
        <g id="time-to-change" transform="translate(-983.000000, -1372.000000)" fill="url(#linearGradient-1)">
            <g id="cheaper-icon" transform="translate(983.000000, 1372.000000)">
                <path d="M18.4017576,0.186782077 C23.1142362,-0.232657295 27.9024933,0.0398598115 32.5060402,1.15125566 C35.1582894,1.802927 37.7821217,2.74133373 40.0554782,4.28401752 C41.4526452,5.25560025 42.7787698,6.51865779 43.2902751,8.18930614 C43.7236336,9.55426138 43.3897344,11.0803572 42.575115,12.2344079 C41.3413455,14.0401299 39.4113605,15.215508 37.4671671,16.1231085 C33.5906207,17.8743271 29.3375496,18.6350053 25.1128954,18.8838253 C19.3489895,19.1681909 13.4240541,18.5757625 8.06035365,16.3316433 C5.85093531,15.3505817 3.60836385,14.0638271 2.30118387,11.9547816 C1.42736247,10.5779778 1.33737544,8.75092835 2.12594597,7.3172514 C3.22236687,5.27692768 5.26128347,3.96884557 7.2859916,2.97593541 C10.7670687,1.33846306 14.5915174,0.55882717 18.4017576,0.186782077 L18.4017576,0.186782077 Z" id="Shape-Copy-225"></path>
                <path d="M0.0110236328,20.494975 C0.0868021825,17.6394697 -0.128693068,14.7721158 0.138899936,11.9237196 C0.134163776,14.281585 1.84154923,16.203423 3.58445587,17.587336 C7.20051354,20.3338345 11.6880245,21.6419166 16.1139655,22.3480914 C21.063252,23.0850724 26.1427829,23.0068718 31.0589163,22.0566165 C34.5826189,21.3480721 38.0873768,20.2058699 41.0924699,18.1892433 C43.1858524,16.7318693 45.3384368,14.6346724 45.3644857,11.9047619 C45.6060298,14.4332467 45.4236877,16.9806892 45.4899939,19.5186529 C45.3715899,21.4049452 45.7836358,23.3931352 45.0045376,25.184639 C44.0430972,27.4121701 42.0823272,29.0140967 40.0434106,30.2250206 C36.6475844,32.1871437 32.7970868,33.2298179 28.9371169,33.7914401 C24.1725406,34.4454811 19.2966645,34.3578017 14.5699775,33.4573104 C11.403855,32.8269665 8.26141324,31.8696021 5.45997498,30.22976 C3.36659254,28.9880299 1.33951633,27.3244907 0.423069497,24.9998013 C-0.168950423,23.5708638 0.0702256248,21.9973737 0.0110236328,20.494975 L0.0110236328,20.494975 Z" id="Shape-Copy-226"></path>
                <path d="M0.110087518,26.9936058 C0.145608713,29.1808518 1.6043458,31.0055316 3.2004315,32.3515291 C5.48562839,34.2473003 8.2586497,35.4487453 11.0790326,36.2994726 C15.1592339,37.5198753 19.4383539,37.9748604 23.6866888,37.9085084 C28.4039035,37.7829135 33.1613756,37.0293445 37.5257465,35.1833373 C39.8772496,34.1619906 42.1719188,32.8136233 43.8224703,30.811215 C44.703396,29.7282558 45.387771,28.4130645 45.3782987,26.984127 C45.6008982,30.5386979 45.4209241,34.1098569 45.4824942,37.671537 C45.5559047,39.4985864 44.7105002,41.2426959 43.5004115,42.567366 C41.8285472,44.4062641 39.6238651,45.6669519 37.3576128,46.6314255 C33.4881706,48.2357218 29.30851,48.9987697 25.1383217,49.2262623 C20.4116346,49.4632337 15.6257456,49.0224669 11.0766645,47.678839 C8.36047712,46.8541786 5.69165132,45.707237 3.45144795,43.9323213 C1.54040764,42.434662 -0.0864630959,40.2189795 0.010628171,37.6857553 C0.069830163,34.1217054 -0.103039654,30.5505465 0.110087518,26.9936058 L0.110087518,26.9936058 Z" id="Shape-Copy-227"></path>
            </g>
        </g>
    </g>
</svg>