<?xml version="1.0" encoding="UTF-8"?>
<svg width="357px" height="31px" viewBox="0 0 357 31" version="1.1" xmlns="http://www.w3.org/2000/svg" xmlns:xlink="http://www.w3.org/1999/xlink">
    <!-- Generator: Sketch 39.1 (31720) - http://www.bohemiancoding.com/sketch -->
    <title>dashboard icons</title>
    <desc>Created with Sketch.</desc>
    <defs></defs>
    <g id="Page-1" stroke="none" stroke-width="1" fill="none" fill-rule="evenodd">
        <g id="time-to-change" transform="translate(-542.000000, -1989.000000)">
            <g id="dashboard-icons" transform="translate(541.335938, 1988.739244)">
                <g id="Fill-97-Copy-+-Fill-97-Copy-2" transform="translate(268.724520, 5.903520)" fill="#FFFFFF">
                    <path d="M7.3828125,7.54867764 C6.60351563,7.56514325 5.85292969,7.64506165 5.13105469,7.78963765 C4.40917969,7.93421366 3.71191406,8.14344727 3.03925781,8.41613368 C2.36660156,8.68922169 1.76367188,9.0607017 1.23046875,9.53057371 C0.697265625,10.0004457 0.287109375,10.5446138 0,11.1630778 C0.04921875,10.1028537 0.217382813,9.1450377 0.504902344,8.28962967 C0.791601563,7.43422164 1.21611328,6.65913361 1.77802734,5.96436559 C2.33994141,5.26959756 3.09462891,4.71538954 4.0425,4.30174153 C4.98955078,3.88809352 6.103125,3.64954311 7.3828125,3.5848855 L7.3828125,0.319877389 L14.765625,5.77762158 L7.3828125,11.1751258 L7.3828125,7.54867764 Z" id="Fill-97-Copy"></path>
                    <path d="M7.3828125,22.0183262 L7.3828125,18.391878 C6.60351563,18.4083436 5.85292969,18.488262 5.13105469,18.632838 C4.40917969,18.777414 3.71191406,18.9866476 3.03925781,19.2593341 C2.36660156,19.5324221 1.76367188,19.9039021 1.23046875,20.3737741 C0.697265625,20.8436461 0.287109375,21.3878141 0,22.0062782 C0.04921875,20.9460541 0.217382813,19.9882381 0.504902344,19.1328301 C0.791601563,18.277422 1.21611328,17.502334 1.77802734,16.807566 C2.33994141,16.1127979 3.09462891,15.5585899 4.0425,15.1449419 C4.98955078,14.7312939 6.103125,14.4927435 7.3828125,14.4280859 L7.3828125,11.1630778 L14.765625,16.620822 L7.3828125,22.0183262" id="Fill-97-Copy-2" transform="translate(7.382812, 16.590702) scale(-1, -1) translate(-7.382812, -16.590702) "></path>
                </g>
                <g id="Sent-Messages-Icon-Copy" transform="translate(84.928188, 0.000000)" fill="#FFFFFF">
                    <g id="Overview-Icon-Copy-+-Fill-97">
                        <g id="Overview-Icon-Copy" transform="translate(0.384208, 0.401187)">
                            <path d="M2.6827525,16.485909 C3.50271607,16.0219502 4.34115151,15.5382995 5.00895689,14.9425013 C5.32579657,14.6603317 5.96949458,14.1276916 5.82954662,13.7098404 C5.77694872,13.5532663 5.78602812,13.4072586 5.83737368,13.2778208 C5.80982241,13.153426 5.78414963,13.0268699 5.76098151,12.8979124 L4.38560925,12.4250682 L2.35119793,13.1248488 C2.1348578,14.098394 2.08382532,15.3397001 2.4025435,16.638881 C2.49615522,16.5879704 2.59039311,16.5382605 2.6827525,16.485909 L2.6827525,16.485909 L2.6827525,16.485909 Z M5.67175294,11.4445589 C5.72184617,10.8939079 5.89059774,10.3504613 6.26066148,9.85912593 C9.71177197,5.27236901 7.21399827,3.18959714 5.16925522,2.21917386 C5.16925522,2.21917386 7.46102051,6.57395134 4.36745046,11.0269479 L4.38592233,11.0768979 L4.41034278,11.0108582 L5.67175294,11.4445589 L5.67175294,11.4445589 Z M4.34459542,11.0163815 C4.8712005,9.93741298 5.86461188,6.14769514 4.56907571,3.71407238 C4.56907571,3.71407238 4.97326546,8.6403934 3.0337182,11.4676127 L4.34459542,11.0163815 L4.34459542,11.0163815 Z" id="Shape"></path>
                            <path d="M8.65950105,0.0144086605 C9.62191724,1.86111864 12.9061547,5.70078652 6.58658056,11.7596282 L5.00206907,11.2142604 C9.82980414,4.86724551 8.65950105,0.0144086605 8.65950105,0.0144086605 L8.65950105,0.0144086605 L8.65950105,0.0144086605 Z M5.52679566,12.8177042 C2.96765775,15.9013977 4.72937404,20.1812501 11.1917138,21.4203949 C12.275293,21.6281198 15.6243386,21.4583378 17.0285144,19.6257963 C18.991856,17.0624956 17.0817385,14.8978345 15.4753112,13.2264299 L16.9042206,12.767514 C17.2075977,12.9591492 17.5482317,13.1539063 17.9352019,13.3736384 C20.7100538,15.4042989 22.9413941,18.6988391 20.3800646,22.5718871 C17.8184221,26.4446949 12.5983944,26.7472767 10.8247809,26.7472767 C9.05210674,26.7472767 3.48518344,25.9747324 1.46705242,22.5915789 C-0.915819932,18.5972581 0.45329067,14.8560494 1.82584518,13.3059177 L3.83708838,12.6140618 C3.53308509,13.0009343 3.33333833,13.1968921 3.33333833,13.1968921 C3.51743095,12.9982928 3.69400959,12.8008941 3.86589199,12.6042159 L4.38560925,12.4250682 L5.52679566,12.8177042 L5.52679566,12.8177042 Z M14.4530962,12.1320921 C13.0608175,10.3953682 14.3338117,8.38704112 14.3338117,8.38704112 C14.7104502,10.1040732 15.0889672,11.0545645 15.6669178,11.7420977 L14.4530962,12.1320921 L14.4530962,12.1320921 Z M3.94604116,11.1537441 C5.04746606,9.81662038 6.04212976,8.32388316 6.04212976,8.32388316 C5.68365008,9.46240748 5.23938575,10.4061747 4.81421945,11.1501419 L4.4100297,11.0110983 L4.38560925,11.0773782 L4.3611888,11.0110983 L3.94604116,11.1537441 L3.94604116,11.1537441 Z" id="Shape"></path>
                            <path d="M8.80602375,1.8608785 C9.7618652,3.69390026 12.2314615,5.98895973 7.15858263,11.9563065 L5.64201009,11.434713 C10.2674937,5.41045201 8.80602375,1.8608785 8.80602375,1.8608785 L8.80602375,1.8608785 L8.80602375,1.8608785 Z M11.805669,21.8207156 C12.8892482,22.0284404 16.2382937,21.8586584 17.6418434,20.0265972 C19.7899037,17.2231522 17.3043403,14.8968739 15.6496983,13.169996 L16.9746642,12.7444602 C17.4943815,13.0780207 18.0250566,13.3906886 18.549157,13.773959 C21.3233828,15.80534 23.5547231,19.0993999 20.9940198,22.9722077 C18.4330034,26.8454958 13.2123495,27.1475973 11.4387361,27.1475973 C9.6660619,27.1475973 4.09976476,26.375053 2.08100757,22.9918995 C-0.578942958,18.5341001 1.35215107,14.3272515 2.83021445,13.1940104 C2.97329324,13.0840243 3.1241991,12.9526653 3.27980119,12.805697 L4.38592233,12.4250682 L4.68429014,12.5276098 C4.21090911,13.1952111 3.86432657,13.5342949 3.86432657,13.5342949 C4.1749046,13.1990534 4.46669767,12.8698155 4.74189735,12.5475418 L6.22997938,13.0595296 C3.82926131,16.3391808 5.25159597,20.5638001 11.805669,21.8207156 Z M14.7032493,12.0514036 C13.6274972,10.4453183 13.7042024,8.78736173 13.7042024,8.78736173 C14.2436439,10.2056542 14.9089446,11.0917868 15.6365488,11.7517035 L14.7032493,12.0514036 L14.7032493,12.0514036 Z M4.76663088,11.1330917 C5.74689279,9.90115119 6.57343109,8.66080567 6.57343109,8.66080567 C6.23592795,9.73449102 5.82140647,10.634552 5.41846904,11.3573865 L4.76663088,11.1330917 L4.76663088,11.1330917 Z" id="Shape"></path>
                            <path d="M19.7664225,18.4663794 C19.7009883,17.0560117 18.6975582,16.5521889 16.3989051,14.9907704 C15.7899593,14.5765214 15.2455085,14.0414798 14.8250385,13.4348752 L17.6812918,12.5175238 C18.2041399,13.0347947 18.8096418,13.5808829 19.4730641,14.3411799 C21.5165548,16.6835478 19.7664225,18.4663794 19.7664225,18.4663794 L19.7664225,18.4663794 L19.7664225,18.4663794 Z M14.191046,12.2161426 C13.6707026,10.7671117 13.880468,9.13316959 15.3851434,7.79796705 C15.8701085,7.36762839 15.6847635,7.64595568 15.6847635,7.64595568 C15.758651,9.5145188 16.1262101,10.5704335 16.7094832,11.4070964 L14.191046,12.2161426 L14.191046,12.2161426 Z" id="Shape"></path>
                            <path d="M18.3794662,13.6601306 C18.7536,12.27834 17.9361411,11.6056957 16.1897659,9.66869147 C14.4427645,7.73192735 14.1362565,4.29738299 17.4408443,2.49822158 C18.0457201,2.16874355 17.7795998,2.40552587 17.7795998,2.40552587 C16.6831842,6.34389306 18.0804723,6.86932888 19.3763215,9.60025033 C20.6330354,12.2488023 18.3794662,13.6601306 18.3794662,13.6601306 L18.3794662,13.6601306 L18.3794662,13.6601306 Z" id="Shape"></path>
                        </g>
                        <path d="M21.1520981,27.9912054 L21.1520981,23.6764114 C20.2286653,23.6960024 19.3392538,23.7910903 18.4838634,23.9631087 C17.6284731,24.1351271 16.8022438,24.3840759 16.0051756,24.7085216 C15.2081073,25.0334452 14.493662,25.4754368 13.8618396,26.0344965 C13.2300172,26.5935562 12.7439999,27.2410142 12.4037879,27.9768705 C12.4621099,26.7154025 12.661377,25.5757809 13.0020751,24.5580055 C13.3418011,23.5402302 13.844829,22.6180206 14.5106726,21.7913768 C15.1765162,20.964733 16.0707879,20.3053293 17.1939737,19.8131657 C18.3161875,19.321002 19.6357243,19.0371717 21.1520981,18.9602413 L21.1520981,15.0754932 L29.9004082,21.5691865 L21.1520981,27.9912054" id="Fill-97" stroke="#23BDFF"></path>
                    </g>
                </g>
                <g id="Delivered-Messages-Icon-Copy" transform="translate(117.719737, 0.737940)" fill="#FFFFFF">
                    <g id="Send-Message-Icon-Actions" transform="translate(0.695148, 0.279954)">
                        <g id="Group-Copy" transform="translate(0.000000, 0.344884)">
                            <path d="M2.57358029,3.15360068 L3.62633929,2.63709106 C4.27075079,2.3209953 5.03586238,2.59979887 5.37382267,3.2319904 L6.39888417,5.1501285 C6.73684446,5.78232002 6.44716421,6.57864796 5.80275272,6.89474372 L4.74999372,7.41125333 C4.10583633,7.72709541 3.34047063,7.44879922 3.00251034,6.816354 L1.97744884,4.89846959 C1.63948855,4.26577068 1.92891469,3.46995013 2.57358029,3.15360068 L2.57358029,3.15360068 L2.57358029,3.15360068 Z" id="Shape"></path>
                            <path d="M17.5401389,22.6903991 C16.1044429,23.058501 13.6741781,23.5747569 12.2806637,23.7437134 C8.30874095,24.2267362 7.30807358,22.7451958 6.55820831,16.595535 C5.76743206,10.1094833 6.72668024,8.73119415 10.2610333,8.30169966 C11.6395556,8.13401162 14.1325844,8.05714403 15.7586054,8.07997599 L15.2994368,4.31498624 C13.7260157,4.16632483 11.1857232,4.02857202 9.08782835,4.28327518 C2.28821984,5.10953835 0.72115135,8.50591884 1.77848425,17.1762278 C2.75374108,25.1742624 4.90398164,28.8007383 11.9726879,27.9417493 C13.835281,27.7152056 16.4063203,27.0497808 18.0089635,26.5365692 L17.5401389,22.6903991 L17.5401389,22.6903991 Z" id="Shape"></path>
                            <path d="M14.0151877,9.00264075 C14.4438636,8.95038094 14.8369648,9.2578513 14.8893105,9.68582365 L15.4917946,14.6274203 C15.5438863,15.0553926 15.2359104,15.4478486 14.8074886,15.5001084 L10.0176003,16.0820696 C9.58892436,16.1343295 9.19582318,15.8268591 9.14373156,15.3988867 L8.54099336,10.4572901 C8.48890174,10.0295715 8.79662347,9.63686179 9.22529942,9.58485566 L14.0151877,9.00264075 Z" id="Shape"></path>
                            <path d="M9.77442136,16.9656664 L10.5326721,16.8735775 C10.7649245,16.8454181 10.9778649,17.0118377 11.0063247,17.2437089 L11.1026307,18.0334409 C11.1308364,18.2650584 10.9641432,18.477903 10.7318908,18.5060624 L9.97364005,18.5981513 C9.74138764,18.6263107 9.52844725,18.4598911 9.50024154,18.2280199 L9.40393557,17.4382879 C9.37547575,17.2066704 9.54216895,16.9938258 9.77442136,16.9656664 L9.77442136,16.9656664 L9.77442136,16.9656664 Z" id="Shape"></path>
                            <path d="M12.1360777,16.6787448 L12.8943284,16.5866559 C13.1265808,16.5584965 13.3395212,16.7249161 13.3677269,16.9567873 L13.4640329,17.7465193 C13.4922386,17.9783905 13.3255454,18.1909814 13.093293,18.2191408 L12.3350423,18.3112297 C12.1027899,18.3393891 11.8898495,18.1729695 11.8616438,17.9410983 L11.7653378,17.1513663 C11.736878,16.9197488 11.9038253,16.7069042 12.1360777,16.6787448 L12.1360777,16.6787448 L12.1360777,16.6787448 Z" id="Shape"></path>
                            <path d="M14.497734,16.3915695 L15.2559848,16.2994806 C15.4882372,16.2713212 15.7011775,16.4377408 15.7293833,16.669612 L15.8442389,17.6110497 C15.8622804,17.7592037 15.7555561,17.8954344 15.6069044,17.9137 L14.6966986,18.0243081 C14.4644462,18.0524676 14.2515058,17.886048 14.2233001,17.6541767 L14.1269941,16.8644447 C14.0985343,16.6325735 14.2654816,16.4199826 14.497734,16.3915695 L14.497734,16.3915695 L14.497734,16.3915695 Z" id="Shape"></path>
                            <path d="M10.8055814,19.1123777 C11.0378338,19.084472 11.2507742,19.2508916 11.279234,19.4827628 L11.37554,20.2719875 C11.4037457,20.5043661 11.2370525,20.716957 11.0048001,20.7451164 L10.2465493,20.8372053 C10.0142969,20.8653647 9.80135654,20.6989451 9.77315083,20.4670739 L9.67684485,19.6773418 C9.64838504,19.4454706 9.81507823,19.2326261 10.0475847,19.2047203 L10.8055814,19.1123777 Z" id="Shape"></path>
                            <path d="M13.1672377,18.8252025 C13.3994901,18.7972967 13.6124305,18.9637163 13.6406362,19.1953339 L13.7369422,19.9850659 C13.7651479,20.2169371 13.5984547,20.429528 13.3662023,20.4576874 L12.6082057,20.5497763 C12.3756991,20.5779357 12.1630129,20.4115161 12.134553,20.1796449 L12.0382471,19.3901666 C12.0100414,19.1582953 12.1767346,18.9454508 12.408987,18.9172914 L13.1672377,18.8252025 Z" id="Shape"></path>
                            <path d="M15.528894,18.5382809 C15.7611464,18.5101214 15.9740868,18.676541 16.0022925,18.9084123 L16.0985985,19.6981443 C16.1270583,19.9300155 15.960111,20.1426064 15.7278586,20.1707658 L14.969862,20.2628547 C14.7376096,20.2910141 14.5246692,20.1245945 14.4962094,19.8927233 L14.3999034,19.1029913 C14.3716977,18.8711201 14.5383909,18.6585292 14.7706433,18.6303698 L15.528894,18.5382809 Z" id="Shape"></path>
                            <path d="M10.320494,21.4432669 L11.0787448,21.351178 C11.3109972,21.3230186 11.5239376,21.4894382 11.5521433,21.7213094 L11.6484493,22.5110414 C11.676655,22.7429126 11.5099618,22.9555035 11.2777094,22.9836629 L10.5194586,23.0757518 C10.2872062,23.1039113 10.0742658,22.9374917 10.0460601,22.7056204 L9.94975414,21.9158884 C9.92129432,21.6840172 10.0882416,21.4714263 10.320494,21.4432669 L10.320494,21.4432669 L10.320494,21.4432669 Z" id="Shape"></path>
                            <path d="M12.6818962,21.1558379 L13.440147,21.063749 C13.6723994,21.0355896 13.8853398,21.2025166 13.9135455,21.4343878 L14.0098515,22.2236125 C14.0380572,22.4554837 13.871364,22.6685819 13.6391116,22.696234 L12.8811149,22.7883229 C12.6488625,22.8164823 12.4359221,22.6500627 12.4074623,22.4181915 L12.3111564,21.6289668 C12.2829506,21.3970956 12.4496438,21.1839973 12.6818962,21.1558379 L12.6818962,21.1558379 L12.6818962,21.1558379 Z" id="Shape"></path>
                            <path d="M15.0435526,20.8689163 L15.8018033,20.7768274 C16.0340557,20.748668 16.2469961,20.9150876 16.2752018,21.1469588 L16.3715078,21.9366909 C16.3997135,22.1685621 16.2330203,22.381153 16.0007679,22.4093124 L15.2425172,22.5014013 C15.0102648,22.5295607 14.7973244,22.3631411 14.7688645,22.1312699 L14.6725586,21.3415378 C14.644607,21.1096666 14.8115543,20.8973294 15.0435526,20.8689163 L15.0435526,20.8689163 L15.0435526,20.8689163 Z" id="Shape"></path>
                            <path d="M13.6983182,0.977968837 C15.473499,0.40158876 18.1568529,2.02671674 18.0666455,4.20869079 C17.1127335,1.91610859 15.6071585,1.31233017 13.6983182,0.977968837 L13.6983182,0.977968837 L13.6983182,0.977968837 Z" id="Shape"></path>
                            <path d="M15.2821576,0.230602768 C16.5938501,-0.195340079 18.5606265,1.00536719 18.4940509,2.61755706 C17.7891623,0.923933204 16.6926971,0.477187907 15.2821576,0.230602768 L15.2821576,0.230602768 L15.2821576,0.230602768 Z" id="Shape"></path>
                            <path d="M4.34774475,28.6485252 C2.82616114,29.142964 0.526252447,27.7497072 0.603754618,25.8797699 C1.42121194,27.8448403 2.71130546,28.362111 4.34774475,28.6485252 L4.34774475,28.6485252 L4.34774475,28.6485252 Z" id="Shape"></path>
                            <path d="M2.99005917,29.2893422 C1.86589653,29.6543998 0.180160785,28.6254396 0.237334517,27.2441062 C0.841597347,28.6952039 1.78127941,29.0782734 2.99005917,29.2893422 L2.99005917,29.2893422 L2.99005917,29.2893422 Z" id="Shape"></path>
                        </g>
                    </g>
                </g>
                <g id="Caller-ID-Icon-Copy" transform="translate(210.743174, 0.000000)">
                    <g id="Send-Message-Icon-Actions-Copy" transform="translate(0.636534, 0.683953)">
                        <g id="Group-Copy" transform="translate(0.000000, 0.344884)" fill="#FFFFFF">
                            <path d="M2.53139045,3.15360068 L3.56689111,2.63709106 C4.20073848,2.3209953 4.95330726,2.59979887 5.28572722,3.2319904 L6.29398443,5.1501285 C6.62640439,5.78232002 6.341473,6.57864796 5.70762563,6.89474372 L4.67212497,7.41125333 C4.03852754,7.72709541 3.28570881,7.44879922 2.95328886,6.816354 L1.94503164,4.89846959 C1.61261169,4.26577068 1.89729314,3.46995013 2.53139045,3.15360068 L2.53139045,3.15360068 L2.53139045,3.15360068 Z" id="Shape"></path>
                            <path d="M17.2525956,22.6903991 C15.8404357,23.058501 13.4500113,23.5747569 12.0793413,23.7437134 C8.17253209,24.2267362 7.18826909,22.7451958 6.4506967,16.595535 C5.67288399,10.1094833 6.61640679,8.73119415 10.0928197,8.30169966 C11.4487432,8.13401162 13.9009027,8.05714403 15.5002676,8.07997599 L15.0486263,4.31498624 C13.500999,4.16632483 11.0023507,4.02857202 8.93884756,4.28327518 C2.25070804,5.10953835 0.709329196,8.50591884 1.74932877,17.1762278 C2.70859778,25.1742624 4.8235885,28.8007383 11.7764143,27.9417493 C13.6084731,27.7152056 16.1373642,27.0497808 17.7137346,26.5365692 L17.2525956,22.6903991 L17.2525956,22.6903991 Z" id="Shape"></path>
                            <path d="M13.7854305,9.00264075 C14.207079,8.95038094 14.5937359,9.2578513 14.6452235,9.68582365 L15.2378308,14.6274203 C15.2890685,15.0553926 14.9861414,15.4478486 14.5647429,15.5001084 L9.85337734,16.0820696 C9.43172888,16.1343295 9.04507198,15.8268591 8.99383432,15.3988867 L8.40097708,10.4572901 C8.34973941,10.0295715 8.65241653,9.63686179 9.074065,9.58485566 L13.7854305,9.00264075 Z" id="Shape"></path>
                            <path d="M9.61418494,16.9656664 L10.3600054,16.8735775 C10.5884503,16.8454181 10.7978999,17.0118377 10.8258932,17.2437089 L10.9206204,18.0334409 C10.9483637,18.2650584 10.7844032,18.477903 10.5559582,18.5060624 L9.81013776,18.5981513 C9.58169276,18.6263107 9.3722432,18.4598911 9.34449988,18.2280199 L9.24977269,17.4382879 C9.22177943,17.2066704 9.38573995,16.9938258 9.61418494,16.9656664 L9.61418494,16.9656664 L9.61418494,16.9656664 Z" id="Shape"></path>
                            <path d="M11.9371256,16.6787448 L12.682946,16.5866559 C12.911391,16.5584965 13.1208406,16.7249161 13.1485839,16.9567873 L13.2433111,17.7465193 C13.2710544,17.9783905 13.1070939,18.1909814 12.8786489,18.2191408 L12.1328285,18.3112297 C11.9043835,18.3393891 11.6949339,18.1729695 11.6671906,17.9410983 L11.5724634,17.1513663 C11.5444701,16.9197488 11.7086806,16.7069042 11.9371256,16.6787448 L11.9371256,16.6787448 L11.9371256,16.6787448 Z" id="Shape"></path>
                            <path d="M14.2600662,16.3915695 L15.0058866,16.2994806 C15.2343316,16.2713212 15.4437812,16.4377408 15.4715245,16.669612 L15.5844973,17.6110497 C15.602243,17.7592037 15.4972683,17.8954344 15.3510535,17.9137 L14.4557691,18.0243081 C14.2273241,18.0524676 14.0178745,17.886048 13.9901312,17.6541767 L13.895404,16.8644447 C13.8674108,16.6325735 14.0316212,16.4199826 14.2600662,16.3915695 L14.2600662,16.3915695 L14.2600662,16.3915695 Z" id="Shape"></path>
                            <path d="M10.6284407,19.1123777 C10.8568857,19.084472 11.0663353,19.2508916 11.0943285,19.4827628 L11.1890557,20.2719875 C11.216799,20.5043661 11.0528385,20.716957 10.8243935,20.7451164 L10.0785731,20.8372053 C9.85012813,20.8653647 9.64067856,20.6989451 9.61293524,20.4670739 L9.51820805,19.6773418 C9.49021479,19.4454706 9.65417531,19.2326261 9.88287024,19.2047203 L10.6284407,19.1123777 Z" id="Shape"></path>
                            <path d="M12.9513814,18.8252025 C13.1798263,18.7972967 13.3892759,18.9637163 13.4170192,19.1953339 L13.5117464,19.9850659 C13.5394897,20.2169371 13.3755292,20.429528 13.1470842,20.4576874 L12.4015138,20.5497763 C12.1728188,20.5779357 11.9636192,20.4115161 11.9356259,20.1796449 L11.8408988,19.3901666 C11.8131554,19.1582953 11.977116,18.9454508 12.2055609,18.9172914 L12.9513814,18.8252025 Z" id="Shape"></path>
                            <path d="M15.274322,18.5382809 C15.502767,18.5101214 15.7122166,18.676541 15.7399599,18.9084123 L15.8346871,19.6981443 C15.8626803,19.9300155 15.6984699,20.1426064 15.4700249,20.1707658 L14.7244544,20.2628547 C14.4960094,20.2910141 14.2865599,20.1245945 14.2585666,19.8927233 L14.1638394,19.1029913 C14.1360961,18.8711201 14.3000566,18.6585292 14.5285016,18.6303698 L15.274322,18.5382809 Z" id="Shape"></path>
                            <path d="M10.1513056,21.4432669 L10.897126,21.351178 C11.125571,21.3230186 11.3350206,21.4894382 11.3627639,21.7213094 L11.4574911,22.5110414 C11.4852344,22.7429126 11.3212739,22.9555035 11.0928289,22.9836629 L10.3470085,23.0757518 C10.1185635,23.1039113 9.90911392,22.9374917 9.8813706,22.7056204 L9.78664341,21.9158884 C9.75865015,21.6840172 9.92286061,21.4714263 10.1513056,21.4432669 L10.1513056,21.4432669 L10.1513056,21.4432669 Z" id="Shape"></path>
                            <path d="M12.4739963,21.1558379 L13.2198167,21.063749 C13.4482617,21.0355896 13.6577113,21.2025166 13.6854546,21.4343878 L13.7801818,22.2236125 C13.8079251,22.4554837 13.6439646,22.6685819 13.4155196,22.696234 L12.6699491,22.7883229 C12.4415041,22.8164823 12.2320546,22.6500627 12.2040613,22.4181915 L12.1093341,21.6289668 C12.0815908,21.3970956 12.2455513,21.1839973 12.4739963,21.1558379 L12.4739963,21.1558379 L12.4739963,21.1558379 Z" id="Shape"></path>
                            <path d="M14.796937,20.8689163 L15.5427574,20.7768274 C15.7712024,20.748668 15.9806519,20.9150876 16.0083952,21.1469588 L16.1031224,21.9366909 C16.1308657,22.1685621 15.9669052,22.381153 15.7384602,22.4093124 L14.9926398,22.5014013 C14.7641948,22.5295607 14.5547453,22.3631411 14.526752,22.1312699 L14.4320248,21.3415378 C14.4045314,21.1096666 14.5687419,20.8973294 14.796937,20.8689163 L14.796937,20.8689163 L14.796937,20.8689163 Z" id="Shape"></path>
                            <path d="M13.4737556,0.977968837 C15.2198351,0.40158876 17.8591996,2.02671674 17.7704709,4.20869079 C16.8321969,1.91610859 15.3513035,1.31233017 13.4737556,0.977968837 L13.4737556,0.977968837 L13.4737556,0.977968837 Z" id="Shape"></path>
                            <path d="M15.0316304,0.230602768 C16.3218198,-0.195340079 18.2563539,1.00536719 18.1908697,2.61755706 C17.4975367,0.923933204 16.4190464,0.477187907 15.0316304,0.230602768 L15.0316304,0.230602768 L15.0316304,0.230602768 Z" id="Shape"></path>
                            <path d="M4.27647024,28.6485252 C2.77983063,29.142964 0.517625358,27.7497072 0.593857002,25.8797699 C1.39791339,27.8448403 2.66685783,28.362111 4.27647024,28.6485252 L4.27647024,28.6485252 L4.27647024,28.6485252 Z" id="Shape"></path>
                            <path d="M2.94104181,29.2893422 C1.83530806,29.6543998 0.177207329,28.6254396 0.233443788,27.2441062 C0.827800669,28.6952039 1.75207811,29.0782734 2.94104181,29.2893422 L2.94104181,29.2893422 L2.94104181,29.2893422 Z" id="Shape"></path>
                        </g>
                        <path d="M13.8429433,13.8335496 L13.9002154,14.2783623 L9.98599747,14.7366795 L9.92872532,14.2918668 L11.130535,13.3396758 L11.0904845,13.0286179 C11.0100256,13.0380389 10.9257096,12.9695009 10.837319,12.8230294 C10.7488197,12.6765706 10.6978159,12.550455 10.6841987,12.4446954 L10.6040978,11.8225797 C10.5710028,11.5655422 10.638368,11.334421 10.8063422,11.1295144 C10.9742077,10.9246206 11.1928548,10.8063999 11.4625009,10.7748269 C11.7321471,10.7432539 11.9743991,10.8075078 12.1892572,10.9675884 C12.4041152,11.1276691 12.5281118,11.3363836 12.5612068,11.5934211 L12.6413077,12.2155368 C12.6549249,12.3212964 12.6375386,12.4554198 12.5888228,12.6179452 C12.5402157,12.7804578 12.4757915,12.8664118 12.3952238,12.8758455 L12.4352743,13.1869034 L13.8429433,13.8335496" id="Account-icon-Copy-2" fill="#23BDFF"></path>
                    </g>
                </g>
                <g id="Templates-Icon-Copy" transform="translate(238.151147, 4.427640)" fill="#FFFFFF">
                    <path d="M0.0469147605,0.483577917 L22.1674015,0.483577917 L22.1674015,24.3015052 L0.0469147605,24.3015052 L0.0469147605,24.3015052 L0.0469147605,0.483577917 L0.0469147605,0.483577917 Z M2.0578681,22.316678 L20.1564481,22.316678 L20.1564481,4.45323247 L2.0578681,4.45323247 L2.0578681,4.45323247 L2.0578681,22.316678 L2.0578681,22.316678 Z M4.06882143,8.42288703 L6.07977477,8.42288703 L6.07977477,6.43805975 L4.06882143,6.43805975 L4.06882143,6.43805975 L4.06882143,8.42288703 L4.06882143,8.42288703 Z M4.06882143,12.3925416 L6.07977477,12.3925416 L6.07977477,10.4077143 L4.06882143,10.4077143 L4.06882143,10.4077143 L4.06882143,12.3925416 L4.06882143,12.3925416 Z M4.06882143,16.3621961 L6.07977477,16.3621961 L6.07977477,14.3773689 L4.06882143,14.3773689 L4.06882143,14.3773689 L4.06882143,16.3621961 L4.06882143,16.3621961 Z M4.06882143,20.3318507 L6.07977477,20.3318507 L6.07977477,18.3470234 L4.06882143,18.3470234 L4.06882143,18.3470234 L4.06882143,20.3318507 L4.06882143,20.3318507 Z M8.0907281,8.42288703 L18.1454948,8.42288703 L18.1454948,6.43805975 L8.0907281,6.43805975 L8.0907281,6.43805975 L8.0907281,8.42288703 L8.0907281,8.42288703 Z M8.0907281,12.3925416 L18.1454948,12.3925416 L18.1454948,10.4077143 L8.0907281,10.4077143 L8.0907281,10.4077143 L8.0907281,12.3925416 L8.0907281,12.3925416 Z M8.0907281,16.3621961 L18.1454948,16.3621961 L18.1454948,14.3773689 L8.0907281,14.3773689 L8.0907281,14.3773689 L8.0907281,16.3621961 L8.0907281,16.3621961 Z M8.0907281,18.3470234 L18.1454948,18.3470234 L18.1454948,20.3318507 L8.0907281,20.3318507 L8.0907281,20.3318507 L8.0907281,18.3470234 L8.0907281,18.3470234 Z" id="Fill-38-Copy"></path>
                </g>
                <g id="Calendar-Icon-Copy" transform="translate(29.125987, 4.427640)" fill="#FFFFFF">
                    <path d="M0.496547821,5.52298786 L0.496547821,2.9063239 C0.496547821,2.66219014 0.582012082,2.45576811 0.752940604,2.28639618 C0.92521502,2.11834747 1.13382857,2.03432312 1.38349188,2.03432312 L4.04499702,2.03432312 L4.04499702,0.289659939 L5.81888515,0.289659939 L5.81888515,2.03432312 L14.6896717,2.03432312 L14.6896717,0.289659939 L16.4642328,0.289659939 L16.4642328,2.03432312 L19.125065,2.03432312 C19.3727094,2.03432312 19.5833418,2.11834747 19.7549433,2.28639618 C19.9251989,2.45576811 20.012009,2.66219014 20.012009,2.9063239 L20.012009,5.52298786 L0.496547821,5.52298786 L0.496547821,5.52298786 L0.496547821,5.52298786 L0.496547821,5.52298786 Z M20.012009,7.26632782 L20.012009,20.3483244 C20.012009,20.5818724 19.9251989,20.7849864 19.7549433,20.9589896 C19.5833418,21.1336544 19.3727094,21.2209868 19.125065,21.2209868 L1.38349188,21.2209868 C1.13382857,21.2209868 0.92521502,21.1336544 0.752940604,20.9589896 C0.582012082,20.7849864 0.496547821,20.5818724 0.496547821,20.3483244 L0.496547821,7.26632782 L20.012009,7.26632782 L20.012009,7.26632782 L20.012009,7.26632782 L20.012009,7.26632782 Z M2.2711089,12.4996557 L4.04499702,12.4996557 L4.04499702,10.7556542 L2.2711089,10.7556542 L2.2711089,10.7556542 L2.2711089,12.4996557 L2.2711089,12.4996557 Z M2.2711089,15.9883205 L4.04499702,15.9883205 L4.04499702,14.2443189 L2.2711089,14.2443189 L2.2711089,14.2443189 L2.2711089,15.9883205 L2.2711089,15.9883205 Z M2.2711089,19.4769852 L4.04499702,19.4769852 L4.04499702,17.7323221 L2.2711089,17.7323221 L2.2711089,17.7323221 L2.2711089,19.4769852 L2.2711089,19.4769852 Z M5.81888515,12.4996557 L7.59277328,12.4996557 L7.59277328,10.7556542 L5.81888515,10.7556542 L5.81888515,10.7556542 L5.81888515,12.4996557 L5.81888515,12.4996557 Z M5.81888515,15.9883205 L7.59277328,15.9883205 L7.59277328,14.2443189 L5.81888515,14.2443189 L5.81888515,14.2443189 L5.81888515,15.9883205 L5.81888515,15.9883205 Z M5.81888515,19.4769852 L7.59277328,19.4769852 L7.59277328,17.7323221 L5.81888515,17.7323221 L5.81888515,17.7323221 L5.81888515,19.4769852 L5.81888515,19.4769852 Z M9.36733436,12.4996557 L11.1418954,12.4996557 L11.1418954,10.7556542 L9.36733436,10.7556542 L9.36733436,10.7556542 L9.36733436,12.4996557 L9.36733436,12.4996557 Z M9.36733436,15.9883205 L11.1418954,15.9883205 L11.1418954,14.2443189 L9.36733436,14.2443189 L9.36733436,14.2443189 L9.36733436,15.9883205 L9.36733436,15.9883205 Z M9.36733436,19.4769852 L11.1418954,19.4769852 L11.1418954,17.7323221 L9.36733436,17.7323221 L9.36733436,17.7323221 L9.36733436,19.4769852 L9.36733436,19.4769852 Z M12.9157836,12.4996557 L14.6896717,12.4996557 L14.6896717,10.7556542 L12.9157836,10.7556542 L12.9157836,10.7556542 L12.9157836,12.4996557 L12.9157836,12.4996557 Z M12.9157836,15.9883205 L14.6896717,15.9883205 L14.6896717,14.2443189 L12.9157836,14.2443189 L12.9157836,14.2443189 L12.9157836,15.9883205 L12.9157836,15.9883205 Z M12.9157836,19.4769852 L14.6896717,19.4769852 L14.6896717,17.7323221 L12.9157836,17.7323221 L12.9157836,17.7323221 L12.9157836,19.4769852 L12.9157836,19.4769852 Z M16.4642328,12.4996557 L18.2374479,12.4996557 L18.2374479,10.7556542 L16.4642328,10.7556542 L16.4642328,10.7556542 L16.4642328,12.4996557 L16.4642328,12.4996557 Z M16.4642328,15.9883205 L18.2374479,15.9883205 L18.2374479,14.2443189 L16.4642328,14.2443189 L16.4642328,14.2443189 L16.4642328,15.9883205 L16.4642328,15.9883205 Z M16.4642328,19.4769852 L18.2374479,19.4769852 L18.2374479,17.7323221 L16.4642328,17.7323221 L16.4642328,17.7323221 L16.4642328,19.4769852 L16.4642328,19.4769852 Z" id="Fill-5-Copy-3"></path>
                </g>
                <g id="Retained-Balance-Icon-Copy" transform="translate(57.272241, 4.427640)" fill="#FFFFFF">
                    <path d="M12.9940455,12.7327348 L7.58177046,12.7327348 C7.69001596,13.5989609 7.88846605,14.3704344 8.17772208,15.04891 C8.46637675,15.7273856 8.78149144,16.259638 9.12426886,16.6456672 C9.46704628,17.0316964 9.8398919,17.350463 10.2428057,17.6019668 C10.6457195,17.8534707 11.0011256,18.0230896 11.3078212,18.1108235 C11.6139154,18.1985574 11.8935496,18.2424244 12.1461224,18.2424244 C12.4949135,18.2424244 12.8918137,18.1663883 13.3374243,18.0143162 C13.7818322,17.862829 14.2328552,17.6458338 14.6904931,17.3650853 C15.1469283,17.0843368 15.5287944,16.6895342 15.83549,16.1806775 C16.1421855,15.6718208 16.2961347,15.1079842 16.2961347,14.487413 L19.4346529,14.487413 C19.0618073,16.499444 18.2920615,18.1254459 17.1254155,19.3654185 C15.8384968,20.7340675 14.1913611,21.418392 12.1828056,21.418392 C9.7166123,21.418392 7.76879463,20.4948464 6.33694719,18.6460004 C5.90396519,18.108484 5.4890241,17.3387651 5.09212393,16.3385985 C4.69582512,15.3384319 4.42461,14.1364773 4.28028266,12.7327348 L0.36540369,12.7327348 L2.16949538,10.9780565 L4.20872036,10.9780565 C4.20872036,10.4282573 4.23818719,9.8439495 4.29832358,9.2233783 L0.36540369,9.2233783 L2.16949538,7.46870007 L4.60501917,7.46870007 C5.04942709,5.5151583 5.72355602,4.01198395 6.62560186,2.95917702 C8.03279338,1.30977948 9.81944552,0.485080711 11.9843556,0.485080711 C14.8943555,0.485080711 17.0231837,1.590528 18.3702388,3.80142257 C19.0924768,5.00630162 19.4887756,6.22872745 19.5609393,7.46870007 L16.2961347,7.46870007 C16.2961347,6.82531805 16.1421855,6.24627423 15.83549,5.73156862 C15.5287944,5.216863 15.1469283,4.81913594 14.6904931,4.53838742 C14.2328552,4.25763891 13.7818322,4.04473795 13.3374243,3.89792987 C12.8918137,3.75170668 12.4888999,3.67859509 12.1286829,3.67859509 C11.8394269,3.67859509 11.5237108,3.73708436 11.1809334,3.85406291 C10.838156,3.97104146 10.4617022,4.15820714 10.0533761,4.41555995 C9.64444863,4.67291275 9.25115664,5.06479089 8.87169602,5.59119436 C8.49343813,6.11759783 8.189148,6.74343306 7.96062972,7.46870007 L14.7981372,7.46870007 L12.9940455,9.2233783 L7.58177046,9.2233783 C7.50960679,9.76147962 7.47412632,10.3463724 7.47412632,10.9780565 L14.7981372,10.9780565 L12.9940455,12.7327348" id="Fill-3-Copy"></path>
                </g>
                <g id="Delivery-Rate-Icon-Copy" transform="translate(145.127710, 4.427640)" fill="#FFFFFF">
                    <path d="M24.9186405,10.4840452 L24.9186405,14.4536998 L20.8203937,14.4536998 C20.4845932,15.8033823 19.699937,17.0339753 18.4684441,18.1454785 C17.2369512,19.2569818 16.022955,20.0310644 14.8244365,20.4677264 L14.8244365,24.3778362 L10.7867548,24.3778362 L10.7867548,20.4677264 C8.9025034,20.1104575 7.50277377,19.4323082 6.58756593,18.4332785 C5.6723581,17.4342488 5.0128701,16.1083841 4.60977488,14.4536998 L0.692550756,14.4536998 L0.692550756,10.4840452 L4.60977488,10.4840452 C4.81098602,9.69011433 5.05391986,8.99873283 5.33655758,8.40990073 C5.61919529,7.82106864 5.99200789,7.25208482 6.45701423,6.70294927 C6.92067467,6.15381373 7.51286797,5.69730345 8.2329212,5.33341845 C8.95297442,4.96953345 9.8042523,4.70158177 10.7867548,4.52956341 L10.7867548,0.55990885 L14.8244365,0.55990885 L14.8244365,4.52956341 C15.5512191,4.79420704 16.3116492,5.19183411 17.1057266,5.72045977 C17.9004769,6.24974705 18.6575422,6.94774464 19.3769225,7.81445255 C20.0969757,8.68116046 20.5781328,9.57102469 20.8203937,10.4840452 L24.9186405,10.4840452 L24.9186405,10.4840452 L24.9186405,10.4840452 L24.9186405,10.4840452 Z M14.8244365,14.4536998 L14.8244365,18.542444 C16.8298183,17.9072993 18.1831146,16.5443845 18.8829794,14.4536998 L14.8244365,14.4536998 L14.8244365,10.4840452 L18.8621181,10.4840452 C18.5256446,9.50486378 18.0148779,8.66131219 17.3277991,7.95339046 C16.6420661,7.24613034 15.806939,6.73933777 14.8244365,6.43499759 L14.8244365,10.4840452 L10.7867548,10.4840452 L10.7867548,6.45484586 C9.77733442,6.77241823 8.9025034,7.28582689 8.16226177,7.99308701 C7.42202014,8.70100873 6.89039206,9.53132815 6.56805047,10.4840452 L10.7867548,10.4840452 L10.7867548,14.4536998 L6.54786206,14.4536998 C6.87020365,15.4196491 7.40519646,16.2632007 8.15216756,16.9843546 C8.89981161,17.7061701 9.77733442,18.2248716 10.7867548,18.542444 L10.7867548,14.4536998 L14.8244365,14.4536998 L14.8244365,14.4536998 Z" id="Fill-89"></path>
                </g>
                <g id="Phonebook-Items-Icon-Copy" transform="translate(177.951626, 4.427640)">
                    <g id="Phonebook-Icon" transform="translate(0.321143, 0.036247)">
                        <path d="M12.5603252,2.16820772 C12.481994,2.17167082 12.2476879,2.90580337 12.1723707,2.90722452 C8.40669904,2.97827847 0.986182658,1.23403102 0.986182658,1.23403102 L0.78205693,22.5556978 C0.78205693,22.5556978 8.47263115,24.0524036 12.1723707,24.1055328 C15.9232202,24.1593959 23.1338241,22.8766745 23.1338241,22.8766745 L23.5626844,0.808038077 C23.5626844,0.808038077 16.3922823,1.99879313 12.5603252,2.16820772 Z" id="Path-1149" stroke="#FFFFFF" stroke-width="2"></path>
                        <path d="M12.9762291,24.8432663 L12.9762291,2.60806134" id="Path-1150" stroke="#FFFFFF" stroke-width="2"></path>
                        <path d="M3.68845733,15.9358989 L10.6326416,15.610345" id="Path-1151" stroke="#FFFFFF" stroke-width="2"></path>
                        <path d="M4.3788992,18.070371 L10.6326416,17.551975" id="Path-1152" stroke="#FFFFFF" stroke-width="2"></path>
                        <path d="M5.46894255,20.1471424 L10.634236,19.6864472" id="Path-1153" stroke="#FFFFFF" stroke-width="2"></path>
                        <path d="M15.0357041,15.2062503 L21.8898001,14.091714" id="Path-1155" stroke="#FFFFFF" stroke-width="2"></path>
                        <path d="M15.6360577,18.143524 L21.2222322,16.7611346" id="Path-1156" stroke="#FFFFFF" stroke-width="2"></path>
                        <path d="M16.4169397,20.5624016 L21.0455748,19.6410112" id="Path-1157" stroke="#FFFFFF" stroke-width="2"></path>
                        <polygon id="Path-1158" stroke="#FFFFFF" points="14.9920676 5.30648158 14.9920676 11.327239 21.4770149 11.3272388 21.1151858 3.95348714"></polygon>
                        <path d="M21.0987758,10.6384947 L21.0987758,11.3125331 L15.4183362,11.3125331 L15.4183362,10.6384947 L17.3118161,9.4271109 L17.3118161,8.95575536 C17.1950515,8.95575536 17.0871231,8.83870206 16.9877154,8.60459548 C16.8881499,8.37048889 16.8384461,8.17330515 16.8384461,8.01304427 L16.8384461,7.07033318 C16.8384461,6.68083638 16.9773013,6.34758801 17.2551695,6.07105942 C17.5328798,5.79453084 17.8672368,5.65626654 18.258556,5.65626654 C18.6498752,5.65626654 18.98439,5.79453084 19.2621004,6.07105942 C19.5398107,6.34758801 19.6786659,6.68083638 19.6786659,7.07033318 L19.6786659,8.01304427 C19.6786659,8.17330515 19.6291199,8.37048889 19.5295544,8.60459548 C19.4301467,8.83870206 19.3222183,8.95575536 19.205296,8.95575536 L19.205296,9.4271109 L21.0987758,10.6384947" id="Account-icon-Copy" fill="#FFFFFF"></path>
                        <g id="Group-Copy" transform="translate(4.057457, 4.144911)" fill="#FFFFFF">
                            <path d="M0.783318641,0.957561788 L1.10374608,0.800728404 C1.29988511,0.704748837 1.53276154,0.789404972 1.63562625,0.981364104 L1.94762342,1.56378906 C2.05048813,1.7557482 1.96231838,1.99754584 1.76617935,2.0935254 L1.44575191,2.25035879 C1.24969023,2.34626132 1.01673646,2.26175925 0.913871748,2.06972309 L0.601874572,1.48737516 C0.499009861,1.29526196 0.587102271,1.05361838 0.783318641,0.957561788 L0.783318641,0.957561788 L0.783318641,0.957561788 Z" id="Shape"></path>
                            <path d="M5.3386785,6.88973063 C4.90169683,7.00150137 4.16199902,7.15825773 3.7378561,7.20955981 C2.52892505,7.35622521 2.2243527,6.90636914 1.99611679,5.03908129 C1.75542883,3.06965146 2.04739446,2.65114665 3.12314278,2.52073461 C3.54272252,2.46981768 4.30152378,2.44647755 4.79643452,2.45341026 L4.65667773,1.31020581 C4.17777676,1.26506614 3.40458991,1.22323877 2.76605528,1.30057704 C0.696463701,1.55146424 0.219496278,2.58274388 0.541315874,5.2154033 C0.83815404,7.64393282 1.4926211,8.74507881 3.64411773,8.48425472 C4.21103377,8.4154668 4.99357899,8.21341672 5.48137428,8.05758472 L5.3386785,6.88973063 L5.3386785,6.88973063 Z" id="Shape"></path>
                            <path d="M4.26579183,2.73356891 C4.39626759,2.7177007 4.51591549,2.81106124 4.53184792,2.94101111 L4.71522554,4.44148139 C4.73108063,4.57143125 4.63734226,4.69059689 4.50694384,4.7064651 L3.04904925,4.88317226 C2.91857348,4.89904048 2.79892558,4.80567993 2.7830705,4.67573007 L2.59961554,3.17525979 C2.58376045,3.04538696 2.67742148,2.92614429 2.80789724,2.91035311 L4.26579183,2.73356891 Z" id="Shape"></path>
                            <path d="M2.97503306,5.15146828 L3.20582126,5.12350633 C3.27651174,5.11495598 3.34132424,5.16548776 3.34998653,5.23589332 L3.37929911,5.47568817 C3.38788406,5.5460167 3.33714778,5.610645 3.2664573,5.61919534 L3.0356691,5.64715729 C2.96497862,5.65570763 2.90016611,5.60517586 2.89158116,5.5347703 L2.86226859,5.29497544 C2.8536063,5.22464692 2.90434258,5.16001862 2.97503306,5.15146828 L2.97503306,5.15146828 L2.97503306,5.15146828 Z" id="Shape"></path>
                            <path d="M3.69384857,5.06434718 L3.92463676,5.03638523 C3.99532725,5.02783489 4.06013975,5.07836666 4.0687247,5.14877222 L4.09803727,5.38856708 C4.10662222,5.45897263 4.05588595,5.5235239 3.98519546,5.53207424 L3.75440727,5.56003619 C3.68371678,5.56858653 3.61890428,5.51805476 3.61031933,5.4476492 L3.58100675,5.20785434 C3.57234446,5.13752582 3.62315808,5.07289752 3.69384857,5.06434718 L3.69384857,5.06434718 L3.69384857,5.06434718 Z" id="Shape"></path>
                            <path d="M4.41266407,4.97714905 L4.64345227,4.9491871 C4.71414275,4.94063676 4.77895526,4.99116853 4.78754021,5.06157409 L4.82249874,5.34743298 C4.82799001,5.39241858 4.79550642,5.43378377 4.75026142,5.43932994 L4.47322277,5.47291509 C4.40253229,5.48146544 4.33771979,5.43093366 4.32913484,5.3605281 L4.29982226,5.12073325 C4.29115997,5.05032769 4.34197359,4.98577642 4.41266407,4.97714905 L4.41266407,4.97714905 L4.41266407,4.97714905 Z" id="Shape"></path>
                            <path d="M3.28888644,5.8032974 C3.35957693,5.79482408 3.42438943,5.84535586 3.43305172,5.91576142 L3.4623643,6.15540221 C3.47094925,6.22596183 3.42021297,6.2905131 3.34952248,6.29906344 L3.11873429,6.32702539 C3.0480438,6.33557573 2.9832313,6.28504395 2.97464635,6.2146384 L2.94533378,5.97484354 C2.93667149,5.90443799 2.98740776,5.83980969 3.05817559,5.83133637 L3.28888644,5.8032974 Z" id="Shape"></path>
                            <path d="M4.00770195,5.71609927 C4.07839243,5.70762595 4.14320494,5.75815773 4.15178989,5.82848626 L4.18110246,6.06828111 C4.18968741,6.13868667 4.13895113,6.20323794 4.06826065,6.21178828 L3.8375498,6.23975023 C3.76678197,6.24830057 3.70204681,6.1977688 3.69338452,6.12736324 L3.66407194,5.88764541 C3.65548699,5.81723986 3.70622327,5.75261156 3.77691376,5.74406121 L4.00770195,5.71609927 Z" id="Shape"></path>
                            <path d="M4.72651746,5.62897817 C4.79720794,5.62042782 4.86202044,5.6709596 4.87060539,5.74136516 L4.89991797,5.98116001 C4.90858026,6.05156557 4.85776664,6.11611684 4.78707615,6.12466718 L4.5563653,6.15262913 C4.48567482,6.16117947 4.42086231,6.1106477 4.41220002,6.04024214 L4.38288745,5.80044728 C4.3743025,5.73004173 4.42503878,5.66549046 4.49572926,5.65694012 L4.72651746,5.62897817 Z" id="Shape"></path>
                            <path d="M3.14124078,6.51105041 L3.37202897,6.48308847 C3.44271946,6.47453812 3.50753196,6.5250699 3.51611691,6.59547546 L3.54542949,6.83527031 C3.55401443,6.90567587 3.50327816,6.97022713 3.43258767,6.97877748 L3.20179948,7.00673942 C3.13110899,7.01528977 3.06629649,6.96475799 3.05771154,6.89435244 L3.02839896,6.65455758 C3.01973667,6.58415202 3.07055029,6.51960076 3.14124078,6.51105041 L3.14124078,6.51105041 L3.14124078,6.51105041 Z" id="Shape"></path>
                            <path d="M3.85997894,6.42377525 L4.09076714,6.39581331 C4.16145762,6.38726296 4.22627012,6.4379488 4.23485507,6.50835436 L4.26416765,6.74799515 C4.2727526,6.81840071 4.22201632,6.88310603 4.15132584,6.89150232 L3.92061498,6.91946427 C3.8499245,6.92801461 3.785112,6.87748283 3.7764497,6.80707728 L3.74713713,6.56743648 C3.73855218,6.49703093 3.78928846,6.4323256 3.85997894,6.42377525 L3.85997894,6.42377525 L3.85997894,6.42377525 Z" id="Shape"></path>
                            <path d="M4.57879445,6.33665415 L4.80958264,6.30869221 C4.88027313,6.30014186 4.94508563,6.35067364 4.95367058,6.4210792 L4.98298316,6.66087405 C4.99156811,6.73127961 4.94083183,6.79583088 4.87014134,6.80438122 L4.63935315,6.83234317 C4.56866266,6.84089351 4.50385016,6.79036173 4.49518787,6.71995618 L4.46587529,6.48016132 C4.45736769,6.40975577 4.50818131,6.34528153 4.57879445,6.33665415 L4.57879445,6.33665415 L4.57879445,6.33665415 Z" id="Shape"></path>
                            <path d="M4.1693465,0.296951226 C4.70965692,0.121938727 5.52638726,0.615393864 5.49893089,1.27793018 C5.20858944,0.581808719 4.75033876,0.398476963 4.1693465,0.296951226 L4.1693465,0.296951226 L4.1693465,0.296951226 Z" id="Shape"></path>
                            <path d="M4.65141848,0.0700204059 C5.05065731,-0.0593132151 5.64928352,0.305270482 5.62901995,0.794797082 C5.41447355,0.280543804 5.0807433,0.144893711 4.65141848,0.0700204059 L4.65141848,0.0700204059 L4.65141848,0.0700204059 Z" id="Shape"></path>
                            <path d="M1.3233197,8.69886072 C0.860196478,8.84899248 0.16017505,8.4259429 0.183764326,7.85815367 C0.432573179,8.4548292 0.825237944,8.61189368 1.3233197,8.69886072 L1.3233197,8.69886072 L1.3233197,8.69886072 Z" id="Shape"></path>
                            <path d="M0.910081995,8.89343888 C0.567921483,9.00428526 0.0548353985,8.69185097 0.0722373233,8.27242181 C0.256156333,8.71303427 0.542166634,8.82934979 0.910081995,8.89343888 L0.910081995,8.89343888 L0.910081995,8.89343888 Z" id="Shape"></path>
                        </g>
                        <g id="Group-Copy-2" transform="translate(4.057457, 4.040190)"></g>
                    </g>
                </g>
                <g id="Blacklist-Icon-Copy" transform="translate(291.307397, 4.427640)" fill="#FFFFFF">
                    <path d="M6.39005601,2.13436058 C8.23393062,1.05814313 10.246042,0.520034397 12.42639,0.520034397 C14.6074111,0.520034397 16.6188495,1.05814313 18.463397,2.13436058 C20.3065987,3.21057804 21.7668935,4.67019797 22.8442816,6.51322036 C23.9203237,8.35691539 24.4586813,10.3674241 24.4586813,12.5467645 C24.4586813,14.7261048 23.9203237,16.7372862 22.8442816,18.5803086 C21.7668935,20.423331 20.3065987,21.8829509 18.463397,22.9591684 C16.6188495,24.0353858 14.6074111,24.5734946 12.42639,24.5734946 C10.246042,24.5734946 8.23393062,24.0353858 6.39005601,22.9591684 C4.54550845,21.8829509 3.08521359,20.423331 2.00917144,18.5803086 C0.93245634,16.7372862 0.394098789,14.7261048 0.394098789,12.5467645 C0.394098789,10.3674241 0.93245634,8.35691539 2.00917144,6.51322036 C3.08521359,4.67019797 4.54550845,3.21057804 6.39005601,2.13436058 C6.39005601,2.13436058 4.54550845,3.21057804 6.39005601,2.13436058 L6.39005601,2.13436058 L6.39005601,2.13436058 Z M5.32007038,16.8852661 L16.7877591,5.44372926 C15.4418653,4.60966074 13.9882999,4.19262647 12.42639,4.19262647 C10.1249115,4.19262647 8.15654172,5.0098791 6.52128066,6.64438437 C4.8860196,8.27888963 4.06838907,10.2463497 4.06838907,12.5467645 C4.06838907,14.0938271 4.48561617,15.5399943 5.32007038,16.8852661 C5.32007038,16.8852661 4.48561617,15.5399943 5.32007038,16.8852661 L5.32007038,16.8852661 L5.32007038,16.8852661 Z M19.5939479,8.32933732 L8.20768569,19.7103369 C9.5125298,20.5040473 10.9189889,20.9009025 12.42639,20.9009025 C14.7278686,20.9009025 16.6969113,20.0836499 18.3321724,18.4491446 C19.9667605,16.8146393 20.784391,14.8471793 20.784391,12.5467645 C20.784391,11.04006 20.3873523,9.63425099 19.5939479,8.32933732 L19.5939479,8.32933732 Z" id="Fill-92"></path>
                </g>
                <g id="Saved-Messages-Icon-Copy" transform="translate(0.342873, 4.427640)" fill="#FFFFFF">
                    <path d="M19.9466747,4.13847544 L19.9466747,20.314216 C19.9466747,20.5806399 19.8579681,20.8058316 19.6805548,20.9891567 C19.5031415,21.1743848 19.2967507,21.2657301 19.0596083,21.2657301 L16.398409,21.2657301 L16.398409,13.6536169 L3.97947918,13.6536169 L3.97947918,21.2657301 L1.31827993,21.2657301 C1.06990133,21.2657301 0.859962277,21.1743848 0.689054148,20.9891567 C0.516963262,20.8058316 0.431213509,20.5806399 0.431213509,20.314216 L0.431213509,1.28393299 C0.431213509,1.03019589 0.516963262,0.808175919 0.689054148,0.617238746 C0.859962277,0.427570259 1.06990133,0.332418844 1.31827993,0.332418844 L5.75361202,0.332418844 L5.75361202,6.04150374 L14.6242762,6.04150374 L14.6242762,0.332418844 L16.398409,0.332418844 L19.9466747,4.13847544 L19.9466747,4.13847544 L19.9466747,4.13847544 L19.9466747,4.13847544 Z M11.0760105,4.13847544 L12.8501434,4.13847544 L12.8501434,0.332418844 L11.0760105,0.332418844 L11.0760105,0.332418844 L11.0760105,4.13847544 L11.0760105,4.13847544 Z" id="Fill-163"></path>
                </g>
                <g id="Live-Transfer-Icon-Copy" transform="translate(324.105469, 5.165580)" fill="#FFFFFF">
                    <path d="M20.4319633,18.2054181 L20.4319633,20.6100915 L0.280941066,20.6100915 L0.280941066,18.2054181 L6.99794847,13.8837324 L6.99794847,12.2021426 C6.58373301,12.2021426 6.20086359,11.7845479 5.8482207,10.9493583 C5.49501806,10.1141687 5.31869662,9.41070362 5.31869662,8.83896309 L5.31869662,5.47578354 C5.31869662,4.08622985 5.81127716,2.89734588 6.79699799,1.91081321 C7.78215908,0.924280542 8.96827064,0.431014207 10.3564522,0.431014207 C11.7446337,0.431014207 12.931305,0.924280542 13.9164661,1.91081321 C14.9016272,2.89734588 15.3942077,4.08622985 15.3942077,5.47578354 L15.3942077,8.83896309 C15.3942077,9.41070362 15.218446,10.1141687 14.8652434,10.9493583 C14.5126005,11.7845479 14.1297311,12.2021426 13.7149559,12.2021426 L13.7149559,13.8837324 L20.4319633,18.2054181 Z M25.3170596,12.3682633 L25.3170596,8.3803477 C26.1549893,8.39845451 26.9620479,8.48633881 27.7382354,8.64532548 C28.5144229,8.80431215 29.2641495,9.03440119 29.9874152,9.33426772 C30.7106808,9.63457587 31.3589738,10.0430833 31.9322941,10.55979 C32.5056144,11.0764966 32.9466301,11.6749048 33.255341,12.3550144 C33.2024192,11.1891122 33.0216027,10.1358255 32.7124508,9.19515438 C32.4041809,8.25448325 31.9477297,7.40213805 31.3435382,6.63811877 C30.7393468,5.8740995 29.927878,5.2646506 28.9086909,4.80977207 C27.8903858,4.35489354 26.6930283,4.09256554 25.3170596,4.02146317 L25.3170596,0.431014207 L17.3787781,6.43276099 L25.3170596,12.3682633 Z" id="Fill-14"></path>
                </g>
            </g>
        </g>
    </g>
</svg>