<?xml version="1.0" encoding="UTF-8"?>
<svg width="47px" height="45px" viewBox="0 0 47 45" version="1.1" xmlns="http://www.w3.org/2000/svg" xmlns:xlink="http://www.w3.org/1999/xlink">
    <!-- Generator: Sketch 39.1 (31720) - http://www.bohemiancoding.com/sketch -->
    <title>Delivery Rate Icon Copy 2</title>
    <desc>Created with Sketch.</desc>
    <defs></defs>
    <g id="Page-1" stroke="none" stroke-width="1" fill="none" fill-rule="evenodd">
        <g id="time-to-change" transform="translate(-698.000000, -2314.000000)" fill="#FFFFFF">
            <g id="Delivery-Rate-Icon-Copy-2" transform="translate(698.312500, 2314.000000)">
                <path d="M45.9056763,18.7346734 L45.9056763,26.2069643 L38.1913293,26.2069643 C37.5592342,28.7475432 36.0822344,31.0639534 33.7641301,33.1561949 C31.4460258,35.2484363 29.1608564,36.7055331 26.9048216,37.5274851 L26.9048216,44.8876916 L19.3044797,44.8876916 L19.3044797,37.5274851 C15.7576535,36.8549789 13.1228683,35.5784625 11.4001241,33.697936 C9.67737995,31.8174094 8.43599077,29.3216643 7.67722331,26.2069643 L0.303624953,26.2069643 L0.303624953,18.7346734 L7.67722331,18.7346734 C8.05597368,17.2402152 8.51326092,15.9387912 9.04528485,14.8304014 C9.57730878,13.7220116 10.2790737,12.6509832 11.1543797,11.6173163 C12.0271523,10.5836494 13.1418691,9.72433591 14.4972634,9.03937591 C15.8526577,8.35441591 17.4550631,7.85003627 19.3044797,7.526237 L19.3044797,0.0539460707 L26.9048216,0.0539460707 L26.9048216,7.526237 C28.2728831,8.02438973 29.7042808,8.7728642 31.1990147,9.76792428 C32.6950154,10.7642297 34.1200795,12.0781076 35.474207,13.7095577 C36.8296013,15.3410079 37.7353088,17.0160465 38.1913293,18.7346734 L45.9056763,18.7346734 L45.9056763,18.7346734 L45.9056763,18.7346734 L45.9056763,18.7346734 Z M26.9048216,26.2069643 L26.9048216,33.903424 C30.679658,32.7078574 33.2270393,30.1423709 34.5444319,26.2069643 L26.9048216,26.2069643 L26.9048216,18.7346734 L34.5051635,18.7346734 C33.8718016,16.8915083 32.9103584,15.3036465 31.6170335,13.9710879 C30.3262421,12.6397748 28.7542381,11.6858123 26.9048216,11.1129366 L26.9048216,18.7346734 L19.3044797,18.7346734 L19.3044797,11.1502981 C17.4043942,11.7480814 15.7576535,12.7144977 14.3642574,14.0458108 C12.9708614,15.3783694 11.9701498,16.9413236 11.3633891,18.7346734 L19.3044797,18.7346734 L19.3044797,26.2069643 L11.3253874,26.2069643 C11.932148,28.0252218 12.9391933,29.6130836 14.3452566,30.9705498 C15.7525866,32.3292614 17.4043942,33.3056407 19.3044797,33.903424 L19.3044797,26.2069643 L26.9048216,26.2069643 L26.9048216,26.2069643 Z" id="Fill-89"></path>
            </g>
        </g>
    </g>
</svg>