<?xml version="1.0" encoding="UTF-8"?>
<svg width="60px" height="60px" viewBox="0 0 60 60" version="1.1" xmlns="http://www.w3.org/2000/svg" xmlns:xlink="http://www.w3.org/1999/xlink">
    <!-- Generator: Sketch 39.1 (31720) - http://www.bohemiancoding.com/sketch -->
    <title>Earth icon</title>
    <desc>Created with Sketch.</desc>
    <defs>
        <linearGradient x1="50%" y1="0%" x2="50%" y2="100%" id="linearGradient-1">
            <stop stop-color="#48E0FF" offset="0%"></stop>
            <stop stop-color="#23BDFF" offset="100%"></stop>
        </linearGradient>
    </defs>
    <g id="Page-1" stroke="none" stroke-width="1" fill="none" fill-rule="evenodd">
        <g id="time-to-change" transform="translate(-887.000000, -2670.000000)" fill="url(#linearGradient-1)">
            <path d="M933.087414,2720.06158 C928.682681,2723.59829 923.088449,2725.71429 917,2725.71429 C913.563979,2725.71429 910.285362,2725.04036 907.289119,2723.81747 C907.304513,2723.7834 907.309867,2723.74342 907.304042,2723.69699 C907.191123,2722.79686 904.110421,2720.6025 902.817174,2718.99484 C901.523926,2717.38717 902.613665,2717.7424 902.613665,2716.83367 C902.613665,2715.92494 902.217634,2714.52079 901.658378,2713.33217 C901.099121,2712.14355 902.217634,2710.94918 902.217634,2709.79562 C902.217634,2708.64205 900.417446,2707.84947 899.031076,2707.84947 C897.644706,2707.84947 897.347028,2705.29175 896.385463,2704.13243 C895.599556,2703.18489 892.431962,2701.48214 891.300884,2700.89164 C891.290798,2700.59567 891.285714,2700.29843 891.285714,2700 C891.285714,2696.4725 891.996004,2693.1109 893.281363,2690.05041 L894.434082,2689.9564 C894.434082,2689.9564 896.741211,2688.46383 897.329764,2688.46383 C897.918318,2688.46383 899.738124,2689.22084 901.015154,2687.62756 C902.292184,2686.03428 903.586662,2686.32408 904.716762,2683.89561 C905.846862,2681.46715 904.716762,2679.6732 904.716762,2679.6732 L903.898074,2677.86924 C907.735093,2675.59273 912.214912,2674.28571 917,2674.28571 C922.382516,2674.28571 927.378776,2675.93947 931.508388,2678.7666 C930.698356,2679.12669 930.024033,2679.72747 929.674561,2679.96094 C928.920427,2680.46474 926.373692,2681.61281 925.546579,2681.61281 C924.719465,2681.61281 925.429914,2680.40981 924.299892,2679.45714 C923.16987,2678.50446 919.714407,2679.6201 918.109096,2680.40981 C916.503785,2681.19952 915.928571,2683.82996 916.224156,2684.99529 C916.51974,2686.16063 914.547695,2686.39984 914.358573,2685.6015 C914.169451,2684.80316 913.164071,2683.24323 912.830558,2683.02482 C912.497044,2682.8064 911.982779,2683.32629 910.561227,2684.27752 C909.139675,2685.22875 910.285784,2685.91474 911.01559,2685.91474 C911.745396,2685.91474 912.591736,2686.42888 912.591736,2687.09747 C912.591736,2687.76607 911.49925,2687.65529 910.561227,2688.0937 C909.623204,2688.5321 909.394453,2690.86278 910.626753,2691.05072 C911.406396,2691.16963 912.291118,2691.45181 913.08442,2690.94125 C913.545007,2690.64482 914.716322,2690.02908 915.138471,2689.91834 C916.28772,2689.61687 916.718473,2691.35274 918.979631,2691.79164 C921.24079,2692.23055 922.418222,2691.48036 923.303929,2691.1424 C924.189636,2690.80444 925.9001,2691.39446 926.903913,2692.58423 C927.907726,2693.774 929.674561,2697.83962 930.539865,2699.7188 C931.405168,2701.59799 933.633562,2699.55558 933.633562,2699.55558 C933.633562,2699.55558 933.633563,2700 934.297712,2698.75174 C934.961861,2697.50349 934.994037,2696.65152 935.305315,2695.9756 C935.616594,2695.29968 935.794992,2695.87646 937.2805,2696.24922 C938.766008,2696.62197 939.031512,2701.23099 939.771519,2702.32335 C940.199688,2702.95538 941.489031,2703.0979 942.568513,2702.75423 C942.154054,2706.64649 940.871173,2710.27929 938.917361,2713.45512 C937.92349,2712.97618 935.92894,2712.28518 934.723674,2713.69513 C933.069447,2715.6303 934.73623,2715.88037 933.756877,2717.82076 C933.361963,2718.60321 933.145349,2719.39509 933.087414,2720.06158 Z M917,2730 C933.568542,2730 947,2716.56854 947,2700 C947,2683.43146 933.568542,2670 917,2670 C900.431458,2670 887,2683.43146 887,2700 C887,2716.56854 900.431458,2730 917,2730 Z M924.126334,2694.16383 C922.349283,2693.58827 921.337507,2693.94502 919.644828,2694.36459 C917.952149,2694.78416 916.628483,2692.01665 913.940569,2692.01665 C911.252656,2692.01665 909.015745,2693.28636 907.10001,2695.37272 C905.696115,2696.90165 905.384585,2699.01847 905.696115,2701.06913 C906.109671,2703.79138 906.146741,2705.93581 908.650129,2705.93581 C911.153517,2705.93581 914.916521,2704.56383 915.347604,2705.98237 C915.778687,2707.40091 917.64924,2709.06717 916.862409,2711.07166 C916.075579,2713.07614 917.017264,2715.49993 917.445208,2716.14655 C917.873152,2716.79318 918.085554,2718.64621 919.003436,2719.20546 C919.921317,2719.76472 922.796857,2719.33625 923.743513,2718.23239 C924.690168,2717.12852 926.971139,2714.96657 927.390712,2712.80514 C927.810285,2710.64371 927.57748,2709.3298 929.316459,2707.10114 C931.055437,2704.87249 929.677438,2703.47095 929.077375,2702.63206 C928.477312,2701.79318 927.47808,2697.76093 927.47808,2696.90165 C927.47808,2696.04236 925.903385,2694.73938 924.126334,2694.16383 Z" id="Earth-icon"></path>
        </g>
    </g>
</svg>