<?xml version="1.0" encoding="UTF-8"?>
<svg width="39px" height="39px" viewBox="0 0 39 39" version="1.1" xmlns="http://www.w3.org/2000/svg" xmlns:xlink="http://www.w3.org/1999/xlink">
    <!-- Generator: Sketch 39.1 (31720) - http://www.bohemiancoding.com/sketch -->
    <title>Fill 134</title>
    <desc>Created with Sketch.</desc>
    <defs></defs>
    <g id="Page-1" stroke="none" stroke-width="1" fill="none" fill-rule="evenodd">
        <g id="time-to-change" transform="translate(-953.000000, -2187.000000)" fill="#FFFFFF">
            <path d="M957.126992,2195.66481 L953,2199.79096 L953,2187 L965.796875,2187 L961.669883,2191.12508 L968.06832,2197.52056 L963.52543,2202.06029 L957.126992,2195.66481 L957.126992,2195.66481 L957.126992,2195.66481 L957.126992,2195.66481 Z M968.06832,2214.85125 L963.52543,2210.31153 L957.126992,2216.70701 L953,2212.58192 L953,2225.37288 L965.796875,2225.37288 L961.669883,2221.24673 L968.06832,2214.85125 L968.06832,2214.85125 L968.06832,2214.85125 L968.06832,2214.85125 Z M978.59375,2187 L982.720742,2191.12508 L976.322305,2197.52056 L980.865195,2202.06029 L987.263633,2195.66481 L991.390625,2199.79096 L991.390625,2187 L978.59375,2187 L978.59375,2187 L978.59375,2187 L978.59375,2187 Z M980.865195,2210.31153 L976.322305,2214.85125 L982.720742,2221.24673 L978.59375,2225.37288 L991.390625,2225.37288 L991.390625,2212.58192 L987.263633,2216.70701 L980.865195,2210.31153 L980.865195,2210.31153 Z" id="Fill-134"></path>
        </g>
    </g>
</svg>