<?xml version="1.0" encoding="UTF-8"?>
<svg width="68px" height="67px" viewBox="0 0 68 67" version="1.1" xmlns="http://www.w3.org/2000/svg" xmlns:xlink="http://www.w3.org/1999/xlink">
    <!-- Generator: Sketch 39.1 (31720) - http://www.bohemiancoding.com/sketch -->
    <title>Fill 135</title>
    <desc>Created with Sketch.</desc>
    <defs></defs>
    <g id="Page-1" stroke="none" stroke-width="1" fill="none" fill-rule="evenodd">
        <g id="time-to-change" transform="translate(-686.000000, -1911.000000)" fill="#FFFFFF">
            <path d="M703.332929,1915.71104 C708.425955,1912.74133 713.981645,1911.25554 720,1911.25554 C726.020213,1911.25554 731.575903,1912.74133 736.667071,1915.71104 C741.758239,1918.68447 745.790295,1922.71466 748.763239,1927.80347 C751.736184,1932.89229 753.222656,1938.44355 753.222656,1944.46284 C753.222656,1950.48027 751.736184,1956.0334 748.763239,1961.12035 C745.790295,1966.21102 741.758239,1970.24122 736.667071,1973.21093 C731.575903,1976.18436 726.020213,1977.67014 720,1977.67014 C713.981645,1977.67014 708.425955,1976.18436 703.332929,1973.21093 C698.241761,1970.24122 694.209705,1966.21102 691.238619,1961.12035 C688.263816,1956.0334 686.777344,1950.48027 686.777344,1944.46284 C686.777344,1938.44355 688.263816,1932.89229 691.238619,1927.80347 C694.209705,1922.71466 698.241761,1918.68447 703.332929,1915.71104 C703.332929,1915.71104 698.241761,1918.68447 703.332929,1915.71104 L703.332929,1915.71104 L703.332929,1915.71104 Z M736.304743,1928.16378 C731.789584,1923.65256 726.354669,1921.39603 720,1921.39603 C713.645331,1921.39603 708.210416,1923.65256 703.697115,1928.16378 C699.180097,1932.67871 696.922517,1938.11111 696.922517,1944.46284 C696.922517,1950.85172 699.180097,1956.29341 703.697115,1960.78791 C708.210416,1965.28241 713.645331,1967.52966 720,1967.52966 C726.354669,1967.52966 731.789584,1965.28241 736.304743,1960.78791 C740.819903,1956.29341 743.077483,1950.85172 743.077483,1944.46284 C743.077483,1938.11111 740.819903,1932.67871 736.304743,1928.16378 C736.304743,1928.16378 740.819903,1932.67871 736.304743,1928.16378 L736.304743,1928.16378 L736.304743,1928.16378 Z M703.864343,1939.03044 C704.438493,1938.45284 705.153858,1938.16683 706.008579,1938.16683 C706.865159,1938.16683 707.587956,1938.46398 708.182545,1939.0583 C708.777134,1939.65261 709.074428,1940.35836 709.074428,1941.17369 C709.074428,1942.02987 708.777134,1942.75419 708.182545,1943.34665 C707.587956,1943.94096 706.865159,1944.23997 706.008579,1944.23997 C705.19102,1944.23997 704.484945,1943.94096 703.890356,1943.34665 C703.295767,1942.75419 703.000331,1942.02987 703.000331,1941.17369 C703.000331,1940.32122 703.286477,1939.60432 703.864343,1939.03044 C703.864343,1939.03044 703.286477,1939.60432 703.864343,1939.03044 L703.864343,1939.03044 L703.864343,1939.03044 Z M712.142136,1927.24445 C712.957837,1927.24445 713.663912,1927.54346 714.258501,1928.13778 C714.85309,1928.73209 715.150384,1929.45641 715.150384,1930.31074 C715.150384,1931.16506 714.85309,1931.88938 714.258501,1932.48184 C713.663912,1933.07801 712.957837,1933.37517 712.142136,1933.37517 C711.285556,1933.37517 710.560901,1933.06873 709.96817,1932.45584 C709.371723,1931.84295 709.074428,1931.12792 709.074428,1930.31074 C709.074428,1929.49356 709.371723,1928.77666 709.96817,1928.16378 C710.560901,1927.55089 711.285556,1927.24445 712.142136,1927.24445 C712.142136,1927.24445 711.285556,1927.24445 712.142136,1927.24445 L712.142136,1927.24445 L712.142136,1927.24445 Z M726.245042,1931.92653 L726.298926,1931.86895 C725.96447,1931.35079 725.797242,1930.83076 725.797242,1930.31074 C725.797242,1929.49356 726.094536,1928.77666 726.690984,1928.16378 C727.283714,1927.55089 728.00837,1927.24445 728.864949,1927.24445 C729.680651,1927.24445 730.386725,1927.54346 730.981314,1928.13778 C731.575903,1928.73209 731.873198,1929.45641 731.873198,1930.31074 C731.873198,1931.16506 731.575903,1931.88938 730.981314,1932.48184 C730.386725,1933.07801 729.680651,1933.37517 728.864949,1933.37517 C728.340968,1933.37517 727.80398,1933.18759 727.246553,1932.81614 L724.180703,1940.89696 C724.812454,1941.71414 725.130188,1942.66133 725.130188,1943.73852 C725.130188,1945.07573 724.654516,1946.21793 723.70689,1947.16511 C722.761122,1948.1123 721.616539,1948.58404 720.278714,1948.58404 C718.942747,1948.58404 717.800021,1948.1123 716.852395,1947.16511 C715.902911,1946.21793 715.429098,1945.07573 715.429098,1943.73852 C715.429098,1942.54804 715.810006,1941.50056 716.571823,1940.59051 C717.335498,1939.67861 718.290557,1939.13259 719.442573,1938.94686 L726.245042,1931.92653 L726.245042,1931.92653 L726.245042,1931.92653 L726.245042,1931.92653 Z M732.265255,1939.0583 C732.857986,1938.46398 733.582641,1938.16683 734.43922,1938.16683 C735.292084,1938.16683 736.005591,1938.45284 736.583457,1939.03044 C737.161323,1939.60432 737.447469,1940.32122 737.447469,1941.17369 C737.447469,1942.02987 737.150174,1942.75419 736.555585,1943.34665 C735.960996,1943.94096 735.254922,1944.23997 734.43922,1944.23997 C733.582641,1944.23997 732.857986,1943.94096 732.265255,1943.34665 C731.668808,1942.75419 731.371513,1942.02987 731.371513,1941.17369 C731.371513,1940.35836 731.668808,1939.65261 732.265255,1939.0583 L732.265255,1939.0583 Z" id="Fill-135"></path>
        </g>
    </g>
</svg>