<?xml version="1.0" encoding="UTF-8"?>
<svg width="39px" height="43px" viewBox="0 0 39 43" version="1.1" xmlns="http://www.w3.org/2000/svg" xmlns:xlink="http://www.w3.org/1999/xlink">
    <!-- Generator: Sketch 39.1 (31720) - http://www.bohemiancoding.com/sketch -->
    <title>Fill 38</title>
    <desc>Created with Sketch.</desc>
    <defs></defs>
    <g id="Page-1" stroke="none" stroke-width="1" fill="none" fill-rule="evenodd">
        <g id="time-to-change" transform="translate(-702.000000, -2187.000000)" fill="#FFFFFF">
            <path d="M702,2187 L740.390625,2187 L740.390625,2229.06258 L702,2229.06258 L702,2229.06258 L702,2187 L702,2187 Z M705.490057,2225.55737 L736.900568,2225.55737 L736.900568,2194.01043 L705.490057,2194.01043 L705.490057,2194.01043 L705.490057,2225.55737 L705.490057,2225.55737 Z M708.980114,2201.02086 L712.47017,2201.02086 L712.47017,2197.51565 L708.980114,2197.51565 L708.980114,2197.51565 L708.980114,2201.02086 L708.980114,2201.02086 Z M708.980114,2208.03129 L712.47017,2208.03129 L712.47017,2204.52608 L708.980114,2204.52608 L708.980114,2204.52608 L708.980114,2208.03129 L708.980114,2208.03129 Z M708.980114,2215.04172 L712.47017,2215.04172 L712.47017,2211.53651 L708.980114,2211.53651 L708.980114,2211.53651 L708.980114,2215.04172 L708.980114,2215.04172 Z M708.980114,2222.05215 L712.47017,2222.05215 L712.47017,2218.54694 L708.980114,2218.54694 L708.980114,2218.54694 L708.980114,2222.05215 L708.980114,2222.05215 Z M715.960227,2201.02086 L733.410511,2201.02086 L733.410511,2197.51565 L715.960227,2197.51565 L715.960227,2197.51565 L715.960227,2201.02086 L715.960227,2201.02086 Z M715.960227,2208.03129 L733.410511,2208.03129 L733.410511,2204.52608 L715.960227,2204.52608 L715.960227,2204.52608 L715.960227,2208.03129 L715.960227,2208.03129 Z M715.960227,2215.04172 L733.410511,2215.04172 L733.410511,2211.53651 L715.960227,2211.53651 L715.960227,2211.53651 L715.960227,2215.04172 L715.960227,2215.04172 Z M715.960227,2218.54694 L733.410511,2218.54694 L733.410511,2222.05215 L715.960227,2222.05215 L715.960227,2222.05215 L715.960227,2218.54694 L715.960227,2218.54694 Z" id="Fill-38"></path>
        </g>
    </g>
</svg>