<?xml version="1.0" encoding="UTF-8"?>
<svg width="44px" height="50px" viewBox="0 0 44 50" version="1.1" xmlns="http://www.w3.org/2000/svg" xmlns:xlink="http://www.w3.org/1999/xlink">
    <!-- Generator: Sketch 39.1 (31720) - http://www.bohemiancoding.com/sketch -->
    <title>Group Copy 8</title>
    <desc>Created with Sketch.</desc>
    <defs>
        <linearGradient x1="50%" y1="0%" x2="50%" y2="100%" id="linearGradient-1">
            <stop stop-color="#48E0FF" offset="0%"></stop>
            <stop stop-color="#23BDFF" offset="100%"></stop>
        </linearGradient>
    </defs>
    <g id="Page-1" stroke="none" stroke-width="1" fill="none" fill-rule="evenodd">
        <g id="time-to-change" transform="translate(-978.000000, -1627.000000)" fill="url(#linearGradient-1)">
            <g id="Group-Copy-8" transform="translate(978.000000, 1627.000000)">
                <path d="M1.74521535,23.0497282 L4.9489314,22.6532382 C5.93023049,22.5319975 6.82993358,23.2485193 6.9501803,24.2468438 L7.35708659,27.6470456 C7.47625968,28.644278 6.77195749,29.5606831 5.79065841,29.6819239 L2.58694236,30.0784138 C1.60564327,30.1996546 0.705940174,29.4831328 0.58676709,28.4848082 L0.179860796,25.0846064 C0.0596140808,24.0873741 0.763916268,23.1709689 1.74521535,23.0497282 L1.74521535,23.0497282 L1.74521535,23.0497282 Z" id="Shape-Copy-263"></path>
                <path d="M11.0319862,22.2018261 L14.2357022,21.8053361 C15.2170013,21.6840954 16.1167044,22.4006172 16.2358775,23.3989418 L16.6427838,26.7991435 C16.7619569,27.7974681 16.0576547,28.712781 15.0763556,28.8340218 L11.8726396,29.2305117 C10.8913405,29.3517525 9.99163737,28.6352307 9.87246429,27.6369061 L9.46555799,24.2367043 C9.34531128,23.239472 10.0506871,22.3230668 11.0319862,22.2018261 L11.0319862,22.2018261 L11.0319862,22.2018261 Z" id="Shape-Copy-264"></path>
                <path d="M2.59044438,33.2254209 L5.7930868,32.8278387 C6.77438588,32.7076902 7.67408898,33.424212 7.79433569,34.4225366 L8.20124199,37.8205539 C8.32041507,38.821063 7.61611288,39.7363759 6.6348138,39.8576166 L3.43109775,40.2541066 C2.44979867,40.3753473 1.55009557,39.6588255 1.43092249,38.6605009 L1.02401619,35.2602991 C0.903769476,34.2619746 1.60807166,33.3455694 2.59044438,33.2254209 L2.59044438,33.2254209 L2.59044438,33.2254209 Z" id="Shape-Copy-265"></path>
                <path d="M12.7200925,31.5285249 L15.9238085,31.1320349 C16.9051076,31.0118865 17.8048107,31.7284083 17.9239838,32.7256406 L18.3308901,36.1258424 C18.4500632,37.124167 17.745761,38.0394799 16.7644619,38.1607206 L13.5618195,38.5572106 C12.5794468,38.6784513 11.6808173,37.9619295 11.5605706,36.9636049 L11.1536643,33.5644954 C11.0344912,32.5661708 11.7387934,31.6497656 12.7200925,31.5285249 L12.7200925,31.5285249 L12.7200925,31.5285249 Z" id="Shape-Copy-266"></path>
                <path d="M22.8499626,30.680847 L26.0536787,30.2843571 C27.0349778,30.1631163 27.9346809,30.8796381 28.0538539,31.8779627 L28.4607602,35.2781645 C28.5810069,36.2764891 27.8756311,37.191802 26.894332,37.3130428 L23.6916896,37.7095327 C22.7103905,37.8307734 21.8106874,37.1142516 21.6904407,36.1159271 L21.2835344,32.7157253 C21.1643613,31.7174007 21.8686635,30.8020878 22.8499626,30.680847 L22.8499626,30.680847 L22.8499626,30.680847 Z" id="Shape-Copy-267"></path>
                <path d="M3.43458358,42.5514764 L6.63829963,42.1549864 C7.61959872,42.0337457 8.51930181,42.7502675 8.6384749,43.7485921 L9.04538119,47.1487939 C9.16455428,48.1471185 8.46025209,49.0624314 7.478953,49.1836721 L4.27523696,49.5801621 C3.29393787,49.7014028 2.39423477,48.984881 2.27506169,47.9865564 L1.86815539,44.5863546 C1.74790868,43.5880301 2.4532845,42.6727171 3.43458358,42.5514764 L3.43458358,42.5514764 L3.43458358,42.5514764 Z" id="Shape-Copy-268"></path>
                <path d="M13.5642483,41.7035401 L16.7679644,41.3070501 C17.7492635,41.1858094 18.6489666,41.9045157 18.7681396,42.9028403 L19.1750459,46.3008576 C19.294219,47.2991822 18.5899168,48.2166796 17.6086178,48.3357358 L14.4059753,48.7322258 C13.4246763,48.8534665 12.5249732,48.1369447 12.4047264,47.1386201 L11.9978201,43.7406029 C11.8786471,42.7422783 12.5829493,41.8247808 13.5642483,41.7035401 L13.5642483,41.7035401 L13.5642483,41.7035401 Z" id="Shape-Copy-269"></path>
                <path d="M23.6949551,40.0077701 L26.8986712,39.6112801 C27.8799702,39.4900394 28.7796733,40.2065612 28.8988464,41.2048858 L29.3057527,44.6050876 C29.4249258,45.6034122 28.7206236,46.5187251 27.7393245,46.6399658 L24.5356085,47.0364558 C23.5543094,47.1576965 22.6546063,46.4411747 22.5343596,45.4428501 L22.1274533,42.0426483 C22.0093538,41.0443238 22.7147297,40.1301031 23.6949551,40.0077701 L23.6949551,40.0077701 L23.6949551,40.0077701 Z" id="Shape-Copy-270"></path>
                <path d="M20.4702609,24.4076248 C19.5861271,21.926118 19.1435365,19.1493134 19.3294284,17.1225393 C19.5089254,14.3138986 20.8948574,13.0690633 22.580355,14.3896773 C23.5784838,15.0794933 24.5449507,16.7208973 25.4200203,18.3817434 C26.6290138,19.0302778 27.8146149,19.5082534 29.0183523,20.1105175 C28.1441759,17.389731 28.2109027,14.5873219 29.1420919,13.8035926 C28.1015331,10.9573975 28.0830582,7.78636425 29.0979672,6.99208279 C27.8701615,3.71348464 28.0658534,-0.13223834 29.6002658,0.0504844223 C30.8547456,0.42645315 32.1857988,1.24517334 33.4692521,1.77869401 C35.0709007,2.45293801 36.8512675,4.21867868 38.4457617,6.86325929 C40.3291644,9.91938716 41.9490513,14.0398089 42.8832756,18.1151568 C44.0630241,23.0632839 44.2319751,27.9318171 43.3368492,31.012806 C42.5152855,34.0033811 40.6855132,35.2202558 38.4908161,34.2130697 C34.6120795,32.3770395 30.7364198,30.5518444 26.8586636,28.7225325 C26.4402399,30.0578195 25.6430817,30.7452537 24.6262312,30.3781644 C23.2108967,29.904418 21.5002068,27.4271043 20.4702609,24.4076248 L20.4702609,24.4076248 L20.4702609,24.4076248 Z M24.5145158,24.132855 C24.7805417,24.8555864 25.1648676,25.5249479 25.4998896,25.6460063 L38.4288308,32.4277529 C40.3700229,33.339675 41.7849736,31.58509 42.0671493,28.1853619 C42.3394776,25.3302467 41.8165204,21.3745463 40.6959737,17.6035281 C39.5205717,13.6306015 37.6675756,9.87936496 35.808273,7.89261584 C34.3695052,6.36337507 33.064456,6.06761806 31.7089169,5.25938522 C31.2408951,5.08071295 30.6517327,4.48615352 30.3269758,4.89899575 C29.9452208,5.3305394 30.1966713,7.10569524 30.7633651,8.14712385 C31.1808749,9.01917599 31.6789416,8.89467586 32.0679576,9.89757943 C32.5148644,10.930849 32.4219979,12.1700153 31.958208,12.0269747 C31.5653699,11.8847019 31.1430601,11.57206 30.7533399,11.4496473 C30.1723666,11.4364987 30.2098506,13.2543304 30.8115857,14.5449858 C31.165491,15.4110119 31.6021197,15.6066291 31.9951201,16.0709567 C32.5451049,16.8758121 32.7586998,18.5399877 32.334852,18.7034186 C31.8611244,18.7313374 31.2209682,17.9854943 30.7947486,18.2205798 C30.389758,18.521475 30.4514959,19.9905724 30.9664656,21.1537046 C31.3442008,22.1628408 31.8252064,22.2420128 32.2534668,22.8615209 C32.749646,23.7140894 32.91811,25.2209442 32.5318914,25.4071506 C32.3207444,25.4330808 32.0655778,25.2567114 31.8257027,25.1430371 C29.4995316,23.9046427 27.1775177,22.6927285 24.8564686,21.4782829 C24.1547252,21.0342541 23.964353,22.6414427 24.5145158,24.132855 L24.5145158,24.132855 L24.5145158,24.132855 Z" id="Shape-Copy-278"></path>
            </g>
        </g>
    </g>
</svg>