<?xml version="1.0" encoding="UTF-8"?>
<svg width="48px" height="52px" viewBox="0 0 48 52" version="1.1" xmlns="http://www.w3.org/2000/svg" xmlns:xlink="http://www.w3.org/1999/xlink">
    <!-- Generator: Sketch 39.1 (31720) - http://www.bohemiancoding.com/sketch -->
    <title>Icons/User</title>
    <desc>Created with Sketch.</desc>
    <defs></defs>
    <g id="Page-1" stroke="none" stroke-width="1" fill="none" fill-rule="evenodd">
        <g id="time-to-change" transform="translate(-443.000000, -2185.000000)" fill="#FFFFFF">
            <g id="Icons/User" transform="translate(442.000000, 2185.000000)">
                <path d="M28.6827611,9.54213327 C30.6525374,10.2237176 31.6374108,10.8011624 31.6374108,11.2744848 L31.6374108,12.7796428 L24.8301297,12.7796428 L18.0228487,12.7796428 L18.0228487,11.2744848 C18.0228487,10.8011624 19.0077221,10.2237176 20.9774984,9.54213327 C21.8851404,9.22027399 22.5031001,8.89368639 22.8313962,8.56236066 C23.1596922,8.23103493 23.3238378,7.78138533 23.3238378,7.21339837 C23.3238378,7.00513648 23.2176259,6.77321195 23.0051991,6.51761781 C22.7927722,6.26202368 22.6382823,5.91650346 22.5417246,5.48104679 C22.5224131,5.3674494 22.4789628,5.28225263 22.4113724,5.22545393 C22.3437821,5.16865524 22.2761927,5.13079001 22.2086024,5.11185711 C22.141012,5.09292421 22.0734227,5.0124606 22.0058323,4.87046386 C21.9382419,4.72846712 21.8947916,4.52494151 21.8754801,4.25988092 C21.8754801,4.10841773 21.8996192,3.98535574 21.947898,3.89069124 C21.9961768,3.79602675 22.0396271,3.73922891 22.0782502,3.72029601 L22.1361845,3.6634976 C22.0589384,3.19017513 22.0010046,2.7736576 21.9623816,2.41393252 C21.9237585,1.90274426 22.1216987,1.37263104 22.5562082,0.823576979 C22.9907177,0.274522914 23.748684,-1.14698921e-14 24.8301297,-1.14698921e-14 C25.9115755,-1.14698921e-14 26.6743696,0.274522914 27.1185349,0.823576979 C27.5627001,1.37263104 27.7558125,1.90274426 27.6978779,2.41393252 L27.524075,3.6634976 C27.6978788,3.73922919 27.7847794,3.93802165 27.7847794,4.25988092 C27.7654678,4.52494151 27.7220176,4.72846712 27.6544272,4.87046386 C27.5868368,5.0124606 27.5192475,5.09292421 27.4516571,5.11185711 C27.3840668,5.13079001 27.3164774,5.16865524 27.248887,5.22545393 C27.1812967,5.28225263 27.1378464,5.3674494 27.1185349,5.48104679 C27.0412887,5.93543636 26.8916266,6.28568973 26.669544,6.53181742 C26.4474614,6.7779451 26.3364217,7.00513648 26.3364217,7.21339837 C26.3364217,7.78138533 26.5053951,8.23103493 26.8433469,8.56236066 C27.1812987,8.89368639 27.7944307,9.22027399 28.6827611,9.54213327 Z M41.8063717,20.8871861 C42.2009905,22.9338545 42.1933454,24.0755023 41.7834361,24.3121635 L40.4799311,25.0647425 L37.0762906,19.1694642 L33.6726501,13.2741859 L34.9761551,12.5216069 C35.3860643,12.2849457 36.3785828,12.8491486 37.9537403,14.2142328 C38.6862997,14.8393442 39.2781127,15.2112192 39.7291972,15.3298691 C40.1802817,15.4485189 40.6517625,15.3658483 41.1436536,15.0818548 C41.3240137,14.9777239 41.4717603,14.7697795 41.5868979,14.4580154 C41.7020355,14.1462513 41.9240198,13.8396989 42.2528575,13.5383492 C42.34158,13.4648262 42.3936374,13.3845988 42.4090314,13.2976645 C42.4244253,13.2107302 42.4234229,13.1332634 42.4060241,13.065262 C42.3886252,12.9972606 42.4245141,12.8984947 42.5136917,12.7689614 C42.6028693,12.639428 42.7574025,12.5000362 42.9772959,12.3507816 C43.1084669,12.27505 43.2271113,12.234424 43.3332325,12.2289025 C43.4393538,12.2233809 43.5102673,12.2326111 43.5459752,12.2565932 L43.6241312,12.2783665 C43.9954175,11.9748082 44.3271654,11.7163774 44.6193849,11.5030663 C45.0427754,11.2140236 45.600837,11.1203882 46.2935865,11.2221575 C46.986336,11.3239267 47.603063,11.8430832 48.1437859,12.7796428 C48.6845088,13.7162023 48.828162,14.5140628 48.5747498,15.1732482 C48.3213377,15.8324336 47.9588024,16.2647305 47.4871331,16.4701518 L46.3180765,16.9444166 C46.3393929,17.1328009 46.2106839,17.3074552 45.9319456,17.4683849 C45.6927406,17.5841909 45.4947571,17.6483246 45.3379892,17.660788 C45.1812212,17.6732514 45.077743,17.6549492 45.0275514,17.6058806 C44.9773599,17.5568121 44.910773,17.5172106 44.8277887,17.487075 C44.7448044,17.4569394 44.6492966,17.4619087 44.5412627,17.5019831 C44.1091267,17.6622808 43.7309673,17.7077963 43.4067732,17.6385309 C43.082579,17.5692656 42.8303057,17.5866981 42.6499456,17.6908291 C42.1580545,17.9748226 41.8531332,18.3459826 41.7351726,18.8043203 C41.617212,19.262658 41.6409448,19.9569397 41.8063717,20.8871861 Z M37.9537403,36.9043383 C36.3785828,38.2694225 35.3860643,38.8336254 34.9761551,38.5969642 L33.6726501,37.8443852 L37.0762906,31.9491069 L40.4799311,26.0538286 L41.7834361,26.8064076 C42.1933454,27.0430688 42.2009905,28.1847166 41.8063717,30.231385 C41.631289,31.1783557 41.6051423,31.8768184 41.7279308,32.3267939 C41.8507193,32.7767695 42.1580545,33.1437485 42.6499456,33.427742 C42.8303057,33.531873 43.0842641,33.5558531 43.4118286,33.4996831 C43.739393,33.4435131 44.1158673,33.482481 44.5412627,33.616588 C44.6492966,33.6566624 44.7448044,33.6616317 44.8277887,33.6314961 C44.910773,33.6013605 44.9773599,33.561759 45.0275514,33.5126905 C45.077743,33.4636219 45.1812212,33.4453197 45.3379892,33.4577831 C45.4947571,33.4702465 45.6927406,33.5343802 45.9319456,33.6501862 C46.0631165,33.7259178 46.1576218,33.8083538 46.2154643,33.8974968 C46.2733067,33.9866397 46.3007699,34.0526677 46.2978548,34.0955827 L46.3180765,34.1741545 C46.7666088,34.3439186 47.1562905,34.5020053 47.4871331,34.6484193 C47.9491466,34.8705649 48.309268,35.3070427 48.567508,35.957866 C48.8257481,36.6086893 48.6845088,37.4023688 48.1437859,38.3389283 C47.603063,39.2754879 46.9839221,39.7988254 46.2863447,39.9089568 C45.5887673,40.0190881 45.0331196,39.9212718 44.6193849,39.6155048 L43.6241312,38.8402046 C43.4716439,38.9528573 43.2560343,38.9287191 42.9772959,38.7677895 C42.7574025,38.6185349 42.6028693,38.4791431 42.5136917,38.3496097 C42.4245141,38.2200764 42.3886252,38.1213105 42.4060241,38.0533091 C42.4234229,37.9853076 42.4244253,37.9078409 42.4090314,37.8209066 C42.3936374,37.7339723 42.34158,37.6537449 42.2528575,37.5802219 C41.8979677,37.28613 41.6694704,36.9813921 41.5673589,36.6659991 C41.4652474,36.350606 41.3240137,36.1408472 41.1436536,36.0367163 C40.6517625,35.7527228 40.1778678,35.6742332 39.7219554,35.8012452 C39.266043,35.9282572 38.6766439,36.2959512 37.9537403,36.9043383 Z M20.9774984,41.5764378 C19.0077221,40.8948535 18.0228487,40.3174087 18.0228487,39.8440863 L18.0228487,38.3389283 L24.8301297,38.3389283 L31.6374108,38.3389283 L31.6374108,39.8440863 C31.6374108,40.3174087 30.6525374,40.8948535 28.6827611,41.5764378 C27.7751191,41.8982971 27.1571594,42.2248847 26.8288633,42.5562104 C26.5005673,42.8875362 26.3364217,43.3371858 26.3364217,43.9051727 C26.3364217,44.1134346 26.4426335,44.3453591 26.6550604,44.6009533 C26.8674873,44.8565474 27.0219772,45.2020676 27.1185349,45.6375243 C27.1378464,45.7511217 27.1812967,45.8363185 27.248887,45.8931172 C27.3164774,45.9499159 27.3840668,45.9877811 27.4516571,46.006714 C27.5192475,46.0256469 27.5868368,46.1061105 27.6544272,46.2481072 C27.7220176,46.390104 27.7654678,46.5936296 27.7847794,46.8586902 C27.7847794,47.0101534 27.7606403,47.1332154 27.7123615,47.2278799 C27.6640827,47.3225443 27.6206324,47.3793422 27.5820093,47.3982751 L27.524075,47.4550735 C27.6013211,47.928396 27.6592549,48.3449135 27.6978779,48.7046386 C27.736501,49.2158268 27.5385607,49.7459401 27.1040513,50.2949941 C26.6695418,50.8440482 25.9115755,51.1185711 24.8301297,51.1185711 C23.748684,51.1185711 22.9858899,50.8440482 22.5417246,50.2949941 C22.0975594,49.7459401 21.904447,49.2158268 21.9623816,48.7046386 L22.1361845,47.4550735 C21.9623807,47.3793419 21.8754801,47.1805495 21.8754801,46.8586902 C21.8947916,46.5936296 21.9382419,46.390104 22.0058323,46.2481072 C22.0734227,46.1061105 22.141012,46.0256469 22.2086024,46.006714 C22.2761927,45.9877811 22.3437821,45.9499159 22.4113724,45.8931172 C22.4789628,45.8363185 22.5224131,45.7511217 22.5417246,45.6375243 C22.6189708,45.1831347 22.7686329,44.8328814 22.9907155,44.5867537 C23.2127981,44.340626 23.3238378,44.1134346 23.3238378,43.9051727 C23.3238378,43.3371858 23.1548644,42.8875362 22.8169126,42.5562104 C22.4789608,42.2248847 21.8658288,41.8982971 20.9774984,41.5764378 Z M7.85388776,30.231385 C7.45926899,28.1847166 7.46691413,27.0430688 7.87682342,26.8064076 L9.18032842,26.0538286 L12.5839689,31.9491069 L15.9876094,37.8443852 L14.6841044,38.5969642 C14.2741952,38.8336254 13.2816766,38.2694225 11.7065191,36.9043383 C10.9739598,36.2792269 10.3821468,35.9073519 9.93106227,35.788702 C9.47997775,35.6700522 9.00849699,35.7527228 8.51660585,36.0367163 C8.33624577,36.1408472 8.18849915,36.3487916 8.07336156,36.6605557 C7.95822398,36.9723198 7.73623966,37.2788722 7.40740195,37.5802219 C7.31867949,37.6537449 7.26662207,37.7339723 7.25122814,37.8209066 C7.2358342,37.9078409 7.23683663,37.9853076 7.25423544,38.0533091 C7.27163425,38.1213105 7.23574539,38.2200764 7.14656778,38.3496097 C7.05739018,38.4791431 6.90285698,38.6185349 6.68296355,38.7677895 C6.55179258,38.8435211 6.43314824,38.8841471 6.32702696,38.8896686 C6.22090569,38.8951902 6.14999217,38.88596 6.11428427,38.8619779 L6.03612824,38.8402046 C5.66484203,39.1437629 5.33309413,39.4021937 5.04087461,39.6155048 C4.61748412,39.9045475 4.05942249,39.9981829 3.36667298,39.8964136 C2.67392348,39.7946444 2.05719653,39.2754879 1.51647363,38.3389283 C0.975750735,37.4023688 0.832097516,36.6045083 1.08550966,35.9453229 C1.33892181,35.2861375 1.70145711,34.8538406 2.17312644,34.6484193 L3.34218299,34.1741545 C3.32086658,33.9857702 3.4495756,33.8111159 3.72831391,33.6501862 C3.96751888,33.5343802 4.16550237,33.4702465 4.32227034,33.4577831 C4.47903831,33.4453197 4.58251651,33.4636219 4.63270807,33.5126905 C4.68289962,33.561759 4.74948654,33.6013605 4.83247084,33.6314961 C4.91545513,33.6616317 5.01096284,33.6566624 5.11899684,33.616588 C5.55113281,33.4562903 5.9292922,33.4107748 6.25348633,33.4800402 C6.57768047,33.5493055 6.8299538,33.531873 7.01031388,33.427742 C7.50220502,33.1437485 7.80712631,32.7725885 7.9250869,32.3142508 C8.0430475,31.8559131 8.01931469,31.1616314 7.85388776,30.231385 Z M11.7065191,14.2142328 C13.2816766,12.8491486 14.2741952,12.2849457 14.6841044,12.5216069 L15.9876094,13.2741859 L12.5839689,19.1694642 L9.18032842,25.0647425 L7.87682342,24.3121635 C7.46691413,24.0755023 7.45926899,22.9338545 7.85388776,20.8871861 C8.02897045,19.9402154 8.05511717,19.2417527 7.93232869,18.7917772 C7.80954022,18.3418016 7.50220502,17.9748226 7.01031388,17.6908291 C6.8299538,17.5866981 6.57599534,17.562718 6.24843091,17.618888 C5.92086647,17.675058 5.54439221,17.6360901 5.11899684,17.5019831 C5.01096284,17.4619087 4.91545513,17.4569394 4.83247084,17.487075 C4.74948654,17.5172106 4.68289962,17.5568121 4.63270807,17.6058806 C4.58251651,17.6549492 4.47903831,17.6732514 4.32227034,17.660788 C4.16550237,17.6483246 3.96751888,17.5841909 3.72831391,17.4683849 C3.59714294,17.3926533 3.50263766,17.3102173 3.44479521,17.2210743 C3.38695277,17.1319314 3.35948954,17.0659034 3.36240471,17.0229884 L3.34218299,16.9444166 C2.89365064,16.7746525 2.50396902,16.6165658 2.17312644,16.4701518 C1.71111288,16.2480062 1.35099149,15.8115283 1.09275145,15.1607051 C0.834511421,14.5098818 0.975750735,13.7162023 1.51647363,12.7796428 C2.05719653,11.8430832 2.67633739,11.3197457 3.37391477,11.2096143 C4.07149216,11.099483 4.62713988,11.1972993 5.04087461,11.5030663 L6.03612824,12.2783665 C6.18861562,12.1657138 6.40422524,12.189852 6.68296355,12.3507816 C6.90285698,12.5000362 7.05739018,12.639428 7.14656778,12.7689614 C7.23574539,12.8984947 7.27163425,12.9972606 7.25423544,13.065262 C7.23683663,13.1332634 7.2358342,13.2107302 7.25122814,13.2976645 C7.26662207,13.3845988 7.31867949,13.4648262 7.40740195,13.5383492 C7.76229179,13.8324411 7.99078905,14.137179 8.09290057,14.452572 C8.19501208,14.7679651 8.33624577,14.9777239 8.51660585,15.0818548 C9.00849699,15.3658483 9.48239165,15.4443379 9.93830406,15.3173259 C10.3942165,15.1903139 10.9836156,14.8226199 11.7065191,14.2142328 Z" id="user"></path>
            </g>
        </g>
    </g>
</svg>