<?xml version="1.0" encoding="UTF-8"?>
<svg width="188px" height="65px" viewBox="0 0 188 65" version="1.1" xmlns="http://www.w3.org/2000/svg" xmlns:xlink="http://www.w3.org/1999/xlink">
    <!-- Generator: Sketch 39.1 (31720) - http://www.bohemiancoding.com/sketch -->
    <title>App Store Icon</title>
    <desc>Created with Sketch.</desc>
    <defs></defs>
    <g id="Page-1" stroke="none" stroke-width="1" fill="none" fill-rule="evenodd">
        <g id="time-to-change" transform="translate(-523.000000, -2528.000000)">
            <g id="Group-2" transform="translate(265.000000, 82.000000)">
                <g id="fully-professional-dashboard" transform="translate(77.000000, 1799.000000)">
                    <g id="App-Store-Icon-+-Android-Icon" transform="translate(181.000000, 647.744459)">
                        <g id="App-Store-Icon">
                            <rect id="background" fill="#000000" x="0" y="0" width="188" height="64" rx="7"></rect>
                            <path d="M41.1564415,30.5349414 C41.1154798,25.9569738 44.8839546,23.7297777 45.0562762,23.6260881 C42.9220313,20.4969343 39.6140223,20.0693922 38.4515579,20.0353024 C35.6732259,19.7412784 32.9782296,21.7071199 31.5629328,21.7071199 C30.1193866,21.7071199 27.9399426,20.0637105 25.591002,20.1120043 C22.5683123,20.1588777 19.7405437,21.9187604 18.1896496,24.651621 C14.9889884,30.2238726 17.3760658,38.4125115 20.4425422,42.916618 C21.9764866,45.1239285 23.7689133,47.5854916 26.115029,47.4988468 C28.4102957,47.4051 29.2676661,46.0273065 32.0375234,46.0273065 C34.7819561,46.0273065 35.5870651,47.4988468 37.9797923,47.4420306 C40.4431432,47.4051 41.9940373,45.2276181 43.4743078,43.0004219 C45.2469599,40.4749406 45.9588457,37.9821286 45.9870951,37.8542921 C45.9305963,37.8358268 41.2044655,36.0219687 41.1564415,30.5349414" id="Fill-2" fill="#FFFFFF"></path>
                            <path d="M36.6365316,17.0723361 C37.871032,15.5198327 38.7156902,13.4076894 38.4812198,11.2642972 C36.694443,11.3438399 34.4599126,12.5071522 33.1731507,14.0255659 C32.0346984,15.363588 31.0177187,17.5566945 31.2804385,19.6191235 C33.2875609,19.7696866 35.3483573,18.6006927 36.6365316,17.0723361" id="Fill-3" fill="#FFFFFF"></path>
                            <path d="M74.4017908,47.1820963 L71.1940673,47.1820963 L69.4369524,41.6297304 L63.3294242,41.6297304 L61.6556451,47.1820963 L58.5326699,47.1820963 L64.5851117,28.2793372 L68.3225121,28.2793372 L74.4017908,47.1820963 L74.4017908,47.1820963 Z M68.9072754,39.3002651 L67.3182446,34.3657756 C67.1501605,33.8601112 66.8337668,32.672652 66.370476,30.8033981 L66.3139772,30.8033981 C66.1275309,31.6073477 65.8294993,32.7948069 65.421295,34.3657756 L63.8591011,39.3002651 L68.9072754,39.3002651 L68.9072754,39.3002651 Z" id="Fill-4" fill="#FFFFFF"></path>
                            <path d="M89.936156,40.1993819 C89.936156,42.517484 89.310431,44.3498074 88.0575685,45.6949316 C86.9360658,46.8923336 85.5419561,47.4903244 83.8794768,47.4903244 C82.0842251,47.4903244 80.7932259,46.8468806 80.009304,45.5557318 L80.009304,52.7074746 L76.9979141,52.7074746 L76.9979141,38.0318428 C76.9979141,36.5759269 76.9597773,35.0830805 76.8863288,33.5518832 L79.5347135,33.5518832 L79.7027976,35.7137406 L79.7592965,35.7137406 C80.7635639,34.0845353 82.287621,33.2706428 84.3328803,33.2706428 C85.9317984,33.2706428 87.2665842,33.9055642 88.3344129,35.1768273 C89.4008292,36.4509312 89.936156,38.1241691 89.936156,40.1993819 L89.936156,40.1993819 Z M86.8682672,40.3101735 C86.8682672,38.9835146 86.5716481,37.8898022 85.975585,37.0290363 C85.3244355,36.1327603 84.4501154,35.6824917 83.3540373,35.6824917 C82.6110771,35.6824917 81.9359156,35.9324831 81.3327901,36.4267843 C80.7282522,36.9225059 80.33276,37.5716313 80.1477262,38.3770014 C80.0545031,38.7505681 80.0078915,39.0559553 80.0078915,39.2974243 L80.0078915,41.5729142 C80.0078915,42.5615166 80.3101605,43.3981355 80.9146984,44.0827711 C81.5192364,44.7645658 82.3045707,45.1068836 83.2707014,45.1068836 C84.4049163,45.1068836 85.2877112,44.6651374 85.9190861,43.7887471 C86.5518735,42.909516 86.8682672,41.7504649 86.8682672,40.3101735 L86.8682672,40.3101735 Z" id="Fill-5" fill="#FFFFFF"></path>
                            <path d="M105.525608,40.1993819 C105.525608,42.517484 104.899883,44.3498074 103.64702,45.6949316 C102.524105,46.8923336 101.131408,47.4903244 99.4675159,47.4903244 C97.6736766,47.4903244 96.3826774,46.8468806 95.5973431,45.5557318 L95.5973431,52.7074746 L92.5859531,52.7074746 L92.5859531,38.0318428 C92.5859531,36.5759269 92.5478164,35.0830805 92.4743679,33.5518832 L95.1227525,33.5518832 L95.2908367,35.7137406 L95.3473355,35.7137406 C96.3501905,34.0845353 97.8742476,33.2706428 99.9209193,33.2706428 C101.518425,33.2706428 102.854623,33.9055642 103.923864,35.1768273 C104.988868,36.4509312 105.525608,38.1241691 105.525608,40.1993819 L105.525608,40.1993819 Z M102.456306,40.3101735 C102.456306,38.9835146 102.158275,37.8898022 101.562212,37.0290363 C100.912475,36.1327603 100.039567,35.6824917 98.9434888,35.6824917 C98.2005286,35.6824917 97.5253671,35.9324831 96.9194167,36.4267843 C96.3162912,36.9225059 95.9207991,37.5716313 95.7357653,38.3770014 C95.6439546,38.7505681 95.5945181,39.0559553 95.5945181,39.2974243 L95.5945181,41.5729142 C95.5945181,42.5615166 95.8981996,43.3981355 96.4999126,44.0827711 C97.1044505,44.7631454 97.8897848,45.1068836 98.8587405,45.1068836 C99.9943679,45.1068836 100.877163,44.6651374 101.507125,43.7887471 C102.139913,42.909516 102.456306,41.7504649 102.456306,40.3101735 L102.456306,40.3101735 Z" id="Fill-6" fill="#FFFFFF"></path>
                            <path d="M122.95551,41.8811422 C122.95551,43.4890415 122.397583,44.7972352 121.284556,45.8071436 C120.061355,46.9093785 118.353677,47.4619163 116.164345,47.4619163 C114.141686,47.4619163 112.520168,47.0698843 111.296967,46.2843999 L111.993316,43.760339 C113.313977,44.5458234 114.764586,44.9392757 116.343729,44.9392757 C117.479357,44.9392757 118.362151,44.6807619 118.992114,44.1679954 C119.624901,43.6523882 119.942707,42.9663322 119.942707,42.1084072 C119.942707,41.3399677 119.679988,40.6951035 119.160198,40.1709738 C118.638996,39.6496849 117.777388,39.1610653 116.568312,38.7150579 C113.277253,37.4807253 111.630311,35.6739693 111.630311,33.3004713 C111.630311,31.7493883 112.212249,30.4795456 113.371889,29.486682 C114.53294,28.4952388 116.072535,27.9995172 117.987846,27.9995172 C119.69835,27.9995172 121.123534,28.2992228 122.254924,28.8972136 L121.499251,31.3658788 C120.434248,30.7863532 119.232234,30.4965905 117.887561,30.4965905 C116.825382,30.4965905 115.990611,30.7593655 115.395961,31.2820748 C114.894533,31.7493883 114.638876,32.318971 114.638876,32.9950841 C114.638876,33.7407971 114.928432,34.360094 115.506133,34.8444524 C116.006148,35.2933006 116.918605,35.7804997 118.237854,36.303209 C119.856547,36.9594365 121.044435,37.7236147 121.80717,38.6014255 C122.574142,39.4792362 122.95551,40.574369 122.95551,41.8811422" id="Fill-7" fill="#FFFFFF"></path>
                            <path d="M132.937448,35.8245323 L129.618139,35.8245323 L129.618139,42.4422025 C129.618139,44.1253833 130.202903,44.964843 131.375254,44.964843 C131.913406,44.964843 132.359747,44.9193901 132.712865,44.8242229 L132.796201,47.1238597 C132.202963,47.3468634 131.421866,47.4590755 130.455735,47.4590755 C129.265021,47.4590755 128.337028,47.0926108 127.664691,46.3639427 C126.995179,45.6338541 126.660423,44.4108848 126.660423,42.6893531 L126.660423,35.8188507 L124.684375,35.8188507 L124.684375,33.5462015 L126.660423,33.5462015 L126.660423,31.0505487 L129.618139,30.1528523 L129.618139,33.5462015 L132.937448,33.5462015 L132.937448,35.8245323" id="Fill-8" fill="#FFFFFF"></path>
                            <path d="M147.884225,40.2547777 C147.884225,42.3498761 147.289574,44.0699874 146.098861,45.4151116 C144.854473,46.7985868 143.199056,47.4903244 141.135435,47.4903244 C139.143849,47.4903244 137.560469,46.8269949 136.379642,45.500336 C135.198816,44.1736771 134.608402,42.5004391 134.608402,40.4820426 C134.608402,38.3698993 135.220003,36.6398452 136.434728,35.294721 C137.652279,33.9495968 139.293571,33.274904 141.357193,33.274904 C143.347366,33.274904 144.943459,33.9410743 146.153947,35.2663128 C147.309349,36.5546208 147.884225,38.2150751 147.884225,40.2547777 L147.884225,40.2547777 Z M144.762662,40.3243776 C144.762662,39.075841 144.494293,38.0048551 143.956141,37.1085791 C143.324766,36.0262299 142.419372,35.4864757 141.249845,35.4864757 C140.045006,35.4864757 139.117012,36.0262299 138.488463,37.1085791 C137.947486,38.0048551 137.680529,39.0943062 137.680529,40.3811938 C137.680529,41.6311508 137.947486,42.7049776 138.488463,43.5969923 C139.139612,44.6807619 140.047831,45.2219365 141.225833,45.2219365 C142.375585,45.2219365 143.278154,44.6679782 143.932129,43.571425 C144.484405,42.6538429 144.762662,41.575755 144.762662,40.3243776 L144.762662,40.3243776 Z" id="Fill-9" fill="#FFFFFF"></path>
                            <path d="M157.676892,36.2151439 C157.378861,36.159748 157.059642,36.1327603 156.727711,36.1327603 C155.668357,36.1327603 154.849124,36.5318943 154.272835,37.3386848 C153.771408,38.0488876 153.5214,38.946584 153.5214,40.0303536 L153.5214,47.1820963 L150.51001,47.1820963 L150.51001,37.8443492 C150.51001,36.2748009 150.480348,34.8416115 150.422437,33.5533036 L153.045397,33.5533036 L153.15557,36.1611684 L153.238906,36.1611684 C153.558124,35.2648924 154.058139,34.5419059 154.744601,34.0021518 C155.416937,33.5135322 156.140123,33.2706428 156.92122,33.2706428 C157.199477,33.2706428 157.450897,33.2919489 157.674067,33.3260386 L157.676892,36.2151439" id="Fill-10" fill="#FFFFFF"></path>
                            <path d="M171.144811,39.7221256 C171.144811,40.2647205 171.109499,40.7220912 171.034638,41.0956579 L162.001881,41.0956579 C162.034368,42.4422025 162.473647,43.473417 163.311242,44.1836199 C164.072565,44.8171208 165.05847,45.1352917 166.266133,45.1352917 C167.603744,45.1352917 168.82412,44.9222309 169.921611,44.4904275 L170.393376,46.592628 C169.110852,47.1536882 167.595269,47.4349286 165.849454,47.4349286 C163.747696,47.4349286 162.097929,46.8127909 160.897328,45.5713563 C159.700964,44.3285013 159.099251,42.6566838 159.099251,40.5658466 C159.099251,38.5119399 159.655765,36.800351 160.774443,35.4353411 C161.94397,33.9780049 163.524526,33.2493367 165.513286,33.2493367 C167.466734,33.2493367 168.945592,33.9780049 169.948447,35.4353411 C170.745082,36.590131 171.144811,38.0218999 171.144811,39.7221256 L171.144811,39.7221256 Z M168.273256,38.9366412 C168.294443,38.0375244 168.096697,37.2648237 167.688493,36.6085962 C167.16729,35.7648753 166.365006,35.3444352 165.290115,35.3444352 C164.30421,35.3444352 163.503339,35.7549324 162.893151,36.5787677 C162.391723,37.2335748 162.093692,38.0218999 162.001881,38.9338004 L168.273256,38.9366412 L168.273256,38.9366412 Z" id="Fill-11" fill="#FFFFFF"></path>
                            <path d="M67.4552544,21.5139448 L65.8775234,21.5139448 L65.0145031,18.7853454 L62.0130005,18.7853454 L61.1895294,21.5139448 L59.6541725,21.5139448 L62.6288382,12.223071 L64.4650516,12.223071 L67.4552544,21.5139448 L67.4552544,21.5139448 Z M64.7546083,17.6404984 L63.9735114,15.2144454 C63.891588,14.9658744 63.7404535,14.3877693 63.5073957,13.4645056 L63.4791462,13.4645056 C63.3830981,13.8636396 63.2460884,14.4431651 63.0398675,15.2144454 L62.2728953,17.6404984 L64.7546083,17.6404984 L64.7546083,17.6404984 Z" id="Fill-12" fill="#FFFFFF"></path>
                            <path d="M74.893331,14.8153114 L72.3706564,21.5139448 L70.9313476,21.5139448 L68.4905963,14.8153114 L70.0810395,14.8153114 L71.2194918,18.3578033 C71.411588,18.9501125 71.5754347,19.5154339 71.6983198,20.0523473 L71.7392815,20.0523473 C71.8494543,19.5708298 72.013301,19.0055083 72.2181094,18.3578033 L73.342437,14.8153114 L74.893331,14.8153114" id="Fill-13" fill="#FFFFFF"></path>
                            <path d="M80.2635489,21.5139448 L80.1533761,20.7426645 L80.1124144,20.7426645 C79.6604235,21.3633818 79.0022116,21.6659282 78.1660283,21.6659282 C76.973902,21.6659282 76.123594,20.825048 76.123594,19.694405 C76.123594,18.0410528 77.5487781,17.1859686 80.0163664,17.1859686 L80.0163664,17.0623933 C80.0163664,16.1803213 79.5502507,15.7385751 78.632144,15.7385751 C77.9739321,15.7385751 77.3976436,15.9047626 76.8919787,16.2357171 L76.5911222,15.2570576 C77.2083724,14.8707073 77.9753446,14.6775321 78.880739,14.6775321 C80.6209043,14.6775321 81.4994618,15.6007958 81.4994618,17.4487436 L81.4994618,19.9159883 C81.4994618,20.5921015 81.5277112,21.1162312 81.5955099,21.5153652 L80.2635489,21.5139448 L80.2635489,21.5139448 Z M80.057328,18.1774118 C78.4117984,18.1774118 77.5897398,18.5779662 77.5897398,19.5282176 C77.5897398,20.2313184 78.0148938,20.5750566 78.6038945,20.5750566 C79.3581545,20.5750566 80.057328,19.9969515 80.057328,19.2114671 L80.057328,18.1774118 L80.057328,18.1774118 Z" id="Fill-14" fill="#FFFFFF"></path>
                            <path d="M84.796171,13.7116562 C84.3032183,13.7116562 83.919026,13.3253058 83.919026,12.8153802 C83.919026,12.3054545 84.3159306,11.9333082 84.8244204,11.9333082 C85.3314978,11.9333082 85.7425271,12.3054545 85.7284024,12.8153802 C85.7284024,13.353714 85.3456226,13.7116562 84.796171,13.7116562 L84.796171,13.7116562 Z M84.0842852,14.8153114 L85.5645557,14.8153114 L85.5645557,21.5139448 L84.0842852,21.5139448 L84.0842852,14.8153114 Z" id="Fill-15" fill="#FFFFFF"></path>
                            <polygon id="Fill-16" fill="#FFFFFF" points="88.1945782 11.7415535 89.6748487 11.7415535 89.6748487 21.5139448 88.1945782 21.5139448"></polygon>
                            <path d="M95.9659982,21.5139448 L95.8544129,20.7426645 L95.8148637,20.7426645 C95.3628727,21.3633818 94.7046609,21.6659282 93.8684775,21.6659282 C92.6763513,21.6659282 91.8260433,20.825048 91.8260433,19.694405 C91.8260433,18.0410528 93.2512274,17.1859686 95.7188156,17.1859686 L95.7188156,17.0623933 C95.7188156,16.1803213 95.2526999,15.7385751 94.3345932,15.7385751 C93.6763814,15.7385751 93.1000929,15.9047626 92.594428,16.2357171 L92.292159,15.2556372 C92.9094092,14.8692869 93.6763814,14.6761117 94.5817758,14.6761117 C96.3219411,14.6761117 97.2019111,15.5993754 97.2019111,17.4473232 L97.2019111,19.9145679 C97.2019111,20.5906811 97.2301605,21.1148108 97.2951342,21.5139448 L95.9659982,21.5139448 L95.9659982,21.5139448 Z M95.7597773,18.1774118 C94.1142476,18.1774118 93.292189,18.5779662 93.292189,19.5282176 C93.292189,20.2313184 93.7173431,20.5750566 94.3063438,20.5750566 C95.0606038,20.5750566 95.7597773,19.9969515 95.7597773,19.2114671 L95.7597773,18.1774118 L95.7597773,18.1774118 Z" id="Fill-17" fill="#FFFFFF"></path>
                            <path d="M103.197854,21.6659282 C102.25291,21.6659282 101.555149,21.2653738 101.101746,20.4798894 L101.073496,20.4798894 L100.988748,21.5139448 L99.7288232,21.5139448 C99.7683724,20.9770314 99.7824971,20.3690978 99.7824971,19.7086091 L99.7824971,11.7415535 L101.265592,11.7415535 L101.265592,15.7953914 L101.292429,15.7953914 C101.731708,15.0510988 102.443594,14.6789525 103.416787,14.6789525 C105.021355,14.6789525 106.145683,16.0581664 106.145683,18.0694609 C106.145683,20.1489349 104.897058,21.6659282 103.197854,21.6659282 L103.197854,21.6659282 Z M102.896997,15.8479464 C102.045277,15.8479464 101.265592,16.592239 101.265592,17.6262943 L101.265592,18.798129 C101.265592,19.7213928 101.966179,20.4798894 102.87016,20.4798894 C103.978951,20.4798894 104.639988,19.5708298 104.639988,18.1234363 C104.638575,16.7726305 103.952114,15.8479464 102.896997,15.8479464 L102.896997,15.8479464 Z" id="Fill-18" fill="#FFFFFF"></path>
                            <polygon id="Fill-19" fill="#FFFFFF" points="108.336426 11.7415535 109.815284 11.7415535 109.815284 21.5139448 108.336426 21.5139448"></polygon>
                            <path d="M117.872024,18.5225703 L113.428387,18.5225703 C113.458049,19.7909926 114.291408,20.5068771 115.524496,20.5068771 C116.18412,20.5068771 116.787245,20.3960855 117.32116,20.1901266 L117.551393,21.224182 C116.92143,21.4997407 116.181295,21.6375201 115.318275,21.6375201 C113.233466,21.6375201 112.000378,20.3137019 112.000378,18.2612157 C112.000378,16.207309 113.263128,14.663328 115.153015,14.663328 C116.850807,14.663328 117.922873,15.9317503 117.922873,17.8478776 C117.92711,18.1092323 117.914398,18.3435992 117.872024,18.5225703 L117.872024,18.5225703 Z M116.516051,17.4615273 C116.516051,16.4274719 115.993436,15.6973834 115.04708,15.6973834 C114.196772,15.6973834 113.52726,16.441676 113.428387,17.4615273 L116.516051,17.4615273 L116.516051,17.4615273 Z" id="Fill-20" fill="#FFFFFF"></path>
                            <path d="M126.844045,21.6659282 C124.897659,21.6659282 123.636321,20.2043307 123.636321,18.2200239 C123.636321,16.1519132 124.924496,14.6775321 126.95563,14.6775321 C128.872354,14.6775321 130.163354,16.0695297 130.163354,18.1106527 C130.163354,20.2043307 128.832805,21.6659282 126.844045,21.6659282 L126.844045,21.6659282 Z M126.900544,15.7655629 C125.831302,15.7655629 125.146254,16.7712101 125.146254,18.1774118 C125.146254,19.5566257 125.845427,20.5622729 126.886419,20.5622729 C127.927411,20.5622729 128.626584,19.4870258 128.626584,18.1490036 C128.626584,16.7854142 127.941535,15.7655629 126.900544,15.7655629 L126.900544,15.7655629 Z" id="Fill-21" fill="#FFFFFF"></path>
                            <path d="M138.12122,21.5139448 L136.643774,21.5139448 L136.643774,17.6674861 C136.643774,16.4828677 136.190371,15.8891382 135.299101,15.8891382 C134.421956,15.8891382 133.817418,16.6476348 133.817418,17.5297067 L133.817418,21.5139448 L132.339973,21.5139448 L132.339973,16.7300183 C132.339973,16.1377092 132.323023,15.5027878 132.283474,14.813891 L133.585773,14.813891 L133.654984,15.8479464 L133.697358,15.8479464 C134.091438,15.1320619 134.902197,14.6761117 135.807591,14.6761117 C137.203113,14.6761117 138.12122,15.7513588 138.12122,17.5012986 L138.12122,21.5139448" id="Fill-22" fill="#FFFFFF"></path>
                            <path d="M147.806539,15.9317503 L146.177959,15.9317503 L146.177959,19.1844794 C146.177959,20.0125759 146.464691,20.425914 147.039567,20.425914 C147.299462,20.425914 147.52122,20.3975059 147.697779,20.3563141 L147.738741,21.4869571 C147.450596,21.5977487 147.064991,21.6531445 146.588988,21.6531445 C145.420874,21.6531445 144.725938,21.0054395 144.725938,19.3094751 L144.725938,15.9317503 L143.75557,15.9317503 L143.75557,14.8153114 L144.725938,14.8153114 L144.725938,13.5880809 L146.177959,13.1463347 L146.177959,14.813891 L147.806539,14.813891 L147.806539,15.9317503" id="Fill-23" fill="#FFFFFF"></path>
                            <path d="M155.645758,21.5139448 L154.164075,21.5139448 L154.164075,17.6958942 C154.164075,16.4970718 153.710671,15.8905586 152.820814,15.8905586 C152.053842,15.8905586 151.341956,16.4146883 151.341956,17.4757313 L151.341956,21.5139448 L149.860273,21.5139448 L149.860273,11.7415535 L151.341956,11.7415535 L151.341956,15.7655629 L151.370206,15.7655629 C151.834909,15.0354743 152.508658,14.6761117 153.371678,14.6761117 C154.782738,14.6761117 155.645758,15.7783465 155.645758,17.5297067 L155.645758,21.5139448" id="Fill-24" fill="#FFFFFF"></path>
                            <path d="M163.209544,18.5225703 L158.767321,18.5225703 C158.79557,19.7909926 159.628928,20.5068771 160.863429,20.5068771 C161.524466,20.5068771 162.126179,20.3960855 162.657268,20.1901266 L162.888913,21.224182 C162.260363,21.4997407 161.518816,21.6375201 160.654383,21.6375201 C158.570987,21.6375201 157.337899,20.3137019 157.337899,18.2612157 C157.337899,16.207309 158.599236,14.663328 160.489124,14.663328 C162.188327,14.663328 163.258981,15.9317503 163.258981,17.8478776 C163.264631,18.1092323 163.250506,18.3435992 163.209544,18.5225703 L163.209544,18.5225703 Z M161.852159,17.4615273 C161.852159,16.4274719 161.332369,15.6973834 160.386013,15.6973834 C159.535705,15.6973834 158.864781,16.441676 158.767321,17.4615273 L161.852159,17.4615273 L161.852159,17.4615273 Z" id="Fill-25" fill="#FFFFFF"></path>
                        </g>
                    </g>
                </g>
            </g>
        </g>
    </g>
</svg>