<?xml version="1.0" encoding="UTF-8"?>
<svg width="84px" height="70px" viewBox="0 0 84 70" version="1.1" xmlns="http://www.w3.org/2000/svg" xmlns:xlink="http://www.w3.org/1999/xlink">
    <!-- Generator: Sketch 39.1 (31720) - http://www.bohemiancoding.com/sketch -->
    <title>recharge icon with plus and pig copy</title>
    <desc>Created with Sketch.</desc>
    <defs></defs>
    <g id="Page-1" stroke="none" stroke-width="1" fill="none" fill-rule="evenodd">
        <g id="time-to-change" transform="translate(-678.000000, -2959.000000)">
            <g id="recharge-icon-with-plus-and-pig-copy" transform="translate(678.000000, 2959.000000)">
                <g id="Balance-icon-Copy-3" transform="translate(0.437604, 0.000000)">
                    <path d="M52.0811995,19.2104155 C55.2022706,20.4248243 59.2105504,22.020239 59.8271612,21.8536585 C60.2647722,21.7354358 60.6866007,21.4951719 61.0068517,21.1707317 C61.3271027,20.8462915 61.5642643,20.4189451 61.6809606,19.9756098 C61.7967557,19.5356979 61.749296,19.0597465 61.6809606,18.6097561 C61.6349609,18.3068471 61.5117116,18.0110983 61.3439062,17.7560976 C60.6708584,16.7333198 57.2472127,15.5095018 57.4677802,15.3658537 C58.2499701,14.8564397 59.1983281,14.655406 59.9956884,14.1707317 C60.5670967,13.823402 62.1356041,11.7216785 62.8606511,11.9512195 C65.8662948,12.9027696 72.627675,21.2318757 73.9834473,23.3902439 C74.7862599,24.668309 75.5579256,26.9047261 76.0057738,28.3414634 C76.1421572,28.7789935 75.7604328,29.5209695 76.174301,29.7073171 C76.6334466,29.9140511 77.1205579,29.3298044 77.5225188,29.0243902 C78.0309635,28.6380685 78.5013271,28.1824748 78.8707365,27.6585366 C79.3528299,26.9747771 79.7237005,26.2113585 80.050427,25.4390244 C80.3879906,24.6410727 80.1427472,21.0935279 80.5560086,21.5121951 C83.4034205,24.3968537 83.3690719,29.7598954 80.5560086,32.6097561 C80.0473157,33.1251032 79.502295,33.6266171 78.8707365,33.9756098 C78.2469275,34.3203201 77.133221,33.9990242 76.8484099,34.6585366 C76.2163474,36.1221491 76.793445,37.8672373 76.5113555,39.4390244 C76.0072437,42.2479076 75.0378385,44.6871064 73.6463928,47.1219512 C73.5834563,47.2320818 72.8150895,48.4705834 72.4667023,49 C71.3550076,50.689355 67.8720283,52.71151 67.4108859,54.4634146 C66.1398121,59.2922918 69.8942759,65.7733847 65.0515049,69.1463415 C64.6989619,69.3918852 64.2989774,69.6344949 63.8718144,69.6585366 C60.488171,69.8489757 54.3299145,71.1868665 52.580491,66.7560976 C52.4084491,66.3203666 52.2965347,65.8564473 52.2434366,65.3902439 C52.1273541,64.3710363 52.9240201,62.8762148 52.0749093,62.3170732 C51.1495375,61.7077134 49.9579514,62.9662196 48.8728923,63.1707317 C47.5371038,63.4225014 46.1855041,63.6194644 44.8282391,63.6829268 C42.527483,63.7905046 40.2148679,63.8641955 37.9186233,63.6829268 C35.8745974,63.5215686 33.8723881,62.3075918 31.8516436,62.6585366 C31.1849239,62.7743265 32.0201708,64.0220231 32.0201708,64.7073171 C32.0201708,66.0237567 31.6181783,67.0058006 30.8404803,68.1219512 C28.7236397,71.1600365 21.249327,69.5864439 19.8862113,69.4878049 C19.173202,69.4362094 17.9674885,68.1940238 17.6953575,67.7804878 C15.4258773,64.3317371 17.1229827,59.3338638 16.8527215,55.8292683 C16.8217827,55.4280723 16.3333186,55.2095108 16.0100854,54.9756098 C13.5819467,53.2185376 10.5472975,50.2241904 9.10046959,47.2926829 C8.35818421,45.7886926 8.1808545,43.9397048 7.07814302,42.6829268 C6.63028947,42.172501 5.72739105,42.7420885 5.05581644,42.6829268 C4.43011374,42.6278062 3.78277396,42.5837267 3.20201708,42.3414634 C-1.04168529,40.5711989 0.0891030318,34.4191667 0.337054429,30.902439 C0.376473061,30.3433593 0.671490294,29.8082888 1.01116329,29.3658537 C1.66206877,28.518028 2.87224964,27.4541201 4.04465315,27.3170732 C5.0491518,27.1996534 6.31041061,27.9837375 7.07814302,27.3170732 C8.18708982,26.3541136 8.1313815,24.5534731 8.76341516,23.2195122 C10.0538097,20.4960244 13.3411227,17.1412204 15.3359765,15.195122 C15.3792121,15.1529431 16.8457401,14.2520676 16.8527215,14.1707317 C17.0668467,11.6760805 16.2647736,9.09072823 16.8527215,6.65853659 C17.1012506,5.63043457 20.0179589,5.53015013 20.5603201,5.80487805 L21.4029562,5.80487805 C21.6595546,5.60269085 21.9765593,5.72311239 22.2455923,5.80487805 C23.1148645,6.06907098 24.0139114,6.32611717 24.7735006,6.82926829 C25.5049194,7.31375947 25.7536083,8.68848473 26.6272999,8.70731707 C28.7257238,8.75254842 30.6040006,6.80748892 32.6942797,7 C33.5963663,7.08308061 33.4863859,8.66589061 34.0424974,9.3902439 C34.676562,10.2161337 35.5569531,10.8190876 36.2333512,11.6097561 C36.3069336,11.6957695 36.3360192,11.9049924 36.2333512,11.9512195 C34.8299643,12.5831059 33.0388286,12.8377793 33.5369157,15.0243902 C33.6331155,15.4467089 33.7686126,15.8865513 34.0424974,16.2195122 C34.3518613,16.5956051 34.7834238,16.8680153 35.2221879,17.0731707 C35.5324409,17.2182376 35.8916475,17.2439024 36.2333512,17.2439024 C37.3826771,17.2439024 38.5323325,17.1666896 39.6815305,17.107882 C38.0620777,15.2914435 37.0759872,12.8843362 37.0759872,10.2439024 C37.0759872,4.58635134 41.6031195,-9.47247574e-16 47.1876201,-9.47247574e-16 C52.7721208,-9.47247574e-16 57.299253,4.58635134 57.299253,10.2439024 C57.299253,14.1030467 55.1928172,17.4637708 52.0811995,19.2104155 Z M52.0811995,19.2104155 C50.460397,18.5797612 49.0788592,18.0518576 48.5358378,17.9268293 C46.7075054,17.5058636 44.8465887,17.1770961 42.9744397,17.0731707 C41.8776793,17.0122882 40.7798138,17.0516799 39.6815305,17.107882 C41.5320138,19.1834531 44.2094599,20.4878049 47.1876201,20.4878049 C48.9628059,20.4878049 50.6311489,20.0243726 52.0811995,19.2104155 Z M17.0787955,29.1218878 C18.4172798,29.7747102 20.3065453,28.6550532 21.2985882,26.6210639 C22.290631,24.5870746 22.0097848,22.4089834 20.6713006,21.756161 C19.3328163,21.1033386 17.4435508,22.2229956 16.4515079,24.2569849 C15.4594651,26.2909742 15.7403113,28.4690654 17.0787955,29.1218878 Z" id="Shape" fill="#FFFFFF"></path>
                    <text id="GRATIS!" font-family="Acme-Regular, Acme" font-size="12.3800001" font-weight="normal" fill="#23BDFF">
                        <tspan x="22.0505769" y="40.0134632">GRATIS</tspan>
                        <tspan x="61.0351972" y="40.0134632" font-size="15.3772892">!</tspan>
                    </text>
                </g>
            </g>
        </g>
    </g>
</svg>