<?xml version="1.0" encoding="UTF-8"?>
<svg width="40px" height="40px" viewBox="0 0 40 40" version="1.1" xmlns="http://www.w3.org/2000/svg" xmlns:xlink="http://www.w3.org/1999/xlink">
    <!-- Generator: Sketch 39.1 (31720) - http://www.bohemiancoding.com/sketch -->
    <title>Rocket Icon</title>
    <desc>Created with Sketch.</desc>
    <defs></defs>
    <g id="Page-1" stroke="none" stroke-width="1" fill="none" fill-rule="evenodd">
        <g id="time-to-change" transform="translate(-700.000000, -234.000000)" fill="#FFFFFF">
            <g id="Header" transform="translate(345.000000, 82.000000)">
                <g id="Rocket-Icon" transform="translate(355.000000, 152.000000)">
                    <path d="M22.521875,6.259375 C27.090625,2.065625 33.35,0.178125 39.45625,4.05404876e-15 C39.240625,6.8125 36.890625,13.928125 31.596875,18.48125 C28.24375,21.65 24.665625,24.565625 21.140625,27.540625 C21.0875,29.884375 21.353125,32.259375 21.11875,34.584375 C19.484375,35.94375 17.834375,37.321875 16.040625,38.46875 C15.60625,36.484375 15.18125,34.5 14.775,32.509375 C13.303125,32.096875 12.084375,34.00625 10.7,33.171875 C9.3,32.31875 8.140625,31.121875 7.078125,29.884375 C6.628125,29.296875 6.071875,28.678125 6.01875,27.903125 C6.321875,26.83125 7.14375,25.88125 6.953125,24.70625 C4.971875,24.246875 2.934375,23.984375 1,23.346875 C2.20625,21.7875 3.40625,20.221875 4.640625,18.684375 C4.909375,18.19375 5.503125,18.303125 5.96875,18.284375 C7.93125,18.325 9.890625,18.3375 11.853125,18.375 C15.33125,14.26875 18.73125,10.08125 22.521875,6.259375 L22.521875,6.259375 Z M26.1,9.215625 C24.865625,9.775 24.096875,11.21875 24.359375,12.55625 C24.578125,14.171875 26.240625,15.384375 27.846875,15.11875 C29.615625,14.928125 30.91875,13.028125 30.440625,11.309375 C30.071875,9.440625 27.79375,8.36875 26.1,9.215625 L26.1,9.215625 Z" id="Shape"></path>
                    <path d="M0.178125,39.821875 C0.075,35.859375 1.034375,31.446875 4.359375,28.921875 C4.465625,29.1 4.678125,29.459375 4.784375,29.640625 C3.24375,31.815625 2.803125,34.5625 2.825,37.175 C5.4375,37.19375 8.190625,36.759375 10.3625,35.209375 C10.6,35.35625 10.8375,35.50625 11.075,35.653125 C8.534375,38.959375 4.14375,39.928125 0.178125,39.821875 L0.178125,39.821875 Z" id="Shape"></path>
                </g>
            </g>
        </g>
    </g>
</svg>