<?xml version="1.0" encoding="UTF-8"?>
<svg width="81px" height="47px" viewBox="0 0 81 47" version="1.1" xmlns="http://www.w3.org/2000/svg" xmlns:xlink="http://www.w3.org/1999/xlink">
    <!-- Generator: Sketch 39.1 (31720) - http://www.bohemiancoding.com/sketch -->
    <title>TTS powered icon</title>
    <desc>Created with Sketch.</desc>
    <defs>
        <linearGradient x1="50%" y1="0%" x2="50%" y2="100%" id="linearGradient-1">
            <stop stop-color="#48E0FF" offset="0%"></stop>
            <stop stop-color="#23BDFF" offset="100%"></stop>
        </linearGradient>
    </defs>
    <g id="Page-1" stroke="none" stroke-width="1" fill="none" fill-rule="evenodd">
        <g id="time-to-change" transform="translate(-418.000000, -1247.000000)" fill="url(#linearGradient-1)">
            <g id="TTS-powered-icon" transform="translate(418.688797, 1244.000000)">
                <path d="M50.3144495,40.7760076 C50.3144495,39.8216368 49.500209,39.0308724 48.5175049,39.0308724 L1.79694462,39.0308724 C0.814240533,39.0308724 0,39.8216368 0,40.7760076 L0,44.2662781 C0,45.2206489 0.814240533,46.0114133 1.79694462,46.0114133 L48.5175049,46.0114133 C49.500209,46.0114133 50.3144495,45.2206489 50.3144495,44.2662781 L50.3144495,40.7760076 Z M39.5327817,30.3051963 C39.5327817,29.3508255 38.7185412,28.5600611 37.7358371,28.5600611 L12.5786124,28.5600611 C11.5959083,28.5600611 10.7816677,29.3508255 10.7816677,30.3051963 L10.7816677,33.7954667 C10.7816677,34.7498376 11.5959083,35.540602 12.5786124,35.540602 L37.7358371,35.540602 C38.7185412,35.540602 39.5327817,34.7498376 39.5327817,33.7954667 L39.5327817,30.3051963 Z M46.7205602,19.8343849 C46.7205602,18.8800141 45.9063197,18.0892497 44.9236156,18.0892497 L5.39083387,18.0892497 C4.40812978,18.0892497 3.59388925,18.8800141 3.59388925,19.8343849 L3.59388925,23.3246554 C3.59388925,24.2790262 4.40812978,25.0697906 5.39083387,25.0697906 L44.9236156,25.0697906 C45.9063197,25.0697906 46.7205602,24.2790262 46.7205602,23.3246554 L46.7205602,19.8343849 Z M35.9388925,9.36357359 C35.9388925,8.40920276 35.124652,7.61843836 34.1419479,7.61843836 L16.1725016,7.61843836 C15.1897975,7.61843836 14.375557,8.40920276 14.375557,9.36357359 L14.375557,12.853844 C14.375557,13.8082149 15.1897975,14.5989793 16.1725016,14.5989793 L34.1419479,14.5989793 C35.124652,14.5989793 35.9388925,13.8082149 35.9388925,12.853844 L35.9388925,9.36357359 Z" id="Icons/Align-center"></path>
                <g id="#010101ff-copy" transform="translate(64.967246, 25.439662) rotate(-5.000000) translate(-64.967246, -25.439662) translate(49.967246, 1.939662)">
                    <path d="M2.76657337,-9.59232693e-14 L2.7787816,-9.59232693e-14 C3.16850596,0.037164962 3.5610476,0.0779557739 3.93950281,0.18219896 C4.91428325,0.440540769 5.75571221,1.05874818 6.36800204,1.82470899 C7.25638575,2.91880921 7.78321795,4.2358992 8.2283489,5.54483103 C8.61995145,6.6860673 8.91294903,7.86084269 9.39376559,8.97307216 C10.02202,10.4886774 10.9179165,11.8800974 11.7912747,13.2724237 C12.9059803,15.0237093 13.9878175,16.7958434 14.9982835,18.606049 C15.6218425,19.7246237 16.171213,20.8930539 16.4867488,22.1303752 C16.6858369,22.9543496 16.7872592,23.8218342 16.5994402,24.6575926 C16.3674838,25.8296486 15.3729824,26.9382522 14.0976916,27.0461212 C13.4299952,27.0551858 12.7622987,27.0506535 12.0955414,27.0560923 C12.0908459,27.4087062 12.1096278,27.7613201 12.0870896,28.113934 C12.0636122,28.5997979 11.5903084,29.009519 11.0888318,28.9922962 C10.1497369,29.0022673 9.21064209,28.9868574 8.27154726,28.995922 C7.16623265,29.007706 6.09566454,29.6540138 5.61390889,30.616677 C5.08707669,31.6101598 5.24202734,32.8900849 5.98579045,33.7430661 C6.53234364,34.3966255 7.38785903,34.7927496 8.25746084,34.795469 C9.51209153,34.7972819 10.7676613,34.7909367 12.022292,34.7963755 C12.3002641,34.7909367 12.5904444,34.8652666 12.7867152,35.0655948 C13.0506009,35.2976492 13.1172766,35.6575148 13.0928601,35.9874672 C13.0045852,37.6517323 12.6665111,39.3024005 12.1321661,40.8859905 C11.6072121,42.358992 10.8869264,43.8156772 9.72620516,44.9233744 C8.81997864,45.7990171 7.57661709,46.3583045 6.28817898,46.3891242 C5.19413351,46.4081599 4.09914893,46.394563 3.00416436,46.3972824 C2.22377656,46.3981889 1.44057147,46.0918045 0.908104701,45.5352366 C0.350282372,44.9750427 0.0732493968,44.1918592 0.0704321123,43.4222725 C0.0741884916,29.9468012 0.0685539226,16.4713298 0.0732493968,2.99495206 C0.0657366381,2.11840283 0.424470863,1.21828558 1.13442655,0.652652991 C1.58988755,0.271938746 2.17588272,0.0734234614 2.76657337,-9.59232693e-14 L2.76657337,-9.59232693e-14 Z" id="Shape"></path>
                    <path d="M23.8886943,22.3452068 C24.2239511,22.2735962 24.5911372,22.376933 24.8306064,22.616239 C26.6740496,24.3901861 28.0319807,26.6345873 28.7034335,29.0639067 C29.6359546,32.3824659 29.3082106,36.0228192 27.7596432,39.1238274 C27.0168192,40.6131453 26.0166832,41.9873424 24.7939817,43.1458014 C24.4061355,43.5156381 23.7093272,43.4757538 23.360923,43.0741909 C22.984346,42.6916637 23.0528999,42.0317591 23.4623452,41.6954615 C25.6936346,39.5362678 27.0590784,36.5648838 27.1999427,33.5173569 C27.4046653,30.1425971 26.114349,26.7116366 23.6943017,24.2660008 C23.4689189,24.0321335 23.1853123,23.8091437 23.1308448,23.474659 C23.0134579,22.978824 23.3759485,22.447637 23.8886943,22.3452068 L23.8886943,22.3452068 Z" id="Shape"></path>
                    <path d="M20.3886879,25.7571316 C20.7154929,25.6954921 21.0648361,25.8097064 21.2949144,26.0399479 C22.984346,27.6607028 24.0417667,29.8824423 24.1939001,32.1794183 C24.4145874,34.9713227 23.3045773,37.8466218 21.1906748,39.7728545 C20.7821686,40.1073392 20.1154113,40.0257576 19.7933017,39.6187559 C19.4655576,39.2498257 19.5106342,38.6515604 19.8768812,38.3225146 C21.1239991,37.1196388 21.9419507,35.5124808 22.153247,33.8228348 C22.4453055,31.6264762 21.7090552,29.3186227 20.1501578,27.6888031 C19.9266532,27.4485906 19.637412,27.2237879 19.5895182,26.8838644 C19.4749486,26.3780584 19.8609166,25.8378067 20.3886879,25.7571316 L20.3886879,25.7571316 Z" id="Shape"></path>
                    <path d="M16.6557859,29.22707 C16.9816518,29.0983523 17.3807671,29.1554594 17.6531046,29.372104 C19.3988819,30.8958674 19.7116005,33.6614844 18.3790249,35.5287972 C18.0447072,35.9539281 17.7028766,36.5259059 17.0868304,36.5630709 C16.4623324,36.6265232 15.9214138,36.0146611 16.042557,35.4299928 C16.0913899,35.0574367 16.4360377,34.8380728 16.6407604,34.5480048 C17.4004881,33.5599607 17.3807671,32.0923979 16.597562,31.122483 C16.3900221,30.857796 16.0810599,30.6320868 16.0434961,30.2785664 C15.9561603,29.8443709 16.2331932,29.3857009 16.6557859,29.22707 L16.6557859,29.22707 Z" id="Shape"></path>
                </g>
            </g>
        </g>
    </g>
</svg>