<?xml version="1.0" encoding="UTF-8"?>
<svg width="133px" height="44px" viewBox="0 0 133 44" version="1.1" xmlns="http://www.w3.org/2000/svg" xmlns:xlink="http://www.w3.org/1999/xlink">
    <!-- Generator: Sketch 39.1 (31720) - http://www.bohemiancoding.com/sketch -->
    <title>Useful</title>
    <desc>Created with Sketch.</desc>
    <defs>
        <linearGradient x1="50%" y1="0%" x2="50%" y2="100%" id="linearGradient-1">
            <stop stop-color="#48E0FF" offset="0%"></stop>
            <stop stop-color="#23BDFF" offset="100%"></stop>
        </linearGradient>
    </defs>
    <g id="Page-1" stroke="none" stroke-width="1" fill="none" fill-rule="evenodd">
        <g id="time-to-change" transform="translate(-361.000000, -1499.000000)" fill="url(#linearGradient-1)">
            <g id="Useful" transform="translate(361.000000, 1499.000000)">
                <path d="M55.0858967,26.0110373 C56.1993704,26.0110373 57.226844,26.2966373 58.1687704,26.8678373 C59.1097914,27.4390373 59.8543704,28.2074373 60.4020546,29.1730373 C60.9497388,30.1386373 61.2240335,31.1790373 61.2240335,32.2942373 C61.2240335,33.4094373 60.8931598,34.642504 60.2323177,35.9934373 C59.5714756,37.0270373 58.8173914,38.1014373 57.971423,39.2166373 C57.1250019,40.3318373 56.4437914,41.1886373 55.9277914,41.7870373 L55.154244,42.6846373 C55.0632651,42.6030373 54.9410546,42.4851706 54.7871598,42.3310373 C54.6332651,42.176904 54.3322651,41.857304 53.8846125,41.3722373 C53.4365072,40.8871706 53.0015283,40.3930373 52.5805809,39.8898373 C52.1596335,39.3866373 51.688444,38.7723706 51.168823,38.0470373 C50.6482967,37.321704 50.1929493,36.6190373 49.8036862,35.9390373 C49.233823,34.679224 48.9482125,33.4910373 48.9482125,32.3758373 C48.9482125,31.252024 49.2220546,30.202104 49.7697388,29.2274373 C50.317423,28.2527706 51.0647177,27.4730373 52.0102651,26.8882373 C52.9562651,26.3034373 53.9814756,26.0110373 55.0858967,26.0110373 C55.0858967,26.0110373 53.9814756,26.0110373 55.0858967,26.0110373 L55.0858967,26.0110373 L55.0858967,26.0110373 Z M55.0727704,35.5174373 C56.0409493,35.5174373 56.8670019,35.1751706 57.5509283,34.4906373 C58.2339493,33.806104 58.5756862,32.979224 58.5756862,32.0086373 C58.5756862,31.038504 58.2339493,30.2134373 57.5509283,29.5334373 C56.8670019,28.8534373 56.0409493,28.5134373 55.0727704,28.5134373 C54.1036862,28.5134373 53.2798967,28.855704 52.6009493,29.5402373 C51.9220019,30.2247706 51.5825283,31.0475706 51.5825283,32.0086373 C51.5825283,32.979224 51.9242651,33.806104 52.6081914,34.4906373 C53.2912125,35.1751706 54.1127388,35.5174373 55.0727704,35.5174373 L55.0727704,35.5174373 Z" id="Fill-64-Copy"></path>
                <path d="M11.832423,32.660984 L16.7620335,37.080984 C16.8973704,37.2083706 17.0150546,37.382904 17.1146335,37.6050373 C17.2142125,37.8271706 17.2640019,38.028904 17.2640019,38.2102373 L17.2640019,38.7678373 C17.2640019,38.9491706 17.2096862,39.069304 17.1015072,39.1282373 C16.9928756,39.1871706 16.8611598,39.161784 16.7072651,39.0534373 L11.832423,35.666584 L11.832423,39.243384 C12.7376862,40.068904 13.1903177,40.5811706 13.1903177,40.7806373 L13.1903177,41.6510373 C13.1903177,41.840984 13.131023,41.972904 13.0137914,42.0454373 C12.8961072,42.1179706 12.7512651,42.112984 12.5797177,42.031384 L11.302844,40.9710373 L8.28831773,40.9710373 L7.01189668,42.031384 C6.83989668,42.112984 6.6955072,42.1179706 6.57782299,42.0454373 C6.45968615,41.972904 6.40084405,41.840984 6.40084405,41.6510373 L6.40084405,40.7806373 C6.40084405,40.5811706 6.85347562,40.068904 7.75873878,39.243384 L7.75873878,35.666584 L2.88434931,39.0534373 C2.73000194,39.161784 2.59873878,39.1871706 2.4901072,39.1282373 C2.38147562,39.069304 2.32715983,38.9491706 2.32715983,38.7678373 L2.32715983,38.2102373 C2.32715983,38.028904 2.37694931,37.8271706 2.47652826,37.6050373 C2.5761072,37.382904 2.69424405,37.2083706 2.82958089,37.080984 L7.75873878,32.660984 L7.75873878,28.0510373 C7.75873878,27.488904 7.95789668,27.0083706 8.3566651,26.608984 C8.75452826,26.2100506 9.23431773,26.0110373 9.79558089,26.0110373 C10.3572967,26.0110373 10.8366335,26.2100506 11.2349493,26.608984 C11.6337177,27.0083706 11.832423,27.488904 11.832423,28.0510373 L11.832423,32.660984" id="Fill-106-Copy"></path>
                <path d="M47.4527177,13.2995706 C46.9407914,12.7827706 46.6850546,12.161704 46.6850546,11.4363706 C46.6850546,10.8107706 46.877423,10.2554373 47.2626125,9.77037064 C47.6468967,9.2857573 48.1380019,8.97930397 48.7354756,8.85237064 C48.717823,8.74357064 48.7083177,8.5758373 48.7083177,8.34917064 C48.7083177,6.96197064 49.1971598,5.7810373 50.174844,4.80637064 C51.1529809,3.83170397 52.3293704,3.34437064 53.7053704,3.34437064 C54.7011598,3.34437064 55.6086862,3.61410397 56.4284019,4.15357064 C57.2472125,4.6930373 57.8560019,5.40250397 58.2547704,6.28197064 C58.6526335,6.1550373 59.0600019,6.09157064 59.476423,6.09157064 C60.5631914,6.09157064 61.4906335,6.48370397 62.2605598,7.26797064 C63.0295809,8.0522373 63.4143177,8.98837064 63.4143177,10.0763706 C63.4143177,11.182504 63.0295809,12.1254373 62.2605598,12.9051706 C61.4906335,13.684904 60.5631914,14.0747706 59.476423,14.0747706 L49.2922125,14.0747706 C48.5770546,14.0747706 47.9637388,13.8163706 47.4527177,13.2995706" id="Fill-5-Copy"></path>
                <path d="M98.9840121,16.7947706 C98.5399806,16.676904 98.1149595,16.500104 97.7071385,16.2643706 L97.6392437,16.2235706 L95.8332437,17.3251706 C95.2900858,16.908104 94.8148227,16.432104 94.4074542,15.8971706 L95.49377,14.0747706 L95.4530332,14.0067706 C95.23577,13.6078373 95.06377,13.1862373 94.9370332,12.7419706 L94.9103279,12.6603706 L92.8594542,12.1435706 C92.8051385,11.7718373 92.7779806,11.4363706 92.7779806,11.1371706 C92.7779806,10.910504 92.8051385,10.5795706 92.8594542,10.1443706 L94.9103279,9.62757064 L94.9370332,9.54597064 C95.0547174,9.1293573 95.2267174,8.70730397 95.4530332,8.28117064 L95.49377,8.21317064 L94.4074542,6.39077064 C94.8238753,5.86490397 95.2991385,5.3893573 95.8332437,4.96277064 L97.6392437,6.06437064 L97.7071385,6.02357064 C98.1054542,5.79690397 98.5313806,5.62010397 98.9840121,5.49317064 L99.0519069,5.47957064 L99.5674542,3.41237064 C99.9929279,3.3670373 100.327875,3.34437064 100.572296,3.34437064 C100.880086,3.34437064 101.215033,3.3670373 101.577591,3.41237064 L102.093138,5.47957064 L102.174612,5.49317064 C102.609138,5.62010397 103.030086,5.79690397 103.437454,6.02357064 L103.505802,6.06437064 L105.324928,4.96277064 C105.868538,5.3893573 106.339275,5.86490397 106.737138,6.39077064 L105.651275,8.21317064 L105.692012,8.28117064 C105.89977,8.66197064 106.076296,9.08357064 106.221591,9.54597064 L106.234717,9.62757064 L108.29917,10.1443706 C108.343981,10.5523706 108.367065,10.883304 108.367065,11.1371706 C108.367065,11.4454373 108.343981,11.780904 108.29917,12.1435706 L106.234717,12.6603706 L106.221591,12.7419706 C106.085349,13.1862373 105.908823,13.6078373 105.692012,14.0067706 L105.651275,14.0747706 L106.737138,15.8971706 C106.302612,16.4502373 105.831423,16.9262373 105.324928,17.3251706 L103.505802,16.2235706 L103.437454,16.2643706 C103.011981,16.500104 102.590581,16.676904 102.174612,16.7947706 L102.093138,16.8219706 L101.577591,18.8755706 C101.151665,18.920904 100.816717,18.9435706 100.572296,18.9435706 C100.26496,18.9435706 99.9295595,18.920904 99.5674542,18.8755706 L99.0519069,16.8219706 L98.9840121,16.7947706 L98.9840121,16.7947706 L98.9840121,16.7947706 L98.9840121,16.7947706 Z M97.6528227,11.1371706 C97.6528227,11.9445573 97.9379806,12.6331706 98.5082964,13.2043706 C99.0790648,13.7755706 99.7666121,14.0611706 100.572296,14.0611706 C101.377981,14.0611706 102.065981,13.7755706 102.636749,13.2043706 C103.207065,12.6331706 103.492223,11.9445573 103.492223,11.1371706 C103.492223,10.339304 103.207065,9.65477064 102.636749,9.08357064 C102.065981,8.51237064 101.377981,8.22677064 100.572296,8.22677064 C99.7666121,8.22677064 99.0790648,8.51237064 98.5082964,9.08357064 C97.9379806,9.65477064 97.6528227,10.339304 97.6528227,11.1371706 L97.6528227,11.1371706 Z" id="Fill-25-Copy"></path>
                <path d="M120.758578,3.96317064 C121.722683,3.5506373 122.738841,3.34437064 123.807051,3.34437064 C124.875262,3.34437064 125.891872,3.5506373 126.855978,3.96317064 C127.820083,4.37570397 128.652472,4.93330397 129.354051,5.63597064 C130.05563,6.3386373 130.61282,7.17277064 131.024714,8.13837064 C131.436156,9.10397064 131.642104,10.121704 131.642104,11.1915706 C131.642104,12.2614373 131.436156,13.2791706 131.024714,14.2447706 C130.61282,15.2103706 130.05563,16.044504 129.354051,16.7471706 C128.652472,17.4498373 127.820083,18.0074373 126.855978,18.4199706 C125.891872,18.8329573 124.875262,19.0387706 123.807051,19.0387706 C122.738841,19.0387706 121.722683,18.8329573 120.758578,18.4199706 C119.794472,18.0074373 118.96163,17.4498373 118.260051,16.7471706 C117.558925,16.044504 117.001735,15.2103706 116.589841,14.2447706 C116.177946,13.2791706 115.972451,12.2614373 115.972451,11.1915706 C115.972451,10.121704 116.177946,9.10397064 116.589841,8.13837064 C117.001735,7.17277064 117.558925,6.3386373 118.260051,5.63597064 C118.96163,4.93330397 119.794472,4.37570397 120.758578,3.96317064 C120.758578,3.96317064 119.794472,4.37570397 120.758578,3.96317064 L120.758578,3.96317064 L120.758578,3.96317064 Z M124.974841,11.8851706 L125.762872,7.77797064 C125.79863,7.5966373 125.762872,7.4402373 125.653788,7.30877064 C125.545156,7.1777573 125.395788,7.11157064 125.205683,7.11157064 L122.394841,7.11157064 C122.213788,7.11157064 122.069399,7.1777573 121.960314,7.30877064 C121.851683,7.4402373 121.815472,7.5966373 121.851683,7.77797064 L122.639262,11.8851706 C122.675472,12.066504 122.772788,12.222904 122.931662,12.3543706 C123.08963,12.4858373 123.259367,12.5515706 123.440872,12.5515706 L124.173683,12.5515706 C124.354735,12.5515706 124.524472,12.4858373 124.682893,12.3543706 C124.841767,12.222904 124.93863,12.066504 124.974841,11.8851706 C124.974841,11.8851706 124.93863,12.066504 124.974841,11.8851706 L124.974841,11.8851706 L124.974841,11.8851706 Z M122.449156,15.2715706 L125.164946,15.2715706 L125.164946,13.9115706 L122.449156,13.9115706 L122.449156,13.9115706 L122.449156,15.2715706 L122.449156,15.2715706 Z" id="Fill-100-Copy"></path>
                <path d="M132.267188,32.2932011 L130.909293,32.2932011 L130.909293,35.0132011 L125.477714,35.0132011 L125.477714,30.9332011 L122.761925,30.9332011 L122.761925,35.0132011 L117.330346,35.0132011 L117.330346,32.2932011 L115.972451,32.2932011 L115.972451,30.9332011 L117.479714,30.9332011 L117.479714,30.8516011 C117.479714,30.8062678 117.484241,30.7382678 117.493746,30.6476011 C117.502346,30.5569344 117.516378,30.4753344 117.534483,30.4028011 L118.009293,27.9956011 C118.09982,27.6510678 118.283135,27.3745344 118.559241,27.1660011 C118.835799,26.9574678 119.149925,26.8532011 119.502978,26.8532011 C119.765504,26.8532011 120.046135,26.9348011 120.344872,27.0980011 L123.576662,29.0564011 C123.766767,29.1652011 123.94782,29.3284011 124.11982,29.5460011 C124.28322,29.3469878 124.46382,29.1878678 124.66343,29.0700011 L127.908346,27.1116011 C128.171325,26.9574678 128.446978,26.8804011 128.737114,26.8804011 C129.090167,26.8804011 129.404293,26.9892011 129.680399,27.2068011 C129.956504,27.4244011 130.144346,27.7100011 130.244378,28.0636011 L130.705609,30.4028011 C130.723714,30.4753344 130.737293,30.5569344 130.746346,30.6476011 C130.755851,30.7382678 130.759925,30.8062678 130.759925,30.8516011 L130.759925,30.9332011 L132.267188,30.9332011 L132.267188,32.2932011 L132.267188,32.2932011 L132.267188,32.2932011 L132.267188,32.2932011 Z M117.330346,37.7332011 L122.761925,37.7332011 L122.761925,43.1732011 L117.330346,43.1732011 L117.330346,43.1732011 L117.330346,37.7332011 L117.330346,37.7332011 Z M119.59803,28.3356011 L119.353609,28.9748011 C119.191114,29.4100011 119.032241,29.8452011 118.878346,30.2804011 C118.724451,30.7156011 118.661535,30.9332011 118.688241,30.9332011 L122.503925,30.9332011 L119.59803,28.3356011 L119.59803,28.3356011 L119.59803,28.3356011 L119.59803,28.3356011 Z M125.477714,43.1732011 L130.909293,43.1732011 L130.909293,37.7332011 L125.477714,37.7332011 L125.477714,37.7332011 L125.477714,43.1732011 L125.477714,43.1732011 Z M129.551399,30.9332011 C129.569504,30.9332011 129.53782,30.8040011 129.456346,30.5456011 C129.375325,30.2872011 129.261714,29.9608011 129.116872,29.5664011 C128.97203,29.1720011 128.867925,28.8818678 128.804556,28.6960011 C128.741188,28.5101344 128.686872,28.3628011 128.642062,28.2540011 L125.898662,30.9332011 L129.551399,30.9332011 L129.551399,30.9332011 Z" id="Fill-101-Copy"></path>
                <path d="M21.862274,41.3508011 C21.7396108,41.0425344 21.7740108,40.7433344 21.9636635,40.4532011 L30.6813477,25.9556011 C30.8628529,25.6654678 31.0796635,25.5340011 31.3335898,25.5612011 C31.5866108,25.5884011 31.803874,25.7516011 31.9849266,26.0508011 L40.7030635,40.4124011 C40.8931687,40.7025344 40.9266635,41.0085344 40.8044529,41.3304011 C40.6822424,41.6522678 40.4536635,41.8132011 40.1191687,41.8132011 L22.5475582,41.8132011 C22.2126108,41.8132011 21.9840319,41.6590678 21.862274,41.3508011 C21.862274,41.3508011 21.9840319,41.6590678 21.862274,41.3508011 L21.862274,41.3508011 L21.862274,41.3508011 Z M37.3757687,39.0932011 L31.3335898,29.2604011 L25.2905056,39.0932011 L29.975695,39.0932011 L29.975695,37.7332011 L32.6914845,37.7332011 L32.6914845,39.0932011 L37.3757687,39.0932011 L37.3757687,39.0932011 L37.3757687,39.0932011 L37.3757687,39.0932011 Z M32.6914845,33.6532011 L31.3335898,37.7332011 L29.975695,33.6532011 L29.975695,32.2932011 L32.6914845,32.2932011 L32.6914845,33.6532011 L32.6914845,33.6532011 Z" id="Fill-105-Copy"></path>
                <polyline id="Fill-189-Copy" points="32.200844 15.4211706 33.2192651 16.0331706 28.4666335 16.0331706 29.4850546 15.4211706 29.4850546 13.3131706 24.0534756 13.3131706 27.7197914 9.23317064 25.4113704 9.23317064 29.0776862 5.15317064 26.7692651 5.15317064 30.8429493 0.624370637 34.9166335 5.15317064 32.6086651 5.15317064 36.2745283 9.23317064 33.9665598 9.23317064 37.632423 13.3131706 32.200844 13.3131706 32.200844 15.4211706"></polyline>
                <path d="M11.2123177,11.5043706 L7.92621247,11.5043706 L7.38305457,16.9443706 L0.0640019401,16.9443706 L5.91652826,0.624370637 L8.75498089,0.624370637 L8.46982299,4.70437064 L10.6691598,4.70437064 L10.3975809,0.624370637 L13.2224546,0.624370637 L19.0745283,16.9443706 L11.7695072,16.9443706 L11.2123177,11.5043706 L11.2123177,11.5043706 L11.2123177,11.5043706 L11.2123177,11.5043706 Z M11.0905598,10.1443706 L10.7234756,6.06437064 L8.4155072,6.06437064 L8.04842299,10.1443706 L11.0905598,10.1443706 L11.0905598,10.1443706 Z" id="Fill-30-Copy"></path>
                <path d="M102.641138,29.5732011 L106.714823,29.5732011 C107.086433,29.5732011 107.405538,29.7069344 107.672591,29.9744011 C107.939191,30.2418678 108.072717,30.5614678 108.072717,30.9332011 L108.072717,36.3732011 L101.283244,36.3732011 L101.283244,35.0132011 L98.5674542,35.0132011 L98.5674542,36.3732011 L91.7779806,36.3732011 L91.7779806,30.9332011 C91.7779806,30.5614678 91.9115069,30.2418678 92.1785595,29.9744011 C92.4456121,29.7069344 92.7647174,29.5732011 93.1358753,29.5732011 L97.2095595,29.5732011 L97.2095595,28.2132011 C97.2095595,27.8414678 97.3430858,27.5218678 97.6101385,27.2544011 C97.8771911,26.9869344 98.1962964,26.8532011 98.5674542,26.8532011 L101.283244,26.8532011 C101.654854,26.8532011 101.97396,26.9869344 102.241012,27.2544011 C102.507612,27.5218678 102.641138,27.8414678 102.641138,28.2132011 L102.641138,29.5732011 L102.641138,29.5732011 L102.641138,29.5732011 L102.641138,29.5732011 Z M108.072717,37.7332011 L108.072717,40.4532011 C108.072717,40.8249344 107.939191,41.1445344 107.672591,41.4120011 C107.405538,41.6794678 107.086433,41.8132011 106.714823,41.8132011 L93.1358753,41.8132011 C92.7647174,41.8132011 92.4456121,41.6794678 92.1785595,41.4120011 C91.9115069,41.1445344 91.7779806,40.8249344 91.7779806,40.4532011 L91.7779806,37.7332011 L108.072717,37.7332011 L108.072717,37.7332011 L108.072717,37.7332011 L108.072717,37.7332011 Z M98.5674542,29.5732011 L101.283244,29.5732011 L101.283244,28.2132011 L98.5674542,28.2132011 L98.5674542,28.2132011 L98.5674542,29.5732011 L98.5674542,29.5732011 Z" id="Fill-191-Copy"></path>
                <path d="M70.235752,4.70437064 L70.235752,2.66437064 C70.235752,2.47397064 70.3013836,2.3130373 70.4330994,2.1811173 C70.5639099,2.05010397 70.7245941,1.98437064 70.9146994,1.98437064 L72.9515415,1.98437064 L72.9515415,0.624370637 L74.3094362,0.624370637 L74.3094362,1.98437064 L81.0989099,1.98437064 L81.0989099,0.624370637 L82.4568046,0.624370637 L82.4568046,1.98437064 L84.4936467,1.98437064 C84.683752,1.98437064 84.8448889,2.05010397 84.9756994,2.1811173 C85.1069625,2.3130373 85.1725941,2.47397064 85.1725941,2.66437064 L85.1725941,4.70437064 L70.235752,4.70437064 L70.235752,4.70437064 L70.235752,4.70437064 L70.235752,4.70437064 Z M85.1725941,6.06437064 L85.1725941,16.2643706 C85.1725941,16.445704 85.1069625,16.6043706 84.9756994,16.7399173 C84.8448889,16.8763706 84.683752,16.9443706 84.4936467,16.9443706 L70.9146994,16.9443706 C70.7245941,16.9443706 70.5639099,16.8763706 70.4330994,16.7399173 C70.3013836,16.6043706 70.235752,16.445704 70.235752,16.2643706 L70.235752,6.06437064 L85.1725941,6.06437064 L85.1725941,6.06437064 L85.1725941,6.06437064 L85.1725941,6.06437064 Z M71.5936467,10.1443706 L72.9515415,10.1443706 L72.9515415,8.78437064 L71.5936467,8.78437064 L71.5936467,8.78437064 L71.5936467,10.1443706 L71.5936467,10.1443706 Z M71.5936467,12.8643706 L72.9515415,12.8643706 L72.9515415,11.5043706 L71.5936467,11.5043706 L71.5936467,11.5043706 L71.5936467,12.8643706 L71.5936467,12.8643706 Z M71.5936467,15.5843706 L72.9515415,15.5843706 L72.9515415,14.2243706 L71.5936467,14.2243706 L71.5936467,14.2243706 L71.5936467,15.5843706 L71.5936467,15.5843706 Z M74.3094362,10.1443706 L75.667331,10.1443706 L75.667331,8.78437064 L74.3094362,8.78437064 L74.3094362,8.78437064 L74.3094362,10.1443706 L74.3094362,10.1443706 Z M74.3094362,12.8643706 L75.667331,12.8643706 L75.667331,11.5043706 L74.3094362,11.5043706 L74.3094362,11.5043706 L74.3094362,12.8643706 L74.3094362,12.8643706 Z M74.3094362,15.5843706 L75.667331,15.5843706 L75.667331,14.2243706 L74.3094362,14.2243706 L74.3094362,14.2243706 L74.3094362,15.5843706 L74.3094362,15.5843706 Z M77.0252257,10.1443706 L78.3831204,10.1443706 L78.3831204,8.78437064 L77.0252257,8.78437064 L77.0252257,8.78437064 L77.0252257,10.1443706 L77.0252257,10.1443706 Z M77.0252257,12.8643706 L78.3831204,12.8643706 L78.3831204,11.5043706 L77.0252257,11.5043706 L77.0252257,11.5043706 L77.0252257,12.8643706 L77.0252257,12.8643706 Z M77.0252257,15.5843706 L78.3831204,15.5843706 L78.3831204,14.2243706 L77.0252257,14.2243706 L77.0252257,14.2243706 L77.0252257,15.5843706 L77.0252257,15.5843706 Z M79.7410152,10.1443706 L81.0989099,10.1443706 L81.0989099,8.78437064 L79.7410152,8.78437064 L79.7410152,8.78437064 L79.7410152,10.1443706 L79.7410152,10.1443706 Z M79.7410152,12.8643706 L81.0989099,12.8643706 L81.0989099,11.5043706 L79.7410152,11.5043706 L79.7410152,11.5043706 L79.7410152,12.8643706 L79.7410152,12.8643706 Z M79.7410152,15.5843706 L81.0989099,15.5843706 L81.0989099,14.2243706 L79.7410152,14.2243706 L79.7410152,14.2243706 L79.7410152,15.5843706 L79.7410152,15.5843706 Z M82.4568046,10.1443706 L83.8146994,10.1443706 L83.8146994,8.78437064 L82.4568046,8.78437064 L82.4568046,8.78437064 L82.4568046,10.1443706 L82.4568046,10.1443706 Z M82.4568046,12.8643706 L83.8146994,12.8643706 L83.8146994,11.5043706 L82.4568046,11.5043706 L82.4568046,11.5043706 L82.4568046,12.8643706 L82.4568046,12.8643706 Z M82.4568046,15.5843706 L83.8146994,15.5843706 L83.8146994,14.2243706 L82.4568046,14.2243706 L82.4568046,14.2243706 L82.4568046,15.5843706 L82.4568046,15.5843706 Z" id="Fill-192-Copy"></path>
                <path d="M81.9903177,31.8046373 L83.3482125,31.8046373 C83.719823,31.8046373 84.0389283,31.9383706 84.3059809,32.2058373 C84.5725809,32.473304 84.7061072,32.792904 84.7061072,33.1646373 L84.7061072,41.3246373 C84.7061072,41.6963706 84.5725809,42.0159706 84.3059809,42.2834373 C84.0389283,42.550904 83.719823,42.6846373 83.3482125,42.6846373 L71.1271598,42.6846373 C70.7560019,42.6846373 70.4368967,42.550904 70.169844,42.2834373 C69.9027914,42.0159706 69.7692651,41.6963706 69.7692651,41.3246373 L69.7692651,33.1646373 C69.7692651,32.792904 69.9027914,32.473304 70.169844,32.2058373 C70.4368967,31.9383706 70.7560019,31.8046373 71.1271598,31.8046373 L72.4850546,31.8046373 L72.4850546,29.0846373 C72.4850546,28.3407173 72.7521072,27.7015173 73.2862125,27.1670373 C73.8203177,26.632104 74.4585283,26.3646373 75.200844,26.3646373 L79.2745283,26.3646373 C80.016844,26.3646373 80.6550546,26.632104 81.1896125,27.1670373 C81.7232651,27.7015173 81.9903177,28.3407173 81.9903177,29.0846373 L81.9903177,31.8046373 L81.9903177,31.8046373 L81.9903177,31.8046373 L81.9903177,31.8046373 Z M75.200844,31.8046373 L79.2745283,31.8046373 L79.2745283,29.7646373 C79.2745283,29.5742373 79.2088967,29.413304 79.0776335,29.281384 C78.946823,29.1503706 78.7856862,29.0846373 78.5955809,29.0846373 L75.8797914,29.0846373 C75.6896862,29.0846373 75.5290019,29.1503706 75.3981914,29.281384 C75.2664756,29.413304 75.200844,29.5742373 75.200844,29.7646373 L75.200844,31.8046373 L75.200844,31.8046373 Z" id="Fill-196-Copy"></path>
            </g>
        </g>
    </g>
</svg>